SplineFontDB: 3.0
FontName: Gemunu-Sinhala-0
FullName: Gemunu-Sinhala
FamilyName: Gemunu-Sinhala
OS2FamilyName: "AbhayaLibre"
OS2StyleName: "regular"
Weight: Regular
Copyright: Copyright (c) 1997-2015 Pushpananda Ekanayake (http://isiwara.lk), Copyright (c) 2015 mooniak (http://mooniak.com)\n
UComments: "2015-2-15: Created with FontForge (http://fontforge.org) The  Free Font Editor"
Version: 1.0
ItalicAngle: 0
UnderlinePosition: -102
UnderlineWidth: 51
Ascent: 819
Descent: 205
InvalidEm: 0
UFOAscent: 819
UFODescent: -205
LayerCount: 2
Layer: 0 0 "Back" 1
Layer: 1 0 "Fore" 0
FSType: 0
OS2Version: 0
OS2_WeightWidthSlopeOnly: 0
OS2_UseTypoMetrics: 0
CreationTime: 1455711107
ModificationTime: 1455959605
PfmFamily: 16
TTFWeight: 400
TTFWidth: 5
LineGap: 94
VLineGap: 0
OS2TypoAscent: 819
OS2TypoAOffset: 0
OS2TypoDescent: -205
OS2TypoDOffset: 0
OS2TypoLinegap: 94
OS2WinAscent: 918
OS2WinAOffset: 0
OS2WinDescent: 205
OS2WinDOffset: 0
HheadAscent: 918
HheadAOffset: 0
HheadDescent: -205
HheadDOffset: 0
OS2CapHeight: 0
OS2XHeight: 0
OS2Vendor: 'PfEd'
OS2UnicodeRanges: 00000002.00000000.00000000.00000000
DEI: 91125
LangName: 1033 "Copyright (c) 1997-2015 Pushpananda Ekanayake (http://isiwara.lk), Copyright (c) 2015 mooniak (http://mooniak.com)+AAoA" "" "" "" "" "Version 1.0.1" "" "" "" "" "" "" "" "This Font Software is licensed under the SIL Open Font License, Version 1.1. This license is available with a FAQ at: http://scripts.sil.org/OFL" "" "" "" "Regular"
PickledDataWithLists: "(dp1
S'public.glyphOrder'
p2
(lp3
S'A'
aS'Aacute'
p4
aS'Acircumflex'
p5
aS'Adieresis'
p6
aS'Agrave'
p7
aS'Aring'
p8
aS'Atilde'
p9
aS'AE'
p10
aS'B'
aS'C'
aS'Ccedilla'
p11
aS'D'
aS'Eth'
p12
aS'E'
aS'Eacute'
p13
aS'Ecircumflex'
p14
aS'Edieresis'
p15
aS'Egrave'
p16
aS'F'
aS'G'
aS'H'
aS'I'
aS'Iacute'
p17
aS'Icircumflex'
p18
aS'Idieresis'
p19
aS'Igrave'
p20
aS'J'
aS'K'
aS'L'
aS'Lslash'
p21
aS'M'
aS'N'
aS'Ntilde'
p22
aS'O'
aS'Oacute'
p23
aS'Ocircumflex'
p24
aS'Odieresis'
p25
aS'Ograve'
p26
aS'Oslash'
p27

StartChar: .notdef
Encoding: 0 -1 0
GlifName: _notdef
Width: 631
VWidth: 0
Flags: W
LayerCount: 2
Back
Fore
SplineSet
50 -92.6602 m 257
 50 734.34 l 257
 581 734.34 l 257
 581 -92.6602 l 257
 50 -92.6602 l 257
266.397 63.2725 m 256
 266.397 78.4473 278.968 91.0176 294.143 91.0176 c 256
 309.317 91.0176 321.888 78.4473 321.888 63.2725 c 256
 321.888 48.0977 309.317 35.5273 294.143 35.5273 c 256
 278.968 35.5273 266.397 48.0977 266.397 63.2725 c 256
88.3799 698.34 m 257
 88.3799 -55.5498 l 257
 541.62 -55.5498 l 257
 541.62 698.34 l 257
 88.3799 698.34 l 257
168.906 498.894 m 257
 192.791 529.146 237.149 573.34 310.475 573.34 c 256
 406.15 573.34 461.629 509.014 463.165 423.806 c 256
 465 322 387.732 270.116 316.428 268.12 c 257
 316.428 122 l 257
 270.492 122 l 257
 270.492 309.044 l 257
 363.296 310.459 417.23 338.678 417.23 418.65 c 256
 417.23 479.219 377.355 533.04 308.475 533.04 c 256
 244.473 533.04 216.848 495.115 199.547 472.045 c 257
 168.906 498.894 l 257
EndSplineSet
PickledDataWithLists: "(dp1
."
EndChar

StartChar: anusvara
Encoding: 1 3458 1
GlifName: anusvara
Width: 417
VWidth: 0
GlyphClass: 2
Flags: W
LayerCount: 2
Back
Fore
SplineSet
76 18 m 258
 42.0589 18 22 32.9844 22 69 c 258
 22 389 l 258
 22 420.569 39.854 446 84 446 c 258
 314.996 446 l 258
 358.244 446 370 422.025 370 388 c 258
 370 73 l 258
 370 38.0469 356.673 18 313.996 18 c 258
 76 18 l 258
59 386 m 258
 59 75 l 258
 59 59.9459 65.6208 50.1992 88 50.1992 c 258
 305.996 50.1992 l 258
 325.147 50.1992 332.996 60.166 332.996 79 c 258
 332.996 384 l 258
 332.996 404.21 326.895 413.796 306.996 413.796 c 258
 88 413.796 l 258
 68.5713 413.796 59 402.658 59 386 c 258
EndSplineSet
EndChar

StartChar: dottedcircle
Encoding: 2 9676 2
GlifName: dottedcircle
Width: 558
VWidth: 0
GlyphClass: 2
Flags: W
LayerCount: 2
Back
Fore
SplineSet
106.419 96 m 256
 107.142 110.667 114.76 118 129.272 118 c 256
 144.811 118 152.193 110.667 151.419 96 c 256
 150.697 81.333 143.079 74 128.567 74 c 256
 113.028 74 105.646 81.333 106.419 96 c 256
64.1611 163.5 m 256
 64.8246 178.5 72.0733 186 85.9072 186 c 256
 100.791 186 107.875 178.5 107.161 163.5 c 256
 106.497 148.5 99.2467 141 85.4131 141 c 256
 70.5292 141 63.4462 148.5 64.1611 163.5 c 256
171.504 53 m 256
 172.225 67.667 179.676 75 193.855 75 c 256
 209.061 75 216.277 67.667 215.504 53 c 256
 214.782 38.333 207.331 31 193.151 31 c 256
 177.945 31 170.729 38.333 171.504 53 c 256
247.883 37 m 256
 248.605 51.667 255.889 59 269.735 59 c 256
 284.609 59 291.658 51.667 290.883 37 c 256
 290.162 22.333 282.878 15 269.031 15 c 256
 254.158 15 247.109 22.333 247.883 37 c 256
49.5 240 m 256
 49.9003 254.667 57.3511 262 71.8525 262 c 256
 87.3918 262 94.7749 254.667 94 240 c 256
 93.2768 225.333 85.826 218 71.6475 218 c 256
 56.4532 218 49.0711 225.333 49.5 240 c 256
67.3389 316.5 m 256
 68.3265 331.5 75.7425 339 89.5869 339 c 256
 104.485 339 111.402 331.5 110.339 316.5 c 256
 109.356 301.5 102.44 294 89.5928 294 c 256
 73.6983 294 66.281 301.5 67.3389 316.5 c 256
326.504 53 m 256
 327.225 67.667 334.676 75 348.855 75 c 256
 364.061 75 371.277 67.667 370.504 53 c 256
 369.782 38.333 362.331 31 348.151 31 c 256
 332.945 31 325.729 38.333 326.504 53 c 256
112.187 383.5 m 256
 113.29 397.833 120.943 405 135.145 405 c 256
 150.354 405 157.368 397.833 156.187 383.5 c 256
 155.084 369.167 147.431 362 133.228 362 c 256
 118.019 362 111.006 369.167 112.187 383.5 c 256
393.919 96 m 256
 394.963 110.667 402.414 118 416.272 118 c 256
 431.159 118 438.041 110.667 436.919 96 c 256
 435.876 81.333 428.425 74 414.567 74 c 256
 399.68 74 392.798 81.333 393.919 96 c 256
178.391 427.5 m 256
 179.056 442.5 186.473 450 200.639 450 c 256
 215.855 450 223.105 442.5 222.391 427.5 c 256
 221.727 412.5 214.311 405 200.145 405 c 256
 184.929 405 177.677 412.5 178.391 427.5 c 256
437.661 163.5 m 256
 438.648 178.5 446.398 186 460.907 186 c 256
 476.47 186 483.72 178.5 482.661 163.5 c 256
 481.672 148.5 473.923 141 459.413 141 c 256
 443.851 141 436.6 148.5 437.661 163.5 c 256
256.223 442.5 m 256
 256.886 457.5 264.135 465 277.969 465 c 256
 292.852 465 299.937 457.5 299.223 442.5 c 256
 298.557 427.5 291.308 420 277.475 420 c 256
 262.591 420 255.507 427.5 256.223 442.5 c 256
454.5 240 m 256
 454.9 254.667 462.351 262 476.853 262 c 256
 492.392 262 499.775 254.667 499 240 c 256
 498.277 225.333 490.826 218 476.647 218 c 256
 461.453 218 454.071 225.333 454.5 240 c 256
333.391 427.5 m 256
 334.056 442.5 341.473 450 355.639 450 c 256
 370.855 450 378.105 442.5 377.391 427.5 c 256
 376.727 412.5 369.311 405 355.145 405 c 256
 339.929 405 332.677 412.5 333.391 427.5 c 256
440.839 316.5 m 256
 441.504 331.5 449.087 339 463.587 339 c 256
 479.136 339 486.553 331.5 485.839 316.5 c 256
 485.174 301.5 477.592 294 463.093 294 c 256
 447.543 294 440.126 301.5 440.839 316.5 c 256
397.687 383.5 m 256
 398.468 397.833 406.12 405 420.645 405 c 256
 436.174 405 443.522 397.833 442.687 383.5 c 256
 441.906 369.167 434.253 362 419.728 362 c 256
 404.199 362 396.852 369.167 397.687 383.5 c 256
EndSplineSet
EndChar

StartChar: si_A
Encoding: 3 3461 3
GlifName: si_A_
Width: 542
VWidth: 0
GlyphClass: 2
Flags: W
LayerCount: 2
Back
Fore
SplineSet
322.39 428.999 m 258
 322.39 472.314 345.848 496.999 384.004 496.999 c 258
 493 497 l 257
 493 465.999 l 257
 457 465.999 l 258
 445.646 465.771 444 459.332 444 455.999 c 256
 444 441.735 490 403.788 490 349.998 c 258
 490 251.998 l 258
 490 218.378 473.152 198.999 440 198.999 c 258
 359.389 198.999 l 257
 359.389 31.999 l 257
 488 31.999 l 257
 488 0 l 257
 359.389 0 l 257
 359.389 -140 l 257
 322.389 -140 l 257
 322.389 0 l 257
 69.999 0 l 258
 33 0 21.999 14.0518 21.999 51 c 258
 21.999 297 l 258
 21.999 334.333 40.5322 353 77.1992 353 c 258
 227 352.999 l 257
 227 422.999 l 258
 227 460.607 207.099 465.999 182 465.999 c 258
 21.999 466 l 257
 21.999 497 l 257
 192 496.999 l 258
 238.889 496.999 264.001 474.111 264.001 430.999 c 258
 264 320.999 l 257
 88.2002 321 l 258
 65.3369 321 59 311.682 59 287 c 258
 59 59 l 258
 59 36.908 63.5967 32.0001 81 32 c 258
 322.389 31.999 l 257
 322.39 428.999 l 258
359.389 231.4 m 257
 428 231.4 l 258
 446.854 231.4 453 237.007 453 258.999 c 258
 453 349.999 l 258
 453 394.059 405.387 427.699 405.387 457.999 c 256
 405.387 460.665 405.838 463.944 407.387 465.999 c 257
 379.997 465.999 359.389 463.103 359.389 426.999 c 258
 359.389 231.4 l 257
EndSplineSet
EndChar

StartChar: si_B.halant
Encoding: 9 -1 9
GlifName: si_B_.halant
Width: 515
VWidth: 0
GlyphClass: 2
Flags: W
LayerCount: 2
Back
Fore
SplineSet
460 400 m 257
 423 400 l 257
 423 484 l 258
 423 513.546 406.062 518 387 518 c 258
 14 518 l 257
 14 550 l 257
 82 550 l 257
 52.667 557.333 50 582.667 50 604 c 258
 50 632 l 258
 50 659.333 66.3333 673 99 673 c 258
 458 673 l 257
 458 641 l 257
 102.5 641 l 258
 87.5312 641 87 633.667 87 616 c 256
 87 573.678 97.3973 550 168 550 c 258
 391 550 l 258
 446.441 550 460 525.687 460 469 c 258
 460 400 l 257
215.002 54 m 258
 214.002 356.586 l 258
 213.945 376.709 206.548 385.586 188 385.586 c 258
 85 385.586 l 258
 64.3496 385.586 59 375.711 59 356.386 c 258
 59 60 l 258
 59 37.8389 64.4795 32 82 32 c 258
 172 32 l 257
 172 0 l 257
 72 0 l 258
 34.9277 0 22 16.2734 22 54 c 258
 22 362.602 l 258
 22 399.269 40.667 417.602 78 417.602 c 258
 196.603 417.602 l 258
 228.73 417.602 251.603 403.389 251.603 364 c 258
 251.603 62 l 258
 251.603 41.9082 255.226 32 277 32 c 258
 402 32 l 258
 418.515 32 423.004 39.3467 423.004 58 c 258
 423.004 415 l 257
 460.001 415 l 257
 460.001 54 l 258
 460.001 16.2705 447.076 -0 410.001 0 c 258
 267.002 0 l 258
 230.255 0 215.125 16.7315 215.002 54 c 258
EndSplineSet
EndChar

StartChar: si_BI
Encoding: 10 -1 10
GlifName: si_B_I_
Width: 515
VWidth: 0
GlyphClass: 2
Flags: W
LayerCount: 2
Back
Fore
SplineSet
460 400 m 257
 423 400 l 257
 423 476 l 258
 423 499.381 416.127 509.5 391 509.5 c 258
 69 509.5 l 258
 37.667 509.5 22 525.5 22 557.5 c 258
 22 620 l 258
 22 653.415 36.1038 672 72 672 c 258
 458.5 672 l 257
 458.5 640 l 257
 84 640 l 258
 63.083 640 58.875 635.558 58.875 611 c 258
 58.875 566 l 258
 58.875 552.49 60.4326 541.5 83 541.5 c 258
 391 541.5 l 258
 447.814 541.5 460 524.085 460 466 c 258
 460 400 l 257
215.002 54 m 258
 214.002 356.586 l 258
 213.945 376.709 206.548 385.586 188 385.586 c 258
 85 385.586 l 258
 64.3496 385.586 59 375.711 59 356.386 c 258
 59 60 l 258
 59 37.8389 64.4795 32 82 32 c 258
 172 32 l 257
 172 0 l 257
 72 0 l 258
 34.9277 0 22 16.2734 22 54 c 258
 22 362.602 l 258
 22 399.269 40.667 417.602 78 417.602 c 258
 196.603 417.602 l 258
 228.73 417.602 251.603 403.389 251.603 364 c 258
 251.603 62 l 258
 251.603 41.9082 255.226 32 277 32 c 258
 402 32 l 258
 418.515 32 423.004 39.3467 423.004 58 c 258
 423.004 415 l 257
 460.001 415 l 257
 460.001 54 l 258
 460.001 16.2705 447.076 -0 410.001 0 c 258
 267.002 0 l 258
 230.255 0 215.125 16.7315 215.002 54 c 258
EndSplineSet
EndChar

StartChar: si_BIi
Encoding: 11 -1 11
GlifName: si_B_I_i
Width: 515
VWidth: 0
GlyphClass: 2
Flags: W
LayerCount: 2
Back
Fore
SplineSet
423 405 m 257
 423 479.5 l 258
 423 497.69 405.683 509.5 387 509.5 c 258
 65 509.5 l 258
 35.1572 509.5 22 518.271 22 550.5 c 258
 22 618 l 258
 22 654.86 35.4108 672 72 672 c 258
 410 672 l 258
 446.588 672 460 654.858 460 618 c 258
 460 570 l 258
 460 547.838 450.687 532.87 433 528 c 257
 454.911 521.152 460 504.274 460 475 c 258
 460 405 l 257
 423 405 l 257
272 539 m 257
 260.918 542.511 254 550.292 254 567 c 258
 254 621 l 258
 254 633.107 260.501 638.25 264 640 c 257
 263.853 640 75.875 640 75.875 640 c 258
 64.542 640 58.875 635.333 58.875 626 c 258
 58.875 554 l 258
 58.875 544 64.208 539 74.875 539 c 258
 272 539 l 257
315 640 m 258
 299.45 640 291 630.698 291 616 c 258
 291 570.5 l 258
 291 551.602 307.267 545.5 324.5 545.5 c 258
 387 545.5 l 258
 403.345 545.5 423 550.393 423 577 c 258
 423 627.5 l 258
 423 636.697 415.693 640 408.5 640 c 258
 315 640 l 258
215.002 54 m 258
 214.002 356.586 l 258
 213.945 376.709 206.548 385.586 188 385.586 c 258
 85 385.586 l 258
 64.3496 385.586 59 375.711 59 356.386 c 258
 59 60 l 258
 59 37.8389 64.4795 32 82 32 c 258
 172 32 l 257
 172 0 l 257
 72 0 l 258
 34.9277 0 22 16.2734 22 54 c 258
 22 362.602 l 258
 22 399.269 40.667 417.602 78 417.602 c 258
 196.603 417.602 l 258
 228.73 417.602 251.603 403.389 251.603 364 c 258
 251.603 62 l 258
 251.603 41.9082 255.226 32 277 32 c 258
 402 32 l 258
 418.515 32 423.004 39.3467 423.004 58 c 258
 423.004 415 l 257
 460.001 415 l 257
 460.001 54 l 258
 460.001 16.2705 447.076 -0 410.001 0 c 258
 267.002 0 l 258
 230.255 0 215.125 16.7315 215.002 54 c 258
EndSplineSet
EndChar

StartChar: si_BR.halant
Encoding: 12 -1 12
GlifName: si_B_R_.halant
Width: 515
VWidth: 0
GlyphClass: 2
Flags: W
LayerCount: 2
Back
Fore
SplineSet
22.1943 -21 m 257
 22.1943 -105.803 l 258
 22.1943 -135.797 39.1104 -150 66.1943 -150 c 258
 418.806 -150 l 258
 444.139 -150 459.806 -138.565 459.806 -107 c 258
 459.806 -21 l 257
 422.805 -21 l 257
 422.805 -97 l 258
 422.805 -109.878 417.64 -118.006 402.806 -118.006 c 258
 77.2041 -118.006 l 258
 64.0898 -118.006 59 -110 59 -98 c 258
 59 -21 l 257
 22.1943 -21 l 257
460 400 m 257
 423 400 l 257
 423 484 l 258
 423 513.546 406.062 518 387 518 c 258
 14 518 l 257
 14 550 l 257
 82 550 l 257
 52.667 557.333 50 582.667 50 604 c 258
 50 632 l 258
 50 659.333 66.3333 673 99 673 c 258
 458 673 l 257
 458 641 l 257
 102.5 641 l 258
 87.5312 641 87 633.667 87 616 c 256
 87 573.678 97.3973 550 168 550 c 258
 391 550 l 258
 446.441 550 460 525.687 460 469 c 258
 460 400 l 257
215.002 54 m 258
 214.002 356.586 l 258
 213.945 376.709 206.548 385.586 188 385.586 c 258
 85 385.586 l 258
 64.3496 385.586 59 375.711 59 356.386 c 258
 59 60 l 258
 59 37.8389 64.4795 32 82 32 c 258
 172 32 l 257
 172 0 l 257
 72 0 l 258
 34.9277 0 22 16.2734 22 54 c 258
 22 362.602 l 258
 22 399.269 40.667 417.602 78 417.602 c 258
 196.603 417.602 l 258
 228.73 417.602 251.603 403.389 251.603 364 c 258
 251.603 62 l 258
 251.603 41.9082 255.226 32 277 32 c 258
 402 32 l 258
 418.515 32 423.004 39.3467 423.004 58 c 258
 423.004 415 l 257
 460.001 415 l 257
 460.001 54 l 258
 460.001 16.2705 447.076 -0 410.001 0 c 258
 267.002 0 l 258
 230.255 0 215.125 16.7315 215.002 54 c 258
EndSplineSet
EndChar

StartChar: si_BRI
Encoding: 13 -1 13
GlifName: si_B_R_I_
Width: 513
VWidth: 0
GlyphClass: 2
Flags: W
LayerCount: 2
Back
Fore
SplineSet
22.1943 -21 m 257
 22.1943 -105.803 l 258
 22.1943 -135.797 39.1104 -150 66.1943 -150 c 258
 418.806 -150 l 258
 444.139 -150 459.806 -138.565 459.806 -107 c 258
 459.806 -21 l 257
 422.805 -21 l 257
 422.805 -97 l 258
 422.805 -109.878 417.64 -118.006 402.806 -118.006 c 258
 77.2041 -118.006 l 258
 64.0898 -118.006 59 -110 59 -98 c 258
 59 -21 l 257
 22.1943 -21 l 257
EndSplineSet
Refer: 10 -1 N 1 0 0 1 0 0 2
EndChar

StartChar: si_BRIi
Encoding: 14 -1 14
GlifName: si_B_R_I_i
Width: 514
VWidth: 0
GlyphClass: 2
Flags: W
LayerCount: 2
Back
Fore
SplineSet
22.1943 -21 m 257
 22.1943 -105.803 l 258
 22.1943 -135.797 39.1104 -150 66.1943 -150 c 258
 418.806 -150 l 258
 444.139 -150 459.806 -138.565 459.806 -107 c 258
 459.806 -21 l 257
 422.805 -21 l 257
 422.805 -97 l 258
 422.805 -109.878 417.64 -118.006 402.806 -118.006 c 258
 77.2041 -118.006 l 258
 64.0898 -118.006 59 -110 59 -98 c 258
 59 -21 l 257
 22.1943 -21 l 257
EndSplineSet
Refer: 11 -1 N 1 0 0 1 0 0 2
EndChar

StartChar: si_BRa
Encoding: 15 -1 15
GlifName: si_B_R_a
Width: 515
VWidth: 0
GlyphClass: 2
Flags: W
LayerCount: 2
Back
Fore
SplineSet
22.1943 -21 m 257
 22.1943 -105.803 l 258
 22.1943 -135.797 39.1104 -150 66.1943 -150 c 258
 418.806 -150 l 258
 444.139 -150 459.806 -138.565 459.806 -107 c 258
 459.806 -21 l 257
 422.805 -21 l 257
 422.805 -97 l 258
 422.805 -109.878 417.64 -118.006 402.806 -118.006 c 258
 77.2041 -118.006 l 258
 64.0898 -118.006 59 -110 59 -98 c 258
 59 -21 l 257
 22.1943 -21 l 257
EndSplineSet
Refer: 18 3510 N 1 0 0 1 0 0 2
EndChar

StartChar: si_Ba
Encoding: 18 3510 18
GlifName: si_B_a
Width: 515
VWidth: 0
GlyphClass: 2
Flags: W
LayerCount: 2
Back
Fore
SplineSet
384 625 m 258
 435.559 625 460 601.678 460 548 c 258
 460 400 l 257
 423 400 l 257
 423 541 l 258
 423 579.354 413.56 593 375.598 593 c 258
 22 593 l 257
 22 625 l 257
 384 625 l 258
215.002 54 m 258
 214.002 409 l 258
 213.945 429.123 206.548 438 188 438 c 258
 85 438 l 258
 64.3494 438 59 428.125 59 408.8 c 258
 59 60 l 258
 59 37.8393 64.4794 32 82 32 c 258
 172 32 l 257
 172 0 l 257
 72 0 l 258
 34.9277 0 22 16.273 22 54 c 258
 22 415.016 l 258
 22 451.683 40.667 470.016 78 470.016 c 258
 196.603 470.016 l 258
 228.73 470.016 251.603 455.803 251.603 416.414 c 258
 251.603 62 l 258
 251.603 41.9086 255.225 32 277 32 c 258
 402 32 l 258
 418.514 32 423.004 39.3471 423.004 58 c 258
 423.004 415 l 257
 460.001 415 l 257
 460.001 54 l 258
 460.001 16.2705 447.076 -4.5404e-15 410.001 0 c 258
 267.002 0 l 258
 230.255 0 215.107 16.7317 215.002 54 c 258
EndSplineSet
EndChar

StartChar: si_Ba.reph
Encoding: 19 -1 19
GlifName: si_B_a.reph
Width: 515
VWidth: 0
GlyphClass: 2
Flags: W
LayerCount: 2
Back
Fore
SplineSet
215.002 54 m 258
 214.002 409 l 258
 213.945 429.123 206.548 438 188 438 c 258
 85 438 l 258
 64.3496 438 59 428.125 59 408.8 c 258
 59 60 l 258
 59 37.8389 64.4795 32 82 32 c 258
 172 32 l 257
 172 0 l 257
 72 0 l 258
 34.9277 0 22 16.2734 22 54 c 258
 22 415.016 l 258
 22 451.683 40.667 470.016 78 470.016 c 258
 196.603 470.016 l 258
 228.73 470.016 251.603 455.803 251.603 416.414 c 258
 251.603 62 l 258
 251.603 41.9082 255.225 32 277 32 c 258
 402 32 l 258
 418.514 32 423.004 39.3467 423.004 58 c 258
 423.004 415 l 257
 460.001 415 l 257
 460.001 54 l 258
 460.001 16.2705 447.076 0 410.001 0 c 258
 267.002 0 l 258
 230.255 0 215.107 16.7314 215.002 54 c 258
208.997 659.598 m 257
 247 659.598 l 257
 247 566 l 258
 247 538.822 235.509 529 216 529 c 258
 116.606 529 l 258
 90.1426 529 76.6064 542.896 76.6064 575 c 258
 76.6064 668.207 l 258
 76.6064 696.944 93.8555 716.207 130.606 716.207 c 258
 322 716.207 l 258
 355.445 716.207 373 699.386 373 660.207 c 258
 373 533.603 l 257
 336.002 533.603 l 257
 336.002 655.806 l 258
 336.002 675.583 329.771 684.204 316 684.204 c 258
 135.606 684.204 l 258
 123.006 684.204 113.614 677.9 113.614 662.806 c 258
 113.614 580.599 l 258
 113.614 567.926 116.859 560.391 128.606 560.391 c 258
 196.206 560.391 l 258
 207.471 560.391 208.997 565.724 208.997 576.391 c 258
 208.997 659.598 l 257
384 625 m 258
 435.559 625 460 601.678 460 548 c 258
 460 400 l 257
 423 400 l 257
 423 541 l 258
 423 579.354 413.56 593 375.598 593 c 258
 22 593 l 257
 22 625 l 257
 384 625 l 258
EndSplineSet
EndChar

StartChar: si_Bha
Encoding: 29 3511 29
GlifName: si_B_ha
Width: 592
VWidth: 0
GlyphClass: 2
Flags: W
LayerCount: 2
Back
Fore
SplineSet
22 51 m 258
 22 281.999 l 258
 22 303 29.667 315.864 45 323.197 c 257
 61.2197 345.5 41.0609 354.999 78 354.999 c 258
 154.998 355 l 257
 154.998 427 l 258
 154.998 453.308 138.406 465 113 465 c 258
 22 464.999 l 257
 22 497 l 257
 120 497 l 258
 163.332 497 192.001 474.112 192.001 431 c 258
 192 323.005 l 257
 103 323.005 l 258
 71.2823 323.005 59 302.096 59 273 c 258
 59 58 l 258
 59 41.6559 62.6816 32 78 32 c 258
 272 32 l 258
 293.421 32 304.008 37.6127 304.008 63 c 258
 304.008 233 l 258
 304.008 251.998 296 255.996 286 255.996 c 258
 217.802 255.996 l 257
 256.802 446 l 258
 263.649 479.36 284.802 497 326.802 497 c 258
 475 497 l 258
 521.224 497 542 479.952 542 434 c 258
 542 64 l 258
 542 15.29 528.134 -6.01715e-15 479 0 c 258
 381 0 l 257
 381 32 l 257
 472 32 l 258
 496.706 32 505.206 40.2802 505.206 71 c 258
 505.206 432 l 258
 505.206 456.6 495.5 464.999 471 465 c 258
 335 465.003 l 258
 313.8 465 296.224 452.834 292 432 c 258
 262.802 288 l 257
 300 287.928 l 258
 318.39 287.892 340.802 280.241 340.802 247 c 258
 340.802 60 l 258
 340.802 12.6074 321.401 0 273.802 0 c 258
 70 0 l 258
 33.3613 0 22 14 22 51 c 258
-6 354.995 m 257
 88 354.995 l 257
 88 322.995 l 257
 -6 322.995 l 257
 -6 354.995 l 257
EndSplineSet
EndChar

StartChar: si_C.halant
Encoding: 31 -1 31
GlifName: si_C_.halant
Width: 539
VWidth: 0
GlyphClass: 2
Flags: W
LayerCount: 2
Back
Fore
SplineSet
-6 309 m 257
 183.996 309 l 257
 183.996 277 l 257
 -6.00195 277 l 257
 -6 309 l 257
496.992 400 m 257
 459.992 400 l 257
 459.992 465 l 258
 459.992 505.98 447.356 518 411.992 518 c 258
 50.9922 518 l 257
 50.9922 550 l 257
 118.992 550 l 257
 89.6592 557.333 86.9922 582.667 86.9922 604 c 258
 86.9922 632 l 258
 86.9922 659.333 103.325 673 135.992 673 c 258
 494.992 673 l 257
 494.992 641 l 257
 139.492 641 l 258
 124.523 641 123.992 633.667 123.992 616 c 256
 123.992 573.678 134.39 550 204.992 550 c 258
 419.992 550 l 258
 480.371 550 496.992 528.468 496.992 469 c 258
 496.992 400 l 257
497 415 m 257
 497 54 l 258
 497 16.2705 484.075 0 447 0 c 258
 116.997 0 l 258
 79.9248 0 66.9971 16.2744 66.9971 54 c 258
 66.9971 226 l 258
 66.9971 253.079 79.2979 273.443 97.9961 282 c 258
 97.9961 282 137.934 309 156.996 309 c 258
 248.091 309 l 257
 248.091 418 l 258
 248.091 435.568 233.664 438 222.997 438 c 258
 66.9961 438 l 257
 66.9961 470 l 257
 233.997 470 l 258
 269.22 470 284.992 454.405 284.993 418 c 258
 284.997 277 l 257
 166.998 277 l 258
 133.544 277 104.001 265.318 104.001 220 c 258
 104.001 59 l 258
 104.001 39.2084 111.293 32 128 32 c 258
 436.003 32 l 258
 453.915 32 460 40.375 460 62 c 258
 460 415 l 257
 497 415 l 257
EndSplineSet
EndChar

StartChar: si_CI
Encoding: 32 -1 32
GlifName: si_C_I_
Width: 539
VWidth: 0
GlyphClass: 2
Flags: W
LayerCount: 2
Back
Fore
SplineSet
496.999 400 m 257
 459.999 400 l 257
 459.999 476 l 258
 459.999 499.381 453.126 509.5 427.999 509.5 c 258
 105.999 509.5 l 258
 74.666 509.5 58.999 525.5 58.999 557.5 c 258
 58.999 620 l 258
 58.999 653.415 73.1025 672 108.999 672 c 258
 495.499 672 l 257
 495.499 640 l 257
 120.999 640 l 258
 100.082 640 95.874 635.559 95.874 611 c 258
 95.874 566 l 258
 95.874 552.489 97.4316 541.5 119.999 541.5 c 258
 427.999 541.5 l 258
 484.813 541.5 496.999 524.085 496.999 466 c 258
 496.999 400 l 257
-6 309 m 257
 183.996 309 l 257
 183.996 277 l 257
 -6.00195 277 l 257
 -6 309 l 257
497 415 m 257
 497 54 l 258
 497 16.2705 484.075 0 447 0 c 258
 116.997 0 l 258
 79.9248 0 66.9971 16.2744 66.9971 54 c 258
 66.9971 226 l 258
 66.9971 253.079 79.2979 273.443 97.9961 282 c 258
 97.9961 282 137.934 309 156.996 309 c 258
 248.091 309 l 257
 248.091 418 l 258
 248.091 435.568 233.664 438 222.997 438 c 258
 66.9961 438 l 257
 66.9961 470 l 257
 233.997 470 l 258
 269.22 470 284.992 454.405 284.993 418 c 258
 284.997 277 l 257
 166.998 277 l 258
 133.544 277 104.001 265.318 104.001 220 c 258
 104.001 59 l 258
 104.001 39.2084 111.293 32 128 32 c 258
 436.003 32 l 258
 453.915 32 460 40.375 460 62 c 258
 460 415 l 257
 497 415 l 257
EndSplineSet
EndChar

StartChar: si_CIi
Encoding: 33 -1 33
GlifName: si_C_I_i
Width: 539
VWidth: 0
GlyphClass: 2
Flags: W
LayerCount: 2
Back
Fore
SplineSet
460 405 m 257
 460 479.5 l 258
 460 497.69 442.683 509.5 424 509.5 c 258
 102 509.5 l 258
 72.1572 509.5 59 518.271 59 550.5 c 258
 59 618 l 258
 59 654.859 72.4111 672 109 672 c 258
 447 672 l 258
 483.588 672 497 654.858 497 618 c 258
 497 570 l 258
 497 547.838 487.687 532.87 470 528 c 257
 491.911 521.152 497 504.274 497 475 c 258
 497 405 l 257
 460 405 l 257
309 539 m 257
 297.918 542.512 291 550.292 291 567 c 258
 291 621 l 258
 291 633.107 297.501 638.25 301 640 c 257
 300.853 640 112.875 640 112.875 640 c 258
 101.542 640 95.875 635.333 95.875 626 c 258
 95.875 554 l 258
 95.875 544 101.208 539 111.875 539 c 258
 309 539 l 257
352 640 m 258
 336.45 640 328 630.698 328 616 c 258
 328 570.5 l 258
 328 551.602 344.267 545.5 361.5 545.5 c 258
 424 545.5 l 258
 440.345 545.5 460 550.393 460 577 c 258
 460 627.5 l 258
 460 636.697 452.693 640 445.5 640 c 258
 352 640 l 258
-6 309 m 257
 183.996 309 l 257
 183.996 277 l 257
 -6.00195 277 l 257
 -6 309 l 257
497 415 m 257
 497 54 l 258
 497 16.2705 484.075 0 447 0 c 258
 116.997 0 l 258
 79.9248 0 66.9971 16.2744 66.9971 54 c 258
 66.9971 226 l 258
 66.9971 253.079 79.2979 273.443 97.9961 282 c 258
 97.9961 282 137.934 309 156.996 309 c 258
 248.091 309 l 257
 248.091 418 l 258
 248.091 435.568 233.664 438 222.997 438 c 258
 66.9961 438 l 257
 66.9961 470 l 257
 233.997 470 l 258
 269.22 470 284.992 454.405 284.993 418 c 258
 284.997 277 l 257
 166.998 277 l 258
 133.544 277 104.001 265.318 104.001 220 c 258
 104.001 59 l 258
 104.001 39.2084 111.293 32 128 32 c 258
 436.003 32 l 258
 453.915 32 460 40.375 460 62 c 258
 460 415 l 257
 497 415 l 257
EndSplineSet
EndChar

StartChar: si_CR.halant
Encoding: 34 -1 34
GlifName: si_C_R_.halant
Width: 539
VWidth: 0
GlyphClass: 2
Flags: W
LayerCount: 2
Back
Fore
SplineSet
67.1943 -21 m 257
 67.1943 -105.803 l 258
 67.1943 -135.797 84.1104 -150 111.194 -150 c 258
 453.202 -150 l 258
 478.535 -150 494.202 -138.565 494.202 -107 c 258
 494.202 -21 l 257
 457.201 -21 l 257
 457.201 -97 l 258
 457.201 -109.878 452.036 -118.006 437.202 -118.006 c 258
 122.204 -118.006 l 258
 109.09 -118.006 104 -110 104 -98 c 258
 104 -21 l 257
 67.1943 -21 l 257
-6 309 m 257
 183.996 309 l 257
 183.996 277 l 257
 -6.00195 277 l 257
 -6 309 l 257
496.992 400 m 257
 459.992 400 l 257
 459.992 465 l 258
 459.992 505.98 447.356 518 411.992 518 c 258
 50.9922 518 l 257
 50.9922 550 l 257
 118.992 550 l 257
 89.6592 557.333 86.9922 582.667 86.9922 604 c 258
 86.9922 632 l 258
 86.9922 659.333 103.325 673 135.992 673 c 258
 494.992 673 l 257
 494.992 641 l 257
 139.492 641 l 258
 124.523 641 123.992 633.667 123.992 616 c 256
 123.992 573.678 134.39 550 204.992 550 c 258
 419.992 550 l 258
 480.371 550 496.992 528.468 496.992 469 c 258
 496.992 400 l 257
497 415 m 257
 497 54 l 258
 497 16.2705 484.075 0 447 0 c 258
 116.997 0 l 258
 79.9248 0 66.9971 16.2744 66.9971 54 c 258
 66.9971 226 l 258
 66.9971 253.079 79.2979 273.443 97.9961 282 c 258
 97.9961 282 137.934 309 156.996 309 c 258
 248.091 309 l 257
 248.091 418 l 258
 248.091 435.568 233.664 438 222.997 438 c 258
 66.9961 438 l 257
 66.9961 470 l 257
 233.997 470 l 258
 269.22 470 284.992 454.405 284.993 418 c 258
 284.997 277 l 257
 166.998 277 l 258
 133.544 277 104.001 265.318 104.001 220 c 258
 104.001 59 l 258
 104.001 39.2084 111.293 32 128 32 c 258
 436.003 32 l 258
 453.915 32 460 40.375 460 62 c 258
 460 415 l 257
 497 415 l 257
EndSplineSet
EndChar

StartChar: si_CRI
Encoding: 35 -1 35
GlifName: si_C_R_I_
Width: 539
VWidth: 0
GlyphClass: 2
Flags: W
LayerCount: 2
Back
Fore
SplineSet
67.1943 -21 m 257
 67.1943 -105.803 l 258
 67.1943 -135.797 84.1104 -150 111.194 -150 c 258
 453.202 -150 l 258
 478.535 -150 494.202 -138.565 494.202 -107 c 258
 494.202 -21 l 257
 457.201 -21 l 257
 457.201 -97 l 258
 457.201 -109.878 452.036 -118.006 437.202 -118.006 c 258
 122.204 -118.006 l 258
 109.09 -118.006 104 -110 104 -98 c 258
 104 -21 l 257
 67.1943 -21 l 257
EndSplineSet
Refer: 32 -1 N 1 0 0 1 0 0 2
EndChar

StartChar: si_CRIi
Encoding: 36 -1 36
GlifName: si_C_R_I_i
Width: 539
VWidth: 0
GlyphClass: 2
Flags: W
LayerCount: 2
Back
Fore
SplineSet
67.1943 -21 m 257
 67.1943 -105.803 l 258
 67.1943 -135.797 84.1104 -150 111.194 -150 c 258
 453.202 -150 l 258
 478.535 -150 494.202 -138.565 494.202 -107 c 258
 494.202 -21 l 257
 457.201 -21 l 257
 457.201 -97 l 258
 457.201 -109.878 452.036 -118.006 437.202 -118.006 c 258
 122.204 -118.006 l 258
 109.09 -118.006 104 -110 104 -98 c 258
 104 -21 l 257
 67.1943 -21 l 257
EndSplineSet
Refer: 33 -1 N 1 0 0 1 0 0 2
EndChar

StartChar: si_CRa
Encoding: 37 -1 37
GlifName: si_C_R_a
Width: 539
VWidth: 0
GlyphClass: 2
Flags: W
LayerCount: 2
Back
Fore
SplineSet
67.1943 -21 m 257
 67.1943 -105.803 l 258
 67.1943 -135.797 84.1104 -150 111.194 -150 c 258
 453.202 -150 l 258
 478.535 -150 494.202 -138.565 494.202 -107 c 258
 494.202 -21 l 257
 457.201 -21 l 257
 457.201 -97 l 258
 457.201 -109.878 452.036 -118.006 437.202 -118.006 c 258
 122.204 -118.006 l 258
 109.09 -118.006 104 -110 104 -98 c 258
 104 -21 l 257
 67.1943 -21 l 257
EndSplineSet
Refer: 40 3488 N 1 0 0 1 0 0 2
EndChar

StartChar: si_CU
Encoding: 38 -1 38
GlifName: si_C_U_
Width: 539
VWidth: 0
GlyphClass: 2
Flags: W
LayerCount: 2
Back
Fore
SplineSet
496.992 -159 m 257
 68 -159 l 257
 68 -126.904 l 257
 459.904 -126.904 l 257
 459.904 28 l 257
 464.904 28 l 258
 473.366 28 491.659 38 496.992 64 c 257
 496.992 -159 l 257
EndSplineSet
Refer: 40 3488 N 1 0 0 1 0 0 2
EndChar

StartChar: si_CUu
Encoding: 39 -1 39
GlifName: si_C_U_u
Width: 539
VWidth: 0
GlyphClass: 2
Flags: W
LayerCount: 2
Back
Fore
SplineSet
496.992 -158.999 m 257
 466.19 -158.999 l 257
 460.99 -149.728 449.522 -138.132 441.794 -132.798 c 256
 431.623 -125.778 413.601 -119.993 394.79 -119.993 c 257
 337.986 -119.993 l 257
 320.328 -119.993 299.826 -127.5 287.397 -132.599 c 257
 239.789 -152.402 l 257
 224.117 -158.382 195.304 -162.805 160.992 -162.805 c 258
 115.399 -162.805 l 258
 82.9854 -162.805 67.3984 -150.575 67.3984 -122.002 c 258
 67.3984 -29.0029 l 257
 104.196 -29.0029 l 257
 104.196 -112.604 l 258
 104.196 -123.889 109.064 -130.605 121.001 -130.605 c 258
 166.786 -130.605 l 258
 187.755 -130.605 213.582 -127.924 236.986 -119.002 c 257
 276.192 -103.399 l 257
 289.158 -98.0723 313.586 -91.5957 335.782 -91.5957 c 257
 399.001 -91.5957 l 257
 420.693 -91.5957 440.139 -97.3721 448.4 -102.801 c 256
 454.354 -106.713 455.041 -107.64 459.788 -112.4 c 257
 459.788 35 l 257
 472.986 35 l 258
 478.555 35 492.992 49 496.992 77 c 257
 496.992 -158.999 l 257
EndSplineSet
Refer: 40 3488 N 1 0 0 1 0 0 2
EndChar

StartChar: si_Ca
Encoding: 40 3488 40
GlifName: si_C_a
Width: 539
VWidth: 0
GlyphClass: 2
Flags: W
LayerCount: 2
Back
Fore
SplineSet
504.997 415 m 257
 504.997 54 l 258
 504.997 16.2705 492.072 0 454.997 0 c 258
 116.997 0 l 258
 79.9248 0 66.9971 16.2744 66.9971 54 c 258
 66.9971 226 l 258
 66.9971 253.079 79.2979 273.443 97.9961 282 c 258
 97.9961 282 137.934 309 156.996 309 c 258
 248.091 309 l 257
 248.091 418 l 258
 248.091 435.568 233.664 438 222.997 438 c 258
 66.9961 438 l 257
 66.9961 470 l 257
 233.997 470 l 258
 269.22 470 284.992 454.405 284.993 418 c 258
 284.997 277 l 257
 166.998 277 l 258
 133.544 277 104.001 265.318 104.001 220 c 258
 104.001 59 l 258
 104.001 39.2084 111.293 32 128 32 c 258
 444 32 l 258
 461.912 32 467.997 40.3751 467.997 62 c 258
 467.997 415 l 257
 504.997 415 l 257
428.999 625 m 258
 480.559 625 504.999 601.678 504.999 548 c 258
 504.999 400 l 257
 467.999 400 l 257
 467.999 541 l 258
 467.999 579.354 458.559 593 420.597 593 c 258
 66.999 593 l 257
 66.999 625 l 257
 428.999 625 l 258
-6 309 m 257
 183.996 309 l 257
 183.996 277 l 257
 -6.00195 277 l 257
 -6 309 l 257
EndSplineSet
EndChar

StartChar: si_Ca.reph
Encoding: 41 -1 41
GlifName: si_C_a.reph
Width: 539
VWidth: 0
GlyphClass: 2
Flags: W
LayerCount: 2
Back
Fore
SplineSet
504.997 415 m 257
 504.997 54 l 258
 504.997 16.2705 492.072 0 454.997 0 c 258
 116.997 0 l 258
 79.9248 0 66.9971 16.2744 66.9971 54 c 258
 66.9971 226 l 258
 66.9971 253.079 79.2979 273.443 97.9961 282 c 258
 97.9961 282 137.934 309 156.996 309 c 258
 248.091 309 l 257
 248.091 418 l 258
 248.091 435.568 233.664 438 222.997 438 c 258
 66.9961 438 l 257
 66.9961 470 l 257
 233.997 470 l 258
 269.22 470 284.992 454.405 284.993 418 c 258
 284.997 277 l 257
 166.998 277 l 258
 133.544 277 104.001 265.318 104.001 220 c 258
 104.001 59 l 258
 104.001 39.208 111.293 32 128 32 c 258
 444 32 l 258
 461.912 32 467.997 40.375 467.997 62 c 258
 467.997 415 l 257
 504.997 415 l 257
248.391 659.598 m 257
 286.394 659.598 l 257
 286.394 566 l 258
 286.394 538.822 274.902 529 255.394 529 c 258
 156 529 l 258
 129.536 529 116 542.896 116 575 c 258
 116 668.207 l 258
 116 696.944 133.249 716.207 170 716.207 c 258
 361.394 716.207 l 258
 394.839 716.207 412.394 699.386 412.394 660.207 c 258
 412.394 533.603 l 257
 375.396 533.603 l 257
 375.396 655.806 l 258
 375.396 675.583 369.165 684.204 355.394 684.204 c 258
 175 684.204 l 258
 162.399 684.204 153.008 677.9 153.008 662.806 c 258
 153.008 580.599 l 258
 153.008 567.926 156.253 560.391 168 560.391 c 258
 235.6 560.391 l 258
 246.864 560.391 248.391 565.724 248.391 576.391 c 258
 248.391 659.598 l 257
428.999 625 m 258
 480.559 625 504.999 601.678 504.999 548 c 258
 504.999 400 l 257
 467.999 400 l 257
 467.999 541 l 258
 467.999 579.354 458.559 593 420.597 593 c 258
 66.999 593 l 257
 66.999 625 l 257
 428.999 625 l 258
-6 309 m 257
 183.996 309 l 257
 183.996 277 l 257
 -6.00195 277 l 257
 -6 309 l 257
EndSplineSet
EndChar

StartChar: si_Ch.halant
Encoding: 42 -1 42
GlifName: si_C_h.halant
Width: 513
VWidth: 0
GlyphClass: 2
Flags: W
LayerCount: 2
Back
Fore
SplineSet
218.809 477.786 m 257
 218.809 649 l 257
 255.599 649 l 257
 255.599 462.798 l 257
 249.693 468.584 228.988 477.786 218.809 477.786 c 257
EndSplineSet
Refer: 47 3489 N 1 0 0 1 0 0 2
EndChar

StartChar: si_ChI
Encoding: 43 -1 43
GlifName: si_C_hI_
Width: 513
VWidth: 0
GlyphClass: 2
Flags: W
LayerCount: 2
Back
Fore
SplineSet
40 511.604 m 257
 77.002 511.604 l 257
 77.002 581 l 258
 77.002 603.366 89.4218 610.998 111 610.998 c 258
 366 610.998 l 257
 407 642.99 l 257
 98.7979 642.989 l 258
 68.6699 642.989 40 624.453 40 590.99 c 258
 40 511.604 l 257
EndSplineSet
Refer: 47 3489 N 1 0 0 1 0 0 2
EndChar

StartChar: si_ChIi
Encoding: 44 -1 44
GlifName: si_C_hI_i
Width: 513
VWidth: 0
GlyphClass: 2
Flags: W
LayerCount: 2
Back
Fore
SplineSet
211.626 601 m 258
 211.626 568 l 258
 211.626 561.115 214.417 557.199 224.653 557.199 c 258
 273.653 557.199 l 258
 286.08 557.199 286.652 562.695 286.652 570 c 258
 286.652 594 l 258
 286.652 604.651 283.767 612.24 271.653 612.24 c 258
 225 612.24 l 258
 214.658 612.24 211.626 605.667 211.626 601 c 258
292 525 m 258
 197.653 525 l 258
 184.461 525 174.653 531.492 174.653 548 c 258
 174.653 605 l 258
 174.653 608 175.965 611.22 177.653 613.201 c 257
 98 613.201 l 258
 83.1412 613.201 77.002 604 77.002 592 c 258
 77.002 507 l 257
 40 507 l 257
 40 600.792 l 258
 40 625.454 61.7109 644.792 86 644.792 c 258
 279.653 644.792 l 258
 305.085 644.792 323.718 631.85 323.842 599 c 258
 324 557 l 258
 324 540 311.09 525 292 525 c 258
EndSplineSet
Refer: 47 3489 N 1 0 0 1 0 0 2
EndChar

StartChar: si_Cha
Encoding: 47 3489 47
GlifName: si_C_ha
Width: 513
VWidth: 0
GlyphClass: 2
Flags: W
LayerCount: 2
Back
Fore
SplineSet
246.799 430 m 258
 246.999 294 l 258
 247.024 277.204 250.346 270.597 265 270.597 c 258
 380 270.597 l 258
 414.363 270.597 424 300 424.002 328.601 c 258
 423.802 433 l 258
 423.757 455.962 414.221 465 397 465 c 258
 280 465 l 258
 263.13 465 247 448 246.799 430 c 258
301.596 486 m 257
 243.8 486 l 257
 257.785 496.162 278.5 498.47 312 525 c 258
 459.198 643 l 257
 508 643 l 257
 356.596 518 l 258
 332.991 497.928 325.433 496.747 301.596 486 c 257
83 32 m 258
 400 32 l 258
 419.579 32 423.805 42.7393 423.805 62 c 258
 423.805 190 l 258
 423.805 226.343 404.114 237.811 379 237.811 c 258
 255 237.811 l 258
 224.35 237.811 211.004 250.636 211.004 282 c 258
 211.003 414.996 l 258
 211.003 462.324 240.809 497 276 497 c 258
 406 497 l 258
 441.204 497 460.998 476.309 461 436 c 258
 461.004 332.2 l 258
 461 301 457.1 274.542 430 256.99 c 257
 455.011 241.293 461 219.553 461 181 c 258
 461 54 l 258
 461 16.2803 448.072 0 411 0 c 258
 72 0 l 258
 34.9249 0 22 16.2703 22 54 c 258
 22 300 l 258
 22 337.333 40.6909 354.999 78 354.999 c 258
 210.604 355 l 257
 210.604 437 l 258
 210.604 456.819 197.731 465 175.6 465 c 258
 23 465 l 257
 23 497 l 257
 182.793 497 l 258
 221.449 497 246.399 479.785 246.399 438 c 258
 246.6 322.804 l 257
 86 322.804 l 258
 64.9316 322.804 59 311.913 59 296 c 258
 59 64 l 258
 59 41.9741 62.1104 32 83 32 c 258
EndSplineSet
EndChar

StartChar: si_DAa
Encoding: 49 -1 49
GlifName: si_D_A_a
Width: 458
VWidth: 0
GlyphClass: 2
Flags: W
LayerCount: 2
Back
Fore
SplineSet
394.998 -36 m 258
 394.998 -24.709 388.997 -20 378.001 -20 c 258
 317 -20 l 257
 306.4 -40 l 257
 268.604 -40 l 257
 363.797 141 l 257
 402 141 l 257
 334 11.9932 l 257
 395.003 11.9932 l 258
 421.003 11.9932 432 -1.00684 432 -25.0068 c 258
 432 -125.399 l 258
 432 -159.018 408.186 -171 380 -171 c 258
 178 -171 l 257
 178 -138.801 l 257
 373.998 -138.801 l 258
 386.966 -138.801 394.998 -133.938 394.998 -120.801 c 258
 394.998 -36 l 258
299.002 16 m 257
 290.585 4.64844 288.844 -6.71642e-15 234 0 c 258
 66.2002 0 l 258
 32.2002 0 22 17.9258 22 49.5996 c 258
 22 295.998 l 258
 22 336.654 43.1064 352.998 80 352.998 c 258
 366.796 352.998 l 257
 366.795 436 l 258
 366.795 457.285 358.271 465 340 465 c 258
 22 465 l 257
 22 497.001 l 257
 351 497 l 258
 384.564 497 404 480.913 404 444 c 258
 404 321.001 l 257
 91 321 l 258
 66.6045 321 59 311.276 59 290 c 258
 59 58.001 l 258
 59 38.1592 67.0479 32 82.2002 32 c 258
 251 32 l 258
 304.961 32 323.635 69.8838 338.398 92 c 257
 299.002 16 l 257
EndSplineSet
EndChar

StartChar: si_DAa.halant
Encoding: 50 -1 50
GlifName: si_D_A_a.halant
Width: 611
VWidth: 0
GlyphClass: 2
Flags: W
LayerCount: 2
Back
Fore
SplineSet
328.602 16 m 257
 320.185 4.64844 318.443 0 263.6 0 c 258
 66.2002 0 l 258
 32.2002 0 22 17.9258 22 49.5996 c 258
 22 295.998 l 258
 22 336.654 43.1064 352.998 80 352.998 c 258
 366.796 352.998 l 257
 366.795 436 l 258
 366.795 457.285 358.271 465 340 465 c 258
 22 465 l 257
 22 497.001 l 257
 351 497 l 258
 384.564 497 404 480.913 404 444 c 258
 404 321.001 l 257
 91 321 l 258
 66.6045 321 59 311.276 59 290 c 258
 59 58.001 l 258
 59 38.1592 67.0479 32 82.2002 32 c 258
 280.6 32 l 258
 334.561 32 353.234 69.8838 367.998 92 c 257
 328.602 16 l 257
518.998 -36 m 258
 518.998 -24.709 512.997 -20 502.001 -20 c 258
 346.6 -20 l 257
 336 -40 l 257
 298.203 -40 l 257
 393.396 141 l 257
 431.6 141 l 257
 363.6 11.9932 l 257
 519.003 11.9932 l 258
 545.003 11.9932 556 -1.00684 556 -25.0068 c 258
 556 -125.399 l 258
 556 -159.018 532.186 -171 504 -171 c 258
 279 -171 l 257
 279 -138.801 l 257
 497.998 -138.801 l 258
 510.966 -138.801 518.998 -133.938 518.998 -120.801 c 258
 518.998 -36 l 258
519.2 4 m 257
 519.2 631 l 257
 555.99 631 l 257
 555.99 -50 l 257
 553.624 -44.3252 547.2 -24.9141 542.6 -16 c 256
 538.6 -8.24902 527.329 4 521.6 4 c 258
 519.2 4 l 257
EndSplineSet
EndChar

StartChar: si_DAae
Encoding: 51 -1 51
GlifName: si_D_A_ae
Width: 527
VWidth: 0
GlyphClass: 2
Flags: W
LayerCount: 2
Back
Fore
SplineSet
386.391 143 m 257
 485.6 143 l 257
 485.803 116 l 257
 392 52.001 l 257
 452.002 52 l 257
 452 25 l 257
 417.432 16.6469 348.042 -7.08409 326 -51 c 258
 299.398 -104 l 258
 291.853 -118.811 292.59 -130.891 296.8 -138.601 c 256
 300.777 -145.884 308.449 -151.803 331 -151.803 c 258
 457.999 -151.805 l 257
 458 -184 l 257
 312 -184 l 257
 275.599 -183.993 255.001 -158.021 255.001 -134 c 258
 255.001 -127 l 258
 255.001 -105.348 266.229 -86.0987 272 -75 c 258
 298 -25 l 258
 311.622 1.19647 368.86 26 368.86 26 c 257
 325.809 26 l 257
 337.591 50 l 257
 432 114.999 l 257
 371.65 115 l 257
 386.391 143 l 257
316.193 143 m 257
 359.191 143 l 257
 244.988 -72.7988 l 258
 230.872 -99.8574 228.195 -112.268 228.195 -131.404 c 258
 228.195 -136 l 258
 228.195 -155.28 242.031 -175.1 254 -184 c 257
 210.402 -184 l 257
 201.418 -181.562 188.194 -158.131 188.194 -133.794 c 258
 188.194 -125.201 l 258
 188.194 -100.757 204.375 -66.6777 210.197 -55.5996 c 258
 316.193 143 l 257
252.601 16 m 257
 244.184 4.64844 242.442 0 187.599 0 c 258
 66.2002 0 l 258
 32.2002 0 22 17.9258 22 49.5996 c 258
 22 295.998 l 258
 22 336.654 43.1064 352.998 80 352.998 c 258
 366.796 352.998 l 257
 366.795 436 l 258
 366.795 457.285 358.271 465 340 465 c 258
 22 465 l 257
 22 497.001 l 257
 351 497 l 258
 384.564 497 404 480.913 404 444 c 258
 404 321.001 l 257
 91 321 l 258
 66.6045 321 59 311.276 59 290 c 258
 59 58.001 l 258
 59 38.1592 67.0479 32 82.2002 32 c 258
 204.599 32 l 258
 258.56 32 277.233 69.8838 291.997 92 c 257
 252.601 16 l 257
EndSplineSet
EndChar

StartChar: si_DAe
Encoding: 52 -1 52
GlifName: si_D_A_e
Width: 525
VWidth: 0
GlyphClass: 2
Flags: W
LayerCount: 2
Back
Fore
SplineSet
435.983 143 m 257
 479.389 143 l 257
 359.189 -87 l 258
 353.331 -98.21 344.151 -116.478 346.593 -131 c 256
 348.61 -143.003 356.931 -151.802 373.593 -151.802 c 258
 447.592 -151.804 l 257
 447.593 -184 l 257
 358.593 -184 l 257
 324.836 -183.975 304.594 -157.021 304.594 -133 c 258
 304.594 -127 l 258
 304.594 -105.348 315.777 -86.082 321.593 -75 c 258
 435.983 143 l 257
365.786 143 m 257
 408.784 143 l 257
 294.581 -72.7988 l 258
 280.465 -99.8574 277.788 -112.268 277.788 -131.404 c 258
 277.788 -136 l 258
 277.788 -155.28 291.624 -175.1 303.593 -184 c 257
 259.995 -184 l 257
 251.011 -181.562 237.787 -158.131 237.787 -133.794 c 258
 237.787 -125.201 l 258
 237.787 -100.757 253.968 -66.6777 259.79 -55.5996 c 258
 365.786 143 l 257
302.193 16 m 257
 293.776 4.64844 292.035 0 237.191 0 c 258
 66.2002 0 l 258
 32.2002 0 22 17.9258 22 49.5996 c 258
 22 295.998 l 258
 22 336.654 43.1064 352.998 80 352.998 c 258
 366.796 352.998 l 257
 366.795 436 l 258
 366.795 457.285 358.271 465 340 465 c 258
 22 465 l 257
 22 497.001 l 257
 351 497 l 258
 384.564 497 404 480.913 404 444 c 258
 404 321.001 l 257
 91 321 l 258
 66.6045 321 59 311.276 59 290 c 258
 59 58.001 l 258
 59 38.1592 67.0479 32 82.2002 32 c 258
 254.191 32 l 258
 308.152 32 326.826 69.8838 341.59 92 c 257
 302.193 16 l 257
EndSplineSet
EndChar

StartChar: si_DDdh.halant
Encoding: 53 -1 53
GlifName: si_D_D_dh.halant
Width: 671
VWidth: 0
GlyphClass: 2
Flags: W
LayerCount: 2
Back
Fore
SplineSet
621.001 400 m 257
 583.601 400 l 257
 583.601 465 l 258
 583.601 505.98 571.365 518 536.001 518 c 258
 175.001 518 l 257
 175.001 550 l 257
 243.001 550 l 257
 213.668 557.333 211.001 582.667 211.001 604 c 258
 211.001 632 l 258
 211.001 659.333 227.334 673 260.001 673 c 258
 619.001 673 l 257
 619.001 641 l 257
 263.501 641 l 258
 248.532 641 248.001 633.667 248.001 616 c 256
 248.001 573.678 258.398 550 329.001 550 c 258
 544.001 550 l 258
 604.38 550 621.001 528.468 621.001 469 c 258
 621.001 400 l 257
620.975 428 m 257
 620.975 50 l 258
 620.975 19.6377 607.373 0 573.977 0 c 258
 449.791 0 l 258
 423.791 0 407.457 12.333 400.791 37 c 257
 397.617 16.3779 377.061 0 353.791 0 c 258
 229 0 l 258
 197.609 0 182 15.0176 182 48 c 258
 182 345.003 l 258
 182 383.558 200.021 410.003 241 410.003 c 258
 407.186 410.003 l 257
 407.187 377.805 l 257
 253 377.805 l 258
 226.387 377.805 219 363.44 219 342.003 c 258
 219 58 l 258
 219 42.2285 222.956 32 242 32 c 258
 335.988 32 l 258
 375.117 32 381.988 65.5215 381.988 100.802 c 258
 381.988 229 l 257
 419.188 229 l 257
 419.188 101 l 258
 419.188 66.165 428.267 32 469.988 32 c 258
 561.977 32 l 258
 578.903 32 583.582 43.6895 583.582 60 c 258
 583.582 428 l 257
 620.975 428 l 257
116.602 378.002 m 258
 76.8906 378.002 59 365.742 59 325.002 c 258
 59 0 l 257
 22 0 l 257
 22 337.002 l 258
 22 389.168 58.8516 410.002 105.4 410.002 c 258
 281.614 410.002 l 257
 211.614 378.002 l 257
 116.602 378.002 l 258
EndSplineSet
EndChar

StartChar: si_DDhI
Encoding: 54 -1 54
GlifName: si_D_D_hI_
Width: 671
VWidth: 0
GlyphClass: 2
Flags: W
LayerCount: 2
Back
Fore
SplineSet
621.001 400 m 257
 583.601 400 l 257
 583.601 476 l 258
 583.601 487.69 581.983 496.065 577.224 501.518 c 256
 572.465 506.97 564.564 509.5 552.001 509.5 c 258
 230.001 509.5 l 258
 198.668 509.5 183.001 525.5 183.001 557.5 c 258
 183.001 620 l 258
 183.001 636.707 186.527 649.707 194.54 658.531 c 256
 202.553 667.354 215.053 672 233.001 672 c 258
 619.501 672 l 257
 619.501 640 l 257
 245.001 640 l 258
 224.084 640 219.876 635.559 219.876 611 c 258
 219.876 566 l 258
 219.876 552.489 221.434 541.5 244.001 541.5 c 258
 552.001 541.5 l 258
 580.408 541.5 597.658 537.146 607.806 525.532 c 256
 617.955 513.918 621.001 495.043 621.001 466 c 258
 621.001 400 l 257
620.975 428 m 257
 620.975 50 l 258
 620.975 19.6377 607.373 0 573.977 0 c 258
 449.791 0 l 258
 423.791 0 407.457 12.333 400.791 37 c 257
 397.617 16.3779 377.061 0 353.791 0 c 258
 229 0 l 258
 197.609 0 182 15.0176 182 48 c 258
 182 345.003 l 258
 182 383.558 200.021 410.003 241 410.003 c 258
 407.186 410.003 l 257
 407.187 377.805 l 257
 253 377.805 l 258
 226.387 377.805 219 363.44 219 342.003 c 258
 219 58 l 258
 219 42.2285 222.956 32 242 32 c 258
 335.988 32 l 258
 375.117 32 381.988 65.5215 381.988 100.802 c 258
 381.988 229 l 257
 419.188 229 l 257
 419.188 101 l 258
 419.188 66.165 428.267 32 469.988 32 c 258
 561.977 32 l 258
 578.903 32 583.582 43.6895 583.582 60 c 258
 583.582 428 l 257
 620.975 428 l 257
116.602 378.002 m 258
 76.8906 378.002 59 365.742 59 325.002 c 258
 59 0 l 257
 22 0 l 257
 22 337.002 l 258
 22 389.168 58.8516 410.002 105.4 410.002 c 258
 281.614 410.002 l 257
 211.614 378.002 l 257
 116.602 378.002 l 258
EndSplineSet
EndChar

StartChar: si_DDhIi
Encoding: 55 -1 55
GlifName: si_D_D_hI_i
Width: 671
VWidth: 0
GlyphClass: 2
Flags: W
LayerCount: 2
Back
Fore
SplineSet
583.601 405 m 257
 583.601 479.5 l 258
 583.601 497.69 566.684 509.5 548.001 509.5 c 258
 226.001 509.5 l 258
 196.158 509.5 183.001 518.271 183.001 550.5 c 258
 183.001 618 l 258
 183.001 654.859 196.411 672 233.001 672 c 258
 571.001 672 l 258
 607.589 672 621.001 654.858 621.001 618 c 258
 621.001 570 l 258
 621.001 547.838 611.688 532.87 594.001 528 c 257
 615.912 521.152 621.001 504.274 621.001 475 c 258
 621.001 405 l 257
 583.601 405 l 257
433.001 539 m 257
 421.919 542.512 415.001 550.292 415.001 567 c 258
 415.001 621 l 258
 415.001 633.107 421.502 638.25 425.001 640 c 257
 424.854 640 236.876 640 236.876 640 c 258
 225.543 640 219.876 635.333 219.876 626 c 258
 219.876 554 l 258
 219.876 544 225.209 539 235.876 539 c 258
 433.001 539 l 257
476.001 640 m 258
 460.451 640 452.001 630.698 452.001 616 c 258
 452.001 570.5 l 258
 452.001 551.602 468.268 545.5 485.501 545.5 c 258
 548.001 545.5 l 258
 564.346 545.5 584.001 550.393 584.001 577 c 258
 584.001 627.5 l 258
 584.001 636.697 576.694 640 569.501 640 c 258
 476.001 640 l 258
620.975 428 m 257
 620.975 50 l 258
 620.975 19.6377 607.373 0 573.977 0 c 258
 449.791 0 l 258
 423.791 0 407.457 12.333 400.791 37 c 257
 397.617 16.3779 377.061 0 353.791 0 c 258
 229 0 l 258
 197.609 0 182 15.0176 182 48 c 258
 182 345.003 l 258
 182 383.558 200.021 410.003 241 410.003 c 258
 407.186 410.003 l 257
 407.187 377.805 l 257
 253 377.805 l 258
 226.387 377.805 219 363.44 219 342.003 c 258
 219 58 l 258
 219 42.2285 222.956 32 242 32 c 258
 335.988 32 l 258
 375.117 32 381.988 65.5215 381.988 100.802 c 258
 381.988 229 l 257
 419.188 229 l 257
 419.188 101 l 258
 419.188 66.165 428.267 32 469.988 32 c 258
 561.977 32 l 258
 578.903 32 583.582 43.6895 583.582 60 c 258
 583.582 428 l 257
 620.975 428 l 257
116.602 378.002 m 258
 76.8906 378.002 59 365.742 59 325.002 c 258
 59 0 l 257
 22 0 l 257
 22 337.002 l 258
 22 389.168 58.8516 410.002 105.4 410.002 c 258
 281.614 410.002 l 257
 211.614 378.002 l 257
 116.602 378.002 l 258
EndSplineSet
EndChar

StartChar: si_DDha
Encoding: 58 -1 58
GlifName: si_D_D_ha
Width: 671
VWidth: 0
GlyphClass: 2
Flags: W
LayerCount: 2
Back
Fore
SplineSet
116.602 465 m 258
 76.8906 465 59 452.74 59 412 c 258
 59 0 l 257
 22 0 l 257
 22 424 l 258
 22 476.166 58.8513 497 105.4 497 c 258
 281.614 497 l 257
 211.614 465 l 257
 116.602 465 l 258
EndSplineSet
Refer: 106 3504 N 1 0 0 1 160 0 2
EndChar

StartChar: si_DI
Encoding: 59 -1 59
GlifName: si_D_I_
Width: 460
VWidth: 0
GlyphClass: 2
Flags: W
LayerCount: 2
Back
Fore
SplineSet
19.1943 511 m 257
 19.1943 595.803 l 258
 19.1943 625.797 36.1104 640 63.1943 640 c 258
 362 640 l 258
 387.333 640 403 628.565 403 597 c 258
 403 511 l 257
 365.999 511 l 257
 365.999 587 l 258
 365.999 599.878 360.834 608.006 346 608.006 c 258
 74.2041 608.006 l 258
 61.0898 608.006 56 600 56 588 c 258
 56 511 l 257
 19.1943 511 l 257
EndSplineSet
Refer: 78 3503 N 1 0 0 1 0 0 2
EndChar

StartChar: si_DIi
Encoding: 60 -1 60
GlifName: si_D_I_i
Width: 460
VWidth: 0
GlyphClass: 2
Flags: W
LayerCount: 2
Back
Fore
SplineSet
245 608 m 258
 235 608 230 604 230 596 c 258
 230 556 l 258
 230 547.333 231.333 543 242 543 c 258
 355.808 543 l 258
 366.475 543 367.808 547.667 367.808 557 c 258
 367.808 592.196 l 258
 367.808 602.605 362.141 608 350.808 608 c 258
 245 608 l 258
77.6006 608.008 m 258
 68 607 59 602 59 590 c 258
 59 511 l 257
 22.1943 511 l 257
 22.1943 595.803 l 258
 22.1943 625.797 39.8057 640.011 67 640.011 c 258
 362.607 640.012 l 258
 390.407 640.012 404.807 626.66 404.807 600 c 258
 404.807 540.996 l 258
 404.807 521 394.805 510.996 374.807 510.996 c 258
 220.597 510.994 l 258
 197.321 510.994 192.797 521.302 192.797 537 c 258
 192.797 600 l 258
 192.797 604.531 193.614 607.009 195.196 608 c 257
 77.6006 608.008 l 258
EndSplineSet
Refer: 78 3503 N 1 0 0 1 0 0 2
EndChar

StartChar: si_DR.halant
Encoding: 61 -1 61
GlifName: si_D_R_.halant
Width: 458
VWidth: 0
GlyphClass: 2
Flags: W
LayerCount: 2
Back
Fore
SplineSet
22.1943 -21 m 257
 59 -21 l 257
 59 -98 l 258
 59 -110 64.0898 -118.006 77.2041 -118.006 c 258
 351.003 -118.006 l 258
 365.837 -118.006 371.002 -109.877 371.002 -97 c 258
 371.002 5 l 257
 408.003 5 l 257
 408.003 -107 l 258
 408.003 -138.563 392.336 -150 367.003 -150 c 258
 66.1943 -150 l 258
 39.1104 -150 22.1943 -135.797 22.1943 -105.803 c 258
 22.1943 -21 l 257
408 0.000976562 m 257
 66.2002 0 l 258
 32.2002 -0 22 17.9258 22 49.5996 c 258
 22 295.998 l 258
 22 336.654 43.1064 352.998 80 352.998 c 258
 366.796 352.998 l 257
 366.795 436 l 258
 366.795 457.285 358.271 465 340 465 c 258
 22 465 l 257
 22 497.001 l 257
 351 497 l 258
 384.564 497 404 480.913 404 444 c 258
 404 321.001 l 257
 91 321 l 258
 66.6045 321 59 311.276 59 290 c 258
 59 58.001 l 258
 59 38.1592 67.0479 32 82.2002 32 c 258
 408 32.001 l 257
 408 0.000976562 l 257
EndSplineSet
Refer: 157 3530 N 1 0 0 1 448.6 0 2
EndChar

StartChar: si_DRI
Encoding: 62 -1 62
GlifName: si_D_R_I_
Width: 458
VWidth: 0
GlyphClass: 2
Flags: W
LayerCount: 2
Back
Fore
SplineSet
19.1943 511 m 257
 19.1943 595.803 l 258
 19.1943 625.797 36.1104 640 63.1943 640 c 258
 362 640 l 258
 387.333 640 403 628.565 403 597 c 258
 403 511 l 257
 365.999 511 l 257
 365.999 587 l 258
 365.999 599.878 360.834 608.006 346 608.006 c 258
 74.2041 608.006 l 258
 61.0898 608.006 56 600 56 588 c 258
 56 511 l 257
 19.1943 511 l 257
EndSplineSet
Refer: 64 -1 N 1 0 0 1 0 0 2
EndChar

StartChar: si_DRIi
Encoding: 63 -1 63
GlifName: si_D_R_I_i
Width: 458
VWidth: 0
GlyphClass: 2
Flags: W
LayerCount: 2
Back
Fore
SplineSet
245 608 m 258
 235 608 230 604 230 596 c 258
 230 556 l 258
 230 547.333 231.333 543 242 543 c 258
 355.808 543 l 258
 366.475 543 367.808 547.667 367.808 557 c 258
 367.808 592.196 l 258
 367.808 602.605 362.141 608 350.808 608 c 258
 245 608 l 258
77.6006 608.008 m 258
 68 607 59 602 59 590 c 258
 59 511 l 257
 22.1943 511 l 257
 22.1943 595.803 l 258
 22.1943 625.797 39.8057 640.011 67 640.011 c 258
 362.607 640.012 l 258
 390.407 640.012 404.807 626.66 404.807 600 c 258
 404.807 540.996 l 258
 404.807 521 394.805 510.996 374.807 510.996 c 258
 220.597 510.994 l 258
 197.321 510.994 192.797 521.302 192.797 537 c 258
 192.797 600 l 258
 192.797 604.531 193.614 607.009 195.196 608 c 257
 77.6006 608.008 l 258
EndSplineSet
Refer: 64 -1 N 1 0 0 1 0 0 2
EndChar

StartChar: si_DRa
Encoding: 64 -1 64
GlifName: si_D_R_a
Width: 458
VWidth: 0
GlyphClass: 2
Flags: W
LayerCount: 2
Back
Fore
SplineSet
22.1943 -21 m 257
 59 -21 l 257
 59 -98 l 258
 59 -110 64.0898 -118.006 77.2041 -118.006 c 258
 351.003 -118.006 l 258
 365.837 -118.006 371.002 -109.877 371.002 -97 c 258
 371.002 5 l 257
 408.003 5 l 257
 408.003 -107 l 258
 408.003 -138.563 392.336 -150 367.003 -150 c 258
 66.1943 -150 l 258
 39.1104 -150 22.1943 -135.797 22.1943 -105.803 c 258
 22.1943 -21 l 257
408 0.000976562 m 257
 66.2002 0 l 258
 32.2002 -0 22 17.9258 22 49.5996 c 258
 22 295.998 l 258
 22 336.654 43.1064 352.998 80 352.998 c 258
 366.796 352.998 l 257
 366.795 436 l 258
 366.795 457.285 358.271 465 340 465 c 258
 22 465 l 257
 22 497.001 l 257
 351 497 l 258
 384.564 497 404 480.913 404 444 c 258
 404 321.001 l 257
 91 321 l 258
 66.6045 321 59 311.276 59 290 c 258
 59 58.001 l 258
 59 38.1592 67.0479 32 82.2002 32 c 258
 408 32.001 l 257
 408 0.000976562 l 257
EndSplineSet
EndChar

StartChar: si_DU
Encoding: 65 -1 65
GlifName: si_D_U_
Width: 458
VWidth: 0
GlyphClass: 2
Flags: W
LayerCount: 2
Back
Fore
SplineSet
408.002 -159.001 m 257
 22.002 -159.001 l 257
 22.001 -126.811 l 257
 371.009 -126.811 l 257
 371.009 10 l 257
 408.002 10 l 257
 408.002 -159.001 l 257
408 0.000976562 m 257
 66.2002 0 l 258
 32.2002 -0 22 17.9258 22 49.5996 c 258
 22 295.998 l 258
 22 336.654 43.1064 352.998 80 352.998 c 258
 366.796 352.998 l 257
 366.795 436 l 258
 366.795 457.285 358.271 465 340 465 c 258
 22 465 l 257
 22 497.001 l 257
 351 497 l 258
 384.564 497 404 480.913 404 444 c 258
 404 321.001 l 257
 91 321 l 258
 66.6045 321 59 311.276 59 290 c 258
 59 58.001 l 258
 59 38.1592 67.0479 32 82.2002 32 c 258
 408 32.001 l 257
 408 0.000976562 l 257
EndSplineSet
EndChar

StartChar: si_DUu
Encoding: 66 -1 66
GlifName: si_D_U_u
Width: 458
VWidth: 0
GlyphClass: 2
Flags: W
LayerCount: 2
Back
Fore
SplineSet
408.005 -158.999 m 257
 377.203 -158.999 l 257
 372.003 -149.728 360.535 -138.132 352.807 -132.798 c 256
 342.636 -125.778 324.613 -119.993 305.803 -119.993 c 257
 279 -119.993 l 257
 261.342 -119.993 240.84 -127.5 228.411 -132.599 c 257
 180.803 -152.402 l 257
 165.131 -158.382 136.317 -162.805 102.006 -162.805 c 258
 70 -162.805 l 258
 37.5859 -162.805 21.999 -150.575 21.999 -122.002 c 258
 21.999 -29.0029 l 257
 58.7969 -29.0029 l 257
 58.7969 -112.604 l 258
 58.7969 -123.889 63.665 -130.605 75.6016 -130.605 c 258
 107.8 -130.605 l 258
 128.769 -130.605 154.596 -127.924 178 -119.002 c 257
 217.206 -103.399 l 257
 230.172 -98.0723 254.6 -91.5957 276.796 -91.5957 c 257
 310.014 -91.5957 l 257
 331.706 -91.5957 351.151 -97.3721 359.413 -102.801 c 256
 365.367 -106.713 366.054 -107.64 370.801 -112.4 c 257
 370.801 4 l 257
 383.999 4 l 258
 389.567 4 403.107 4.59473 408.005 17 c 257
 408.005 -158.999 l 257
408 0.000976562 m 257
 66.2002 0 l 258
 32.2002 -0 22 17.9258 22 49.5996 c 258
 22 295.998 l 258
 22 336.654 43.1064 352.998 80 352.998 c 258
 366.796 352.998 l 257
 366.795 436 l 258
 366.795 457.285 358.271 465 340 465 c 258
 22 465 l 257
 22 497.001 l 257
 351 497 l 258
 384.564 497 404 480.913 404 444 c 258
 404 321.001 l 257
 91 321 l 258
 66.6045 321 59 311.276 59 290 c 258
 59 58.001 l 258
 59 38.1592 67.0479 32 82.2002 32 c 258
 408 32.001 l 257
 408 0.000976562 l 257
EndSplineSet
EndChar

StartChar: si_DV.halant
Encoding: 67 -1 67
GlifName: si_D_V_.halant
Width: 675
VWidth: 0
GlyphClass: 2
Flags: W
LayerCount: 2
Back
Fore
SplineSet
116.602 379.998 m 258
 76.8906 379.998 59 367.738 59 326.998 c 258
 59 0 l 257
 22 0 l 257
 22 338.998 l 258
 22 391.164 58.8516 411.998 105.4 411.998 c 258
 281.614 411.998 l 257
 211.614 379.998 l 257
 116.602 379.998 l 258
EndSplineSet
Refer: 491 -1 N 1 0 0 1 166 0 2
EndChar

StartChar: si_DVI
Encoding: 68 -1 68
GlifName: si_D_V_I_
Width: 675
VWidth: 0
GlyphClass: 2
Flags: W
LayerCount: 2
Back
Fore
SplineSet
116.602 379.998 m 258
 76.8906 379.998 59 367.738 59 326.998 c 258
 59 0 l 257
 22 0 l 257
 22 338.998 l 258
 22 391.164 58.8516 411.998 105.4 411.998 c 258
 281.614 411.998 l 257
 211.614 379.998 l 257
 116.602 379.998 l 258
EndSplineSet
Refer: 492 -1 N 1 0 0 1 166 0 2
EndChar

StartChar: si_DVIi
Encoding: 69 -1 69
GlifName: si_D_V_I_i
Width: 675
VWidth: 0
GlyphClass: 2
Flags: W
LayerCount: 2
Back
Fore
SplineSet
116.602 379.998 m 258
 76.8906 379.998 59 367.738 59 326.998 c 258
 59 0 l 257
 22 0 l 257
 22 338.998 l 258
 22 391.164 58.8516 411.998 105.4 411.998 c 258
 281.614 411.998 l 257
 211.614 379.998 l 257
 116.602 379.998 l 258
EndSplineSet
Refer: 493 -1 N 1 0 0 1 166 0 2
EndChar

StartChar: si_DVa
Encoding: 72 -1 72
GlifName: si_D_V_a
Width: 675
VWidth: 0
GlyphClass: 2
Flags: W
LayerCount: 2
Back
Fore
SplineSet
116.602 465 m 258
 76.8906 465 59 452.74 59 412 c 258
 59 0 l 257
 22 0 l 257
 22 424 l 258
 22 476.166 58.8513 497 105.4 497 c 258
 281.614 497 l 257
 211.614 465 l 257
 116.602 465 l 258
EndSplineSet
Refer: 500 3520 N 1 0 0 1 166 0 2
EndChar

StartChar: si_DYAa.post
Encoding: 73 -1 73
GlifName: si_D_Y_A_a.post
Width: 816
VWidth: 0
GlyphClass: 2
Flags: W
LayerCount: 2
Back
Fore
SplineSet
415.212 -68.5957 m 257
 415.214 -39.3965 l 258
 415.215 14.5762 442.432 32.001 492.012 32 c 258
 588.193 31.999 l 257
 588.193 0 l 257
 500.212 0 l 258
 460 0 452.197 -15.9654 452.197 -30 c 258
 452.197 -36.3965 l 257
 516.193 -36.3965 l 258
 570.984 -36.3965 588.212 -47.2607 588.212 -94 c 258
 588.212 -118 l 258
 588.212 -165.16 565.688 -187.999 521.212 -187.999 c 258
 433.814 -188 l 258
 396.843 -188 371.821 -186.556 336 -168 c 258
 291.201 -146 l 257
 258 -188 l 257
 218.997 -188 l 257
 325 -48 l 258
 339.107 -29.368 338.989 -19.9658 338.989 -16.3984 c 256
 338.989 -5.75488 332.256 0 321.59 0 c 258
 227.396 0 l 257
 227.396 31.999 l 257
 323.989 32 l 258
 365.943 32 375.788 13.3936 375.788 -14 c 256
 375.788 -27.7266 364.701 -48.3981 353 -64 c 258
 314 -116 l 257
 351 -136 l 258
 380.801 -152.109 404.714 -156 441.416 -156 c 258
 513.193 -156 l 258
 542.549 -156 551.198 -138.62 551.198 -112 c 258
 551.198 -100 l 258
 551.198 -67.2881 540.011 -68.5957 510.193 -68.5957 c 258
 415.212 -68.5957 l 257
237 0 m 257
 180 0 123 0 66 0 c 256
 32 0 22 17.9256 22 49.5996 c 258
 22 295.998 l 258
 22 336.654 43.1064 352.998 80 352.998 c 258
 366.796 352.998 l 257
 366.795 436 l 258
 366.795 457.285 358.271 465 340 465 c 258
 22 465 l 257
 22 497.001 l 257
 351 497 l 258
 384.564 497 404 480.913 404 444 c 258
 404 321.001 l 257
 91 321 l 258
 66.6041 321 59 311.276 59 290 c 258
 59 58.001 l 258
 59 38.1592 67.0479 32 82.2002 32 c 258
 237 32 l 257
 237 0 l 257
617 31.9971 m 257
 726 31.9971 l 258
 755.994 31.9971 767 17.084 767 -10 c 258
 767 -149.199 l 258
 767 -174.532 753.333 -187.199 726 -187.199 c 258
 617 -187.199 l 257
 617 -155.196 l 257
 714.001 -155.196 l 258
 726.879 -155.196 730 -148.879 730 -135.999 c 258
 730 -16.0029 l 258
 730 -4.66992 725.602 0.99707 713.602 0.99707 c 258
 617 0.99707 l 257
 617 31.9971 l 257
EndSplineSet
EndChar

StartChar: si_DYOo.post
Encoding: 74 -1 74
GlifName: si_D_Y_O_o.post
Width: 816
VWidth: 0
GlyphClass: 2
Flags: W
LayerCount: 2
Back
Fore
SplineSet
415.212 -68.5957 m 257
 415.214 -39.3965 l 258
 415.215 14.5762 442.432 32.001 492.012 32 c 258
 588.193 31.999 l 257
 588.193 0 l 257
 500.212 0 l 258
 460 0 452.197 -15.9654 452.197 -30 c 258
 452.197 -36.3965 l 257
 516.193 -36.3965 l 258
 570.984 -36.3965 588.212 -47.2607 588.212 -94 c 258
 588.212 -118 l 258
 588.212 -165.16 565.688 -187.999 521.212 -187.999 c 258
 433.814 -188 l 258
 396.843 -188 371.821 -186.556 336 -168 c 258
 291.201 -146 l 257
 258 -188 l 257
 218.997 -188 l 257
 325 -48 l 258
 339.107 -29.368 338.989 -19.9658 338.989 -16.3984 c 256
 338.989 -5.75488 332.256 0 321.59 0 c 258
 227.396 0 l 257
 227.396 31.999 l 257
 323.989 32 l 258
 365.943 32 375.788 13.3936 375.788 -14 c 256
 375.788 -27.7266 364.701 -48.3981 353 -64 c 258
 314 -116 l 257
 351 -136 l 258
 380.801 -152.109 404.714 -156 441.416 -156 c 258
 513.193 -156 l 258
 542.549 -156 551.198 -138.62 551.198 -112 c 258
 551.198 -100 l 258
 551.198 -67.2881 540.011 -68.5957 510.193 -68.5957 c 258
 415.212 -68.5957 l 257
237 0 m 257
 180 0 123 0 66 0 c 256
 32 0 22 17.9256 22 49.5996 c 258
 22 295.998 l 258
 22 336.654 43.1064 352.998 80 352.998 c 258
 366.796 352.998 l 257
 366.795 436 l 258
 366.795 457.285 358.271 465 340 465 c 258
 22 465 l 257
 22 497.001 l 257
 351 497 l 258
 384.564 497 404 480.913 404 444 c 258
 404 321.001 l 257
 91 321 l 258
 66.6041 321 59 311.276 59 290 c 258
 59 58.001 l 258
 59 38.1592 67.0479 32 82.2002 32 c 258
 237 32 l 257
 237 0 l 257
617 31.9971 m 257
 726 31.9971 l 258
 755.994 31.9971 767 17.084 767 -10 c 258
 767 -149.199 l 258
 767 -174.532 753.333 -187.199 726 -187.199 c 258
 617 -187.199 l 257
 617 -155.196 l 257
 714.001 -155.196 l 258
 726.879 -155.196 730 -148.879 730 -135.999 c 258
 730 -16.0029 l 258
 730 -4.66992 725.602 0.99707 713.602 0.99707 c 258
 617 0.99707 l 257
 617 31.9971 l 257
730.211 4 m 257
 730.211 631 l 257
 767.001 631 l 257
 767.001 -50 l 257
 764.635 -44.3252 758.211 -24.9141 753.61 -16 c 256
 749.61 -8.24902 738.34 4 732.61 4 c 258
 730.211 4 l 257
EndSplineSet
EndChar

StartChar: si_DYUu.post
Encoding: 75 -1 75
GlifName: si_D_Y_U_u.post
Width: 614
VWidth: 0
GlyphClass: 2
Flags: W
LayerCount: 2
Back
Fore
SplineSet
415.212 -68.5957 m 257
 415.214 -39.3965 l 258
 415.215 14.5762 442.432 32.001 492.012 32 c 258
 588.193 31.999 l 257
 588.193 0 l 257
 500.212 0 l 258
 460 0 452.197 -15.9654 452.197 -30 c 258
 452.197 -36.3965 l 257
 516.193 -36.3965 l 258
 570.984 -36.3965 588.212 -47.2607 588.212 -94 c 258
 588.212 -118 l 258
 588.212 -165.16 565.688 -187.999 521.212 -187.999 c 258
 433.814 -188 l 258
 396.843 -188 371.821 -186.556 336 -168 c 258
 291.201 -146 l 257
 258 -188 l 257
 218.997 -188 l 257
 325 -48 l 258
 339.107 -29.368 338.989 -19.9658 338.989 -16.3984 c 256
 338.989 -5.75488 332.256 0 321.59 0 c 258
 227.396 0 l 257
 227.396 31.999 l 257
 323.989 32 l 258
 365.943 32 375.788 13.3936 375.788 -14 c 256
 375.788 -27.7266 364.701 -48.3981 353 -64 c 258
 314 -116 l 257
 351 -136 l 258
 380.801 -152.109 404.714 -156 441.416 -156 c 258
 513.193 -156 l 258
 542.549 -156 551.198 -138.62 551.198 -112 c 258
 551.198 -100 l 258
 551.198 -67.2881 540.011 -68.5957 510.193 -68.5957 c 258
 415.212 -68.5957 l 257
588.199 -276 m 257
 557.397 -276 l 257
 552.197 -266.729 540.729 -255.133 533.001 -249.799 c 256
 522.83 -242.779 504.808 -236.994 485.997 -236.994 c 257
 468 -236.994 l 257
 450.342 -236.994 429.84 -244.501 417.411 -249.6 c 257
 369.803 -269.403 l 257
 354.131 -275.383 325.317 -279.806 291.006 -279.806 c 258
 267.203 -279.806 l 258
 234.789 -279.806 219.202 -267.576 219.202 -239.003 c 258
 219.202 -208.6 l 257
 256 -208.6 l 257
 256 -229.605 l 258
 256 -240.89 260.868 -247.606 272.805 -247.606 c 258
 296.8 -247.606 l 258
 317.769 -247.606 343.596 -244.925 367 -236.003 c 257
 406.206 -219.8 l 257
 419.172 -214.473 443.6 -204.993 465.796 -204.993 c 257
 490.208 -204.993 l 257
 513.898 -205 531.346 -212.772 539.607 -218.2 c 256
 545.562 -222.112 546.248 -222.238 550.995 -226.999 c 257
 550.995 -144.597 l 257
 564.193 -144.597 l 258
 569.762 -144.597 584.199 -130.597 588.199 -102.597 c 257
 588.199 -276 l 257
237 0 m 257
 180 0 123 0 66 0 c 256
 32 0 22 17.9256 22 49.5996 c 258
 22 295.998 l 258
 22 336.654 43.1064 352.998 80 352.998 c 258
 366.796 352.998 l 257
 366.795 436 l 258
 366.795 457.285 358.271 465 340 465 c 258
 22 465 l 257
 22 497.001 l 257
 351 497 l 258
 384.564 497 404 480.913 404 444 c 258
 404 321.001 l 257
 91 321 l 258
 66.6041 321 59 311.276 59 290 c 258
 59 58.001 l 258
 59 38.1592 67.0479 32 82.2002 32 c 258
 237 32 l 257
 237 0 l 257
EndSplineSet
EndChar

StartChar: si_DYa.post
Encoding: 76 -1 76
GlifName: si_D_Y_a.post
Width: 614
VWidth: 0
GlyphClass: 2
Flags: W
LayerCount: 2
Back
Fore
SplineSet
415.212 -68.5957 m 257
 415.214 -39.3965 l 258
 415.215 14.5762 442.432 32.001 492.012 32 c 258
 588.193 31.999 l 257
 588.193 0 l 257
 500.212 0 l 258
 460 0 452.197 -15.9654 452.197 -30 c 258
 452.197 -36.3965 l 257
 516.193 -36.3965 l 258
 570.984 -36.3965 588.212 -47.2607 588.212 -94 c 258
 588.212 -118 l 258
 588.212 -165.16 565.688 -187.999 521.212 -187.999 c 258
 433.814 -188 l 258
 396.843 -188 371.821 -186.556 336 -168 c 258
 291.201 -146 l 257
 258 -188 l 257
 218.997 -188 l 257
 325 -48 l 258
 339.107 -29.368 338.989 -19.9658 338.989 -16.3984 c 256
 338.989 -5.75488 332.256 0 321.59 0 c 258
 227.396 0 l 257
 227.396 31.999 l 257
 323.989 32 l 258
 365.943 32 375.788 13.3936 375.788 -14 c 256
 375.788 -27.7266 364.701 -48.3981 353 -64 c 258
 314 -116 l 257
 351 -136 l 258
 380.801 -152.109 404.714 -156 441.416 -156 c 258
 513.193 -156 l 258
 542.549 -156 551.198 -138.62 551.198 -112 c 258
 551.198 -100 l 258
 551.198 -67.2881 540.011 -68.5957 510.193 -68.5957 c 258
 415.212 -68.5957 l 257
237 0 m 257
 180 0 123 -0 66 0 c 256
 32 0 22 17.9256 22 49.5996 c 258
 22 295.998 l 258
 22 336.654 43.1064 352.998 80 352.998 c 258
 366.796 352.998 l 257
 366.795 436 l 258
 366.795 457.285 358.271 465 340 465 c 258
 22 465 l 257
 22 497.001 l 257
 351 497 l 258
 384.564 497 404 480.913 404 444 c 258
 404 321.001 l 257
 91 321 l 258
 66.6041 321 59 311.276 59 290 c 258
 59 58.001 l 258
 59 38.1592 67.0479 32 82.2002 32 c 258
 237 32 l 257
 237 0 l 257
EndSplineSet
EndChar

StartChar: si_DYu.post
Encoding: 77 -1 77
GlifName: si_D_Y_u.post
Width: 614
VWidth: 0
GlyphClass: 2
Flags: W
LayerCount: 2
Back
Fore
SplineSet
415.212 -68.5957 m 257
 415.214 -39.3965 l 258
 415.215 14.5762 442.432 32.001 492.012 32 c 258
 588.193 31.999 l 257
 588.193 0 l 257
 500.212 0 l 258
 460 0 452.197 -15.9654 452.197 -30 c 258
 452.197 -36.3965 l 257
 516.193 -36.3965 l 258
 570.984 -36.3965 588.212 -47.2607 588.212 -94 c 258
 588.212 -118 l 258
 588.212 -165.16 565.688 -187.999 521.212 -187.999 c 258
 433.814 -188 l 258
 396.843 -188 371.821 -186.556 336 -168 c 258
 291.201 -146 l 257
 258 -188 l 257
 218.997 -188 l 257
 325 -48 l 258
 339.107 -29.368 338.989 -19.9658 338.989 -16.3984 c 256
 338.989 -5.75488 332.256 0 321.59 0 c 258
 227.396 0 l 257
 227.396 31.999 l 257
 323.989 32 l 258
 365.943 32 375.788 13.3936 375.788 -14 c 256
 375.788 -27.7266 364.701 -48.3981 353 -64 c 258
 314 -116 l 257
 351 -136 l 258
 380.801 -152.109 404.714 -156 441.416 -156 c 258
 513.193 -156 l 258
 542.549 -156 551.198 -138.62 551.198 -112 c 258
 551.198 -100 l 258
 551.198 -67.2881 540.011 -68.5957 510.193 -68.5957 c 258
 415.212 -68.5957 l 257
237 0 m 257
 180 0 123 0 66 0 c 256
 32 0 22 17.9256 22 49.5996 c 258
 22 295.998 l 258
 22 336.654 43.1064 352.998 80 352.998 c 258
 366.796 352.998 l 257
 366.795 436 l 258
 366.795 457.285 358.271 465 340 465 c 258
 22 465 l 257
 22 497.001 l 257
 351 497 l 258
 384.564 497 404 480.913 404 444 c 258
 404 321.001 l 257
 91 321 l 258
 66.6041 321 59 311.276 59 290 c 258
 59 58.001 l 258
 59 38.1592 67.0479 32 82.2002 32 c 258
 237 32 l 257
 237 0 l 257
588.203 -254 m 257
 232 -254 l 257
 232 -221.904 l 257
 551.115 -221.904 l 257
 551.115 -138.396 l 257
 556.115 -138.396 l 258
 564.577 -138.396 583.181 -135.98 588.203 -119.396 c 257
 588.203 -254 l 257
EndSplineSet
EndChar

StartChar: si_Da
Encoding: 78 3503 78
GlifName: si_D_a
Width: 460
VWidth: 0
GlyphClass: 2
Flags: W
LayerCount: 2
Back
Fore
SplineSet
408 0.000976562 m 257
 212 0 l 258
 178.899 -0.000164925 146.2 -16.4449 146.2 -52 c 258
 146.2 -118 l 258
 146.2 -137.752 157.031 -140 170 -140 c 258
 431 -140 l 257
 431 -171 l 257
 161 -171 l 258
 132.813 -171 109 -159.622 109 -126 c 258
 109 -48 l 258
 109 -30.0273 115.947 -10.9576 138 0 c 257
 66 0 l 258
 32.3066 0 22 17.9256 22 49.5996 c 258
 22 295.998 l 258
 22 336.654 43.1064 352.998 80 352.998 c 258
 366.796 352.998 l 257
 366.795 436 l 258
 366.795 457.285 358.271 465 340 465 c 258
 22 465 l 257
 22 497.001 l 257
 351 497 l 258
 384.564 497 404 480.913 404 444 c 258
 404 321.001 l 257
 91 321 l 258
 66.6041 321 59 311.276 59 290 c 258
 59 58.001 l 258
 59 38.1592 67.0479 32 82.2002 32 c 258
 408 32.001 l 257
 408 0.000976562 l 257
EndSplineSet
EndChar

StartChar: si_Dd.halant
Encoding: 80 -1 80
GlifName: si_D_d.halant
Width: 513
VWidth: 0
GlyphClass: 2
Flags: W
LayerCount: 2
Back
Fore
SplineSet
460 400 m 257
 422.8 400 l 257
 422.8 465 l 258
 422.8 505.98 410.364 518 375 518 c 258
 14 518 l 257
 14 550 l 257
 82 550 l 257
 52.667 557.333 50 582.667 50 604 c 258
 50 632 l 258
 50 659.333 66.3333 673 99 673 c 258
 458 673 l 257
 458 641 l 257
 102.5 641 l 258
 87.5312 641 87 633.667 87 616 c 256
 87 573.678 97.3973 550 168 550 c 258
 383 550 l 258
 443.379 550 460 528.468 460 469 c 258
 460 400 l 257
-6 307.535 m 257
 130.574 307.535 l 257
 130.574 275.598 l 257
 -6 275.598 l 257
 -6 307.535 l 257
69.998 0 m 258
 33 0 22 16.2734 22 54 c 258
 22 220.598 l 258
 22 241.433 29.918 264.532 51 276.598 c 257
 60.1592 290.214 61.9033 307.598 78 307.598 c 258
 207.374 307.598 l 257
 207.374 389.598 l 258
 207.374 412.577 194.638 419.598 171.374 419.598 c 258
 23 419.598 l 257
 23 451.598 l 257
 181.374 451.598 l 258
 222.707 451.598 243.374 432.598 243.374 394.598 c 258
 243.374 275.598 l 257
 126.574 275.598 l 258
 72.2764 275.598 59 242.598 58.875 206.598 c 258
 59 55.8926 l 258
 59.013 39.9639 65.7998 32 79.1934 32 c 258
 182.399 32 l 258
 206 32 222.401 38.9307 222.401 78 c 258
 222.401 176.195 l 257
 259.398 176.195 l 257
 259.398 78.002 l 258
 259.398 39.5283 276.043 32 301.4 32 c 258
 395.398 32 l 258
 417.689 32 422.798 42.2314 422.798 62 c 258
 422.798 408.001 l 257
 459.996 408 l 257
 459.996 50 l 258
 459.996 19.6377 446.395 0 412.998 0 c 258
 290.202 0 l 258
 264.211 0 246.166 8.12695 241.202 28 c 257
 236.974 9.81934 217 0 194.202 0 c 258
 69.998 0 l 258
EndSplineSet
EndChar

StartChar: si_DdI
Encoding: 81 -1 81
GlifName: si_D_dI_
Width: 513
VWidth: 0
GlyphClass: 2
Flags: W
LayerCount: 2
Back
Fore
SplineSet
460 400 m 257
 422.8 400 l 257
 422.8 476 l 258
 422.8 499.381 416.127 509.5 391 509.5 c 258
 69 509.5 l 258
 37.667 509.5 22 525.5 22 557.5 c 258
 22 620 l 258
 22 653.415 36.1038 672 72 672 c 258
 458.5 672 l 257
 458.5 640 l 257
 84 640 l 258
 63.083 640 58.875 635.558 58.875 611 c 258
 58.875 566 l 258
 58.875 552.49 60.4326 541.5 83 541.5 c 258
 391 541.5 l 258
 447.814 541.5 460 524.085 460 466 c 258
 460 400 l 257
-6 307.535 m 257
 130.574 307.535 l 257
 130.574 275.598 l 257
 -6 275.598 l 257
 -6 307.535 l 257
22 220.598 m 258
 22 241.433 29.918 264.532 51 276.598 c 257
 60.1592 290.214 61.9033 307.598 78 307.598 c 258
 207.374 307.598 l 257
 207.374 389.598 l 258
 207.374 412.577 194.638 419.598 171.374 419.598 c 258
 23 419.598 l 257
 23 451.598 l 257
 181.374 451.598 l 258
 222.707 451.598 243.374 432.598 243.374 394.598 c 258
 243.374 275.598 l 257
 126.574 275.598 l 258
 72.2764 275.598 59 242.598 58.875 206.598 c 258
 59 55.8926 l 258
 59.013 39.9639 65.7998 32 79.1934 32 c 258
 182.399 32 l 258
 206 32 222.401 38.9307 222.401 78 c 258
 222.401 176.195 l 257
 259.398 176.195 l 257
 259.398 78.002 l 258
 259.398 39.5283 276.043 32 301.4 32 c 258
 395.398 32 l 258
 417.689 32 422.798 42.2314 422.798 62 c 258
 422.798 408.001 l 257
 459.996 408 l 257
 459.996 50 l 258
 459.996 19.6377 446.395 0 412.998 0 c 258
 290.202 0 l 258
 264.211 0 246.166 8.12695 241.202 28 c 257
 236.974 9.81934 217 0 194.202 0 c 258
 69.998 0 l 258
 33 0 22 16.2734 22 54 c 258
 22 220.598 l 258
EndSplineSet
EndChar

StartChar: si_DdIi
Encoding: 82 -1 82
GlifName: si_D_dI_i
Width: 513
VWidth: 0
GlyphClass: 2
Flags: W
LayerCount: 2
Back
Fore
SplineSet
422.8 405 m 257
 422.8 479.5 l 258
 422.8 497.69 405.683 509.5 387 509.5 c 258
 65 509.5 l 258
 35.1572 509.5 22 518.271 22 550.5 c 258
 22 618 l 258
 22 654.86 35.4108 672 72 672 c 258
 410 672 l 258
 446.588 672 460 654.858 460 618 c 258
 460 570 l 258
 460 547.838 450.687 532.87 433 528 c 257
 454.911 521.152 460 504.274 460 475 c 258
 460 405 l 257
 422.8 405 l 257
272 539 m 257
 260.918 542.511 254 550.292 254 567 c 258
 254 621 l 258
 254 633.107 260.501 638.25 264 640 c 257
 263.853 640 75.875 640 75.875 640 c 258
 64.542 640 58.875 635.333 58.875 626 c 258
 58.875 554 l 258
 58.875 544 64.208 539 74.875 539 c 258
 272 539 l 257
315 640 m 258
 299.45 640 291 630.698 291 616 c 258
 291 570.5 l 258
 291 551.602 307.267 545.5 324.5 545.5 c 258
 387 545.5 l 258
 403.345 545.5 423 550.393 423 577 c 258
 423 627.5 l 258
 423 636.697 415.693 640 408.5 640 c 258
 315 640 l 258
-6 307.535 m 257
 130.574 307.535 l 257
 130.574 275.598 l 257
 -6 275.598 l 257
 -6 307.535 l 257
22 220.598 m 258
 22 241.433 29.918 264.532 51 276.598 c 257
 60.1592 290.214 61.9033 307.598 78 307.598 c 258
 207.374 307.598 l 257
 207.374 389.598 l 258
 207.374 412.577 194.638 419.598 171.374 419.598 c 258
 23 419.598 l 257
 23 451.598 l 257
 181.374 451.598 l 258
 222.707 451.598 243.374 432.598 243.374 394.598 c 258
 243.374 275.598 l 257
 126.574 275.598 l 258
 72.2764 275.598 59 242.598 58.875 206.598 c 258
 59 55.8926 l 258
 59.013 39.9639 65.7998 32 79.1934 32 c 258
 182.399 32 l 258
 206 32 222.401 38.9307 222.401 78 c 258
 222.401 176.195 l 257
 259.398 176.195 l 257
 259.398 78.002 l 258
 259.398 39.5283 276.043 32 301.4 32 c 258
 395.398 32 l 258
 417.689 32 422.798 42.2314 422.798 62 c 258
 422.798 408.001 l 257
 459.996 408 l 257
 459.996 50 l 258
 459.996 19.6377 446.395 0 412.998 0 c 258
 290.202 0 l 258
 264.211 0 246.166 8.12695 241.202 28 c 257
 236.974 9.81934 217 0 194.202 0 c 258
 69.998 0 l 258
 33 0 22 16.2734 22 54 c 258
 22 220.598 l 258
EndSplineSet
EndChar

StartChar: si_DdR.halant
Encoding: 83 -1 83
GlifName: si_D_dR_.halant
Width: 513
VWidth: 0
GlyphClass: 2
Flags: W
LayerCount: 2
Back
Fore
SplineSet
22.1943 -21 m 257
 22.1943 -105.803 l 258
 22.1943 -135.797 39.1104 -150 66.1943 -150 c 258
 418.806 -150 l 258
 444.139 -150 459.806 -138.565 459.806 -107 c 258
 459.806 -21 l 257
 422.805 -21 l 257
 422.805 -97 l 258
 422.805 -109.878 417.64 -118.006 402.806 -118.006 c 258
 77.2041 -118.006 l 258
 64.0898 -118.006 59 -110 59 -98 c 258
 59 -21 l 257
 22.1943 -21 l 257
460 400 m 257
 422.8 400 l 257
 422.8 465 l 258
 422.8 505.98 410.364 518 375 518 c 258
 14 518 l 257
 14 550 l 257
 82 550 l 257
 52.667 557.333 50 582.667 50 604 c 258
 50 632 l 258
 50 659.333 66.3333 673 99 673 c 258
 458 673 l 257
 458 641 l 257
 102.5 641 l 258
 87.5312 641 87 633.667 87 616 c 256
 87 573.678 97.3973 550 168 550 c 258
 383 550 l 258
 443.379 550 460 528.468 460 469 c 258
 460 400 l 257
-6 307.535 m 257
 130.574 307.535 l 257
 130.574 275.598 l 257
 -6 275.598 l 257
 -6 307.535 l 257
69.998 0 m 258
 33 0 22 16.2734 22 54 c 258
 22 220.598 l 258
 22 241.433 29.918 264.532 51 276.598 c 257
 60.1592 290.214 61.9033 307.598 78 307.598 c 258
 207.374 307.598 l 257
 207.374 389.598 l 258
 207.374 412.577 194.638 419.598 171.374 419.598 c 258
 23 419.598 l 257
 23 451.598 l 257
 181.374 451.598 l 258
 222.707 451.598 243.374 432.598 243.374 394.598 c 258
 243.374 275.598 l 257
 126.574 275.598 l 258
 72.2764 275.598 59 242.598 58.875 206.598 c 258
 59 55.8926 l 258
 59.013 39.9639 65.7998 32 79.1934 32 c 258
 182.399 32 l 258
 206 32 222.401 38.9307 222.401 78 c 258
 222.401 176.195 l 257
 259.398 176.195 l 257
 259.398 78.002 l 258
 259.398 39.5283 276.043 32 301.4 32 c 258
 395.398 32 l 258
 417.689 32 422.798 42.2314 422.798 62 c 258
 422.798 408.001 l 257
 459.996 408 l 257
 459.996 50 l 258
 459.996 19.6377 446.395 0 412.998 0 c 258
 290.202 0 l 258
 264.211 0 246.166 8.12695 241.202 28 c 257
 236.974 9.81934 217 0 194.202 0 c 258
 69.998 0 l 258
EndSplineSet
EndChar

StartChar: si_DdRI
Encoding: 84 -1 84
GlifName: si_D_dR_I_
Width: 513
VWidth: 0
GlyphClass: 2
Flags: W
LayerCount: 2
Back
Fore
SplineSet
22.1943 -21 m 257
 22.1943 -105.803 l 258
 22.1943 -135.797 39.1104 -150 66.1943 -150 c 258
 418.806 -150 l 258
 444.139 -150 459.806 -138.565 459.806 -107 c 258
 459.806 -21 l 257
 422.805 -21 l 257
 422.805 -97 l 258
 422.805 -109.878 417.64 -118.006 402.806 -118.006 c 258
 77.2041 -118.006 l 258
 64.0898 -118.006 59 -110 59 -98 c 258
 59 -21 l 257
 22.1943 -21 l 257
EndSplineSet
Refer: 81 -1 N 1 0 0 1 0 0 2
EndChar

StartChar: si_DdRIi
Encoding: 85 -1 85
GlifName: si_D_dR_I_i
Width: 513
VWidth: 0
GlyphClass: 2
Flags: W
LayerCount: 2
Back
Fore
SplineSet
22.1943 -21 m 257
 22.1943 -105.803 l 258
 22.1943 -135.797 39.1104 -150 66.1943 -150 c 258
 418.806 -150 l 258
 444.139 -150 459.806 -138.565 459.806 -107 c 258
 459.806 -21 l 257
 422.805 -21 l 257
 422.805 -97 l 258
 422.805 -109.878 417.64 -118.006 402.806 -118.006 c 258
 77.2041 -118.006 l 258
 64.0898 -118.006 59 -110 59 -98 c 258
 59 -21 l 257
 22.1943 -21 l 257
EndSplineSet
Refer: 82 -1 N 1 0 0 1 0 0 2
EndChar

StartChar: si_DdRa
Encoding: 86 -1 86
GlifName: si_D_dR_a
Width: 513
VWidth: 0
GlyphClass: 2
Flags: W
LayerCount: 2
Back
Fore
SplineSet
22.1943 -21 m 257
 22.1943 -105.803 l 258
 22.1943 -135.797 39.1104 -150 66.1943 -150 c 258
 418.806 -150 l 258
 444.139 -150 459.806 -138.565 459.806 -107 c 258
 459.806 -21 l 257
 422.805 -21 l 257
 422.805 -97 l 258
 422.805 -109.878 417.64 -118.006 402.806 -118.006 c 258
 77.2041 -118.006 l 258
 64.0898 -118.006 59 -110 59 -98 c 258
 59 -21 l 257
 22.1943 -21 l 257
EndSplineSet
Refer: 89 3497 N 1 0 0 1 0 0 2
EndChar

StartChar: si_Dda
Encoding: 89 3497 89
GlifName: si_D_da
Width: 513
VWidth: 0
GlyphClass: 2
Flags: W
LayerCount: 2
Back
Fore
SplineSet
-6 352.938 m 257
 130.574 352.938 l 257
 130.574 321 l 257
 -6 321 l 257
 -6 352.938 l 257
69.998 0 m 258
 33 0 22 16.273 22 54 c 258
 22 266 l 258
 22 286.835 29.9175 309.935 51 322 c 257
 60.1592 335.616 61.9033 353 78 353 c 258
 207.374 353 l 257
 207.374 435 l 258
 207.374 457.979 194.638 465 171.374 465 c 258
 23 465 l 257
 23 497 l 257
 181.374 497 l 258
 222.707 497 243.374 478 243.374 440 c 258
 243.374 321 l 257
 126.574 321 l 258
 72.2768 321 59 288 58.875 252 c 258
 59 55.8926 l 258
 59.0102 39.9642 65.7998 32 79.1934 32 c 258
 182.399 32 l 258
 206 32 222.401 38.9307 222.401 78 c 258
 222.401 176.195 l 257
 259.398 176.195 l 257
 259.398 78.002 l 258
 259.398 39.5283 276.043 32 301.4 32 c 258
 395.398 32 l 258
 417.689 32 422.798 42.2314 422.798 62 c 258
 422.798 552 l 258
 422.798 583.043 409.479 594 378.998 594 c 258
 22.001 594 l 257
 22.001 626 l 257
 386.998 626 l 258
 429.307 626 459.996 609.264 459.996 560 c 258
 459.996 50 l 258
 459.996 19.6377 446.395 -4.08989e-15 412.998 0 c 258
 290.202 0 l 258
 264.211 0 246.166 8.12695 241.202 28 c 257
 236.974 9.81934 217 0 194.202 0 c 258
 69.998 0 l 258
EndSplineSet
EndChar

StartChar: si_Dda.reph
Encoding: 90 -1 90
GlifName: si_D_da.reph
Width: 513
VWidth: 0
GlyphClass: 2
Flags: W
LayerCount: 2
Back
Fore
SplineSet
-6 352.938 m 257
 130.574 352.938 l 257
 130.574 321 l 257
 -6 321 l 257
 -6 352.938 l 257
69.998 0 m 258
 33 0 22 16.2734 22 54 c 258
 22 266 l 258
 22 286.835 29.918 309.935 51 322 c 257
 60.1592 335.616 61.9033 353 78 353 c 258
 207.374 353 l 257
 207.374 435 l 258
 207.374 457.979 194.638 465 171.374 465 c 258
 23 465 l 257
 23 497 l 257
 181.374 497 l 258
 222.707 497 243.374 478 243.374 440 c 258
 243.374 321 l 257
 126.574 321 l 258
 72.2764 321 59 288 58.875 252 c 258
 59 55.8926 l 258
 59.0098 39.9639 65.7998 32 79.1934 32 c 258
 182.399 32 l 258
 206 32 222.401 38.9307 222.401 78 c 258
 222.401 176.195 l 257
 259.398 176.195 l 257
 259.398 78.002 l 258
 259.398 39.5283 276.043 32 301.4 32 c 258
 395.398 32 l 258
 417.689 32 422.798 42.2314 422.798 62 c 258
 422.798 552 l 258
 422.798 583.043 409.479 594 378.998 594 c 258
 22.001 594 l 257
 22.001 626 l 257
 386.998 626 l 258
 429.307 626 459.996 609.264 459.996 560 c 258
 459.996 50 l 258
 459.996 19.6377 446.395 -0 412.998 0 c 258
 290.202 0 l 258
 264.211 0 246.166 8.12695 241.202 28 c 257
 236.974 9.81934 217 0 194.202 0 c 258
 69.998 0 l 258
208.997 659.598 m 257
 247 659.598 l 257
 247 566 l 258
 247 538.822 235.509 529 216 529 c 258
 116.606 529 l 258
 90.1426 529 76.6064 542.896 76.6064 575 c 258
 76.6064 668.207 l 258
 76.6064 696.944 93.8555 716.207 130.606 716.207 c 258
 322 716.207 l 258
 355.445 716.207 373 699.386 373 660.207 c 258
 373 533.603 l 257
 336.002 533.603 l 257
 336.002 655.806 l 258
 336.002 675.583 329.771 684.204 316 684.204 c 258
 135.606 684.204 l 258
 123.006 684.204 113.614 677.9 113.614 662.806 c 258
 113.614 580.599 l 258
 113.614 567.926 116.859 560.391 128.606 560.391 c 258
 196.206 560.391 l 258
 207.471 560.391 208.997 565.724 208.997 576.391 c 258
 208.997 659.598 l 257
EndSplineSet
EndChar

StartChar: si_Ddh.halant
Encoding: 91 -1 91
GlifName: si_D_dh.halant
Width: 513
VWidth: 0
GlyphClass: 2
Flags: W
LayerCount: 2
Back
Fore
SplineSet
69.998 0 m 258
 33 0 22 16.273 22 54 c 258
 22 187.805 l 258
 22 208.64 29.918 231.739 51 243.805 c 257
 60.1592 257.421 61.9033 274.805 78 274.805 c 258
 207.374 274.805 l 257
 207.374 356.805 l 258
 207.374 379.784 194.638 386.805 171.374 386.805 c 258
 23 386.805 l 257
 23 418.805 l 257
 181.374 418.805 l 258
 222.707 418.805 243.374 399.805 243.374 361.805 c 258
 243.374 242.805 l 257
 126.574 242.805 l 258
 72.2764 242.805 59 209.805 58.875 173.805 c 258
 59 55.8926 l 258
 59.0169 39.9642 65.7998 32 79.1934 32 c 258
 182.399 32 l 258
 206 32 222.401 38.9307 222.401 78 c 258
 222.401 147 l 257
 259.398 147 l 257
 259.398 78.002 l 258
 259.398 39.5283 276.043 32 301.4 32 c 258
 395.398 32 l 258
 417.689 32 422.798 42.2316 422.798 62 c 258
 422.798 461 l 257
 459.996 461 l 257
 459.996 50 l 258
 459.996 19.6379 446.395 -4.08989e-15 412.998 0 c 258
 290.202 0 l 258
 264.211 0 246.166 8.12695 241.202 28 c 257
 236.974 9.81934 217 0 194.202 0 c 258
 69.998 0 l 258
460 430 m 257
 423 430 l 257
 423 456 l 257
 174.197 456.215 l 258
 140.932 456.244 128.414 467.187 128.414 503.601 c 258
 128.414 631.998 l 257
 59.6152 631.998 l 257
 59.6152 664 l 257
 180.997 664 l 258
 212.188 664 230.675 663.334 266.197 645 c 256
 266.674 644.894 390.197 581 390.197 581 c 258
 426.604 565.041 460.357 545.97 460.197 494 c 258
 460 430 l 257
165.398 631.999 m 257
 165.398 510.601 l 258
 165.398 490.33 171.324 488.217 191.197 488.217 c 258
 423.001 488.217 l 257
 423.001 494.198 l 258
 423.001 527.531 400.631 538.494 377.197 550.399 c 258
 239.797 621.802 l 258
 222.093 630.918 199.424 631.929 179.197 631.971 c 258
 165.398 631.999 l 257
-6 274.742 m 257
 130.574 274.742 l 257
 130.574 242.805 l 257
 -6 242.805 l 257
 -6 274.742 l 257
423.196 708 m 257
 460.198 708 l 257
 460.198 480 l 257
 423.197 480 l 257
 423.196 708 l 257
EndSplineSet
EndChar

StartChar: si_DdhI
Encoding: 92 -1 92
GlifName: si_D_dhI_
Width: 513
VWidth: 0
GlyphClass: 2
Flags: W
LayerCount: 2
Back
Fore
SplineSet
232 454.006 m 257
 74 454.006 l 258
 36.6289 454.006 22.002 473.567 22 505.393 c 258
 21.9912 614 l 258
 21.9887 646.531 41.0853 672.005 87 672.005 c 258
 460.204 672.005 l 257
 460.204 640 l 257
 93 640 l 258
 70.5088 640 58.998 630.25 58.998 608 c 258
 58.998 514.997 l 258
 58.998 493.836 65.9365 486.001 83 486.001 c 258
 232.001 486.001 l 257
 232 454.006 l 257
261.431 555.984 m 257
 261.431 466.183 l 258
 261.431 444.826 267.49 443.387 284 443.387 c 258
 423.003 443.387 l 257
 423.004 519.984 l 258
 423.004 544.91 417.459 555.984 386.002 555.984 c 258
 261.431 555.984 l 257
460 377.984 m 257
 422.801 377.984 l 257
 422.801 410.999 l 257
 269.997 410.999 l 258
 236.705 410.999 224.214 421.971 224.214 458.385 c 258
 224.214 556.984 l 257
 158.597 556.984 l 257
 158.597 587.984 l 257
 393.999 587.984 l 258
 441.559 587.984 460 572.552 460 520.984 c 258
 460 377.984 l 257
-6 258.727 m 257
 130.574 258.727 l 257
 130.574 226.789 l 257
 -6 226.789 l 257
 -6 258.727 l 257
22 171.789 m 258
 22 192.624 29.918 215.724 51 227.789 c 257
 60.1592 241.405 61.9033 258.789 78 258.789 c 258
 207.374 258.789 l 257
 207.374 340.789 l 258
 207.374 363.769 194.638 370.789 171.374 370.789 c 258
 23 370.789 l 257
 23 402.789 l 257
 181.374 402.789 l 258
 222.707 402.789 243.374 383.789 243.374 345.789 c 258
 243.374 226.789 l 257
 126.574 226.789 l 258
 72.2764 226.789 59 193.789 58.875 157.789 c 258
 59 55.8926 l 258
 59.0166 39.9639 65.7998 32 79.1934 32 c 258
 182.399 32 l 258
 206 32 222.401 38.9307 222.401 78 c 258
 222.401 147 l 257
 259.398 147 l 257
 259.398 78.002 l 258
 259.398 39.5283 276.043 32 301.4 32 c 258
 395.398 32 l 258
 417.689 32 422.798 42.2314 422.798 62 c 258
 422.798 393.984 l 257
 459.996 393.984 l 257
 459.996 50 l 258
 459.996 19.6377 446.395 0 412.998 0 c 258
 290.202 0 l 258
 264.211 0 246.166 8.12695 241.202 28 c 257
 236.974 9.81934 217 0 194.202 0 c 258
 69.998 0 l 258
 33 0 22 16.2734 22 54 c 258
 22 171.789 l 258
EndSplineSet
EndChar

StartChar: si_DdhIi
Encoding: 93 -1 93
GlifName: si_D_dhI_i
Width: 513
VWidth: 0
GlyphClass: 2
Flags: W
LayerCount: 2
Back
Fore
SplineSet
282.003 640.004 m 258
 272.003 640.004 267.003 634 267.003 626 c 258
 267.003 607.588 l 258
 267.003 598.944 272.336 594.588 283.003 594.588 c 258
 406.797 594.588 l 258
 417.464 594.588 422.797 599.255 422.797 608.588 c 258
 422.797 628.004 l 258
 422.797 636.004 417.13 640.004 405.797 640.004 c 258
 282.003 640.004 l 258
232 421.982 m 257
 82 421.982 l 258
 45.3535 421.982 32 442.982 32 472.982 c 258
 32 614 l 258
 32 648.255 50.5791 672 95 672 c 258
 417.398 672 l 258
 444.029 672 460.398 661.562 460.398 635 c 258
 460.398 599.589 l 258
 460.398 572.891 446.689 562.589 416.398 562.589 c 258
 260 562.587 l 258
 239.515 562.587 230 571.304 230 587.589 c 258
 230 628 l 258
 230 634.507 231.584 637.821 234 640.002 c 257
 103 640.002 l 258
 81.4937 640.002 69 631.435 69 611 c 258
 69 479.982 l 258
 69 459.985 75.8721 453.987 91 453.987 c 258
 232.002 453.987 l 257
 232 421.982 l 257
261.431 505.768 m 257
 261.431 432.95 l 258
 261.431 411.594 267.49 410.154 284 410.154 c 258
 423.003 410.154 l 257
 423.004 469.768 l 258
 423.004 494.693 417.459 505.768 386.002 505.768 c 258
 261.431 505.768 l 257
460 344.752 m 257
 422.801 344.752 l 257
 422.801 377.767 l 257
 269.997 377.767 l 258
 236.705 377.767 224.214 388.738 224.214 425.152 c 258
 224.214 506.768 l 257
 158.597 506.768 l 257
 158.597 537.768 l 257
 393.999 537.768 l 258
 441.559 537.768 460 522.335 460 470.768 c 258
 460 344.752 l 257
-6 242.711 m 257
 130.574 242.711 l 257
 130.574 210.773 l 257
 -6 210.773 l 257
 -6 242.711 l 257
23 369.557 m 257
 181.374 369.557 l 258
 222.707 369.557 243.374 350.557 243.374 312.557 c 258
 243.374 210.773 l 257
 126.574 210.773 l 258
 72.2764 210.773 59 177.773 58.875 141.773 c 258
 59 55.8926 l 258
 59.0166 39.9639 65.7998 32 79.1934 32 c 258
 182.399 32 l 258
 206 32 222.401 38.9307 222.401 78 c 258
 222.401 134.788 l 257
 259.398 134.788 l 257
 259.398 78.002 l 258
 259.398 39.5283 276.043 32 301.4 32 c 258
 395.398 32 l 258
 417.689 32 422.798 42.2314 422.798 62 c 258
 422.798 360.752 l 257
 459.996 360.752 l 257
 459.996 50 l 258
 459.996 19.6377 446.395 0 412.998 0 c 258
 290.202 0 l 258
 264.211 0 246.166 8.12695 241.202 28 c 257
 236.974 9.81934 217 0 194.202 0 c 258
 69.998 0 l 258
 33 0 22 16.2734 22 54 c 258
 22 155.773 l 258
 22 176.608 29.918 199.708 51 211.773 c 257
 60.1592 225.39 61.9033 242.773 78 242.773 c 258
 207.374 242.773 l 257
 207.374 307.557 l 258
 207.374 330.536 194.638 337.557 171.374 337.557 c 258
 23 337.557 l 257
 23 369.557 l 257
EndSplineSet
EndChar

StartChar: si_Ddha
Encoding: 96 3498 96
GlifName: si_D_dha
Width: 513
VWidth: 0
GlyphClass: 2
Flags: W
LayerCount: 2
Back
Fore
SplineSet
261.431 594 m 257
 261.431 482.198 l 258
 261.431 460.842 267.49 459.402 284 459.402 c 258
 423.003 459.402 l 257
 423.004 558 l 258
 423.004 582.926 417.459 594 386.002 594 c 258
 261.431 594 l 257
460 394 m 257
 422.801 394 l 257
 422.801 427.015 l 257
 269.997 427.015 l 258
 236.705 427.015 224.214 437.986 224.214 474.4 c 258
 224.214 595 l 257
 158.597 595 l 257
 158.597 626 l 257
 393.999 626 l 258
 441.559 626 460 610.567 460 559 c 258
 460 394 l 257
-6 274.742 m 257
 130.574 274.742 l 257
 130.574 242.805 l 257
 -6 242.805 l 257
 -6 274.742 l 257
22 187.805 m 258
 22 208.64 29.918 231.739 51 243.805 c 257
 60.1592 257.421 61.9033 274.805 78 274.805 c 258
 207.374 274.805 l 257
 207.374 356.805 l 258
 207.374 379.784 194.638 386.805 171.374 386.805 c 258
 23 386.805 l 257
 23 418.805 l 257
 181.374 418.805 l 258
 222.707 418.805 243.374 399.805 243.374 361.805 c 258
 243.374 242.805 l 257
 126.574 242.805 l 258
 72.2764 242.805 59 209.805 58.875 173.805 c 258
 59 55.8926 l 258
 59.0169 39.9642 65.7998 32 79.1934 32 c 258
 182.399 32 l 258
 206 32 222.401 38.9307 222.401 78 c 258
 222.401 147 l 257
 259.398 147 l 257
 259.398 78.002 l 258
 259.398 39.5283 276.043 32 301.4 32 c 258
 395.398 32 l 258
 417.689 32 422.798 42.2314 422.798 62 c 258
 422.798 410 l 257
 459.996 410 l 257
 459.996 50 l 258
 459.996 19.6377 446.395 -4.08989e-15 412.998 0 c 258
 290.202 0 l 258
 264.211 0 246.166 8.12695 241.202 28 c 257
 236.974 9.81934 217 0 194.202 0 c 258
 69.998 0 l 258
 33 0 22 16.273 22 54 c 258
 22 187.805 l 258
EndSplineSet
EndChar

StartChar: si_Dh.halant
Encoding: 97 -1 97
GlifName: si_D_h.halant
Width: 515
VWidth: 0
GlyphClass: 2
Flags: W
LayerCount: 2
Back
Fore
SplineSet
461.001 400 m 257
 423.601 400 l 257
 423.601 465 l 258
 423.601 505.98 411.365 518 376.001 518 c 258
 15.001 518 l 257
 15.001 550 l 257
 83.001 550 l 257
 53.668 557.333 51.001 582.667 51.001 604 c 258
 51.001 632 l 258
 51.001 659.333 67.334 673 100.001 673 c 258
 459.001 673 l 257
 459.001 641 l 257
 103.501 641 l 258
 88.5322 641 88.001 633.667 88.001 616 c 256
 88.001 573.678 98.3984 550 169.001 550 c 258
 384.001 550 l 258
 444.38 550 461.001 528.468 461.001 469 c 258
 461.001 400 l 257
460.975 428 m 257
 460.975 50 l 258
 460.975 19.6377 447.373 0 413.977 0 c 258
 289.791 0 l 258
 263.791 0 247.457 12.333 240.791 37 c 257
 237.617 16.3779 217.061 0 193.791 0 c 258
 69 0 l 258
 37.6096 0 22 15.0176 22 48 c 258
 22 345.003 l 258
 22 383.558 40.0205 410.003 81 410.003 c 258
 247.186 410.003 l 257
 247.187 377.805 l 257
 93 377.805 l 258
 66.3867 377.805 59 363.44 59 342.003 c 258
 59 58 l 258
 59 42.2284 62.9558 32 82 32 c 258
 175.988 32 l 258
 215.117 32 221.988 65.5214 221.988 100.802 c 258
 221.988 229 l 257
 259.188 229 l 257
 259.188 101 l 258
 259.188 66.1649 268.267 32 309.988 32 c 258
 401.977 32 l 258
 418.903 32 423.582 43.6895 423.582 60 c 258
 423.582 428 l 257
 460.975 428 l 257
EndSplineSet
EndChar

StartChar: si_DhI
Encoding: 98 -1 98
GlifName: si_D_hI_
Width: 515
VWidth: 0
GlyphClass: 2
Flags: W
LayerCount: 2
Back
Fore
SplineSet
461.001 400 m 257
 423.601 400 l 257
 423.601 476 l 258
 423.601 487.69 421.983 496.065 417.224 501.518 c 256
 412.464 506.97 404.565 509.5 392.001 509.5 c 258
 70.001 509.5 l 258
 38.668 509.5 23.001 525.5 23.001 557.5 c 258
 23.001 620 l 258
 23.001 636.707 26.5269 649.707 34.5398 658.531 c 256
 42.5528 667.354 55.0528 672 73.001 672 c 258
 459.501 672 l 257
 459.501 640 l 257
 85.001 640 l 258
 64.084 640 59.876 635.559 59.876 611 c 258
 59.876 566 l 258
 59.876 552.489 61.4336 541.5 84.001 541.5 c 258
 392.001 541.5 l 258
 420.408 541.5 437.658 537.146 447.806 525.532 c 256
 457.954 513.918 461.001 495.043 461.001 466 c 258
 461.001 400 l 257
460.975 428 m 257
 460.975 50 l 258
 460.975 19.6377 447.373 0 413.977 0 c 258
 289.791 0 l 258
 263.791 0 247.457 12.333 240.791 37 c 257
 237.617 16.3779 217.061 0 193.791 0 c 258
 69 0 l 258
 37.6096 0 22 15.0176 22 48 c 258
 22 345.003 l 258
 22 383.558 40.0205 410.003 81 410.003 c 258
 247.186 410.003 l 257
 247.187 377.805 l 257
 93 377.805 l 258
 66.3867 377.805 59 363.44 59 342.003 c 258
 59 58 l 258
 59 42.2284 62.9558 32 82 32 c 258
 175.988 32 l 258
 215.117 32 221.988 65.5214 221.988 100.802 c 258
 221.988 229 l 257
 259.188 229 l 257
 259.188 101 l 258
 259.188 66.1649 268.267 32 309.988 32 c 258
 401.977 32 l 258
 418.903 32 423.582 43.6895 423.582 60 c 258
 423.582 428 l 257
 460.975 428 l 257
EndSplineSet
EndChar

StartChar: si_DhIi
Encoding: 99 -1 99
GlifName: si_D_hI_i
Width: 515
VWidth: 0
GlyphClass: 2
Flags: W
LayerCount: 2
Back
Fore
SplineSet
423.601 405 m 257
 423.601 479.5 l 258
 423.601 497.69 406.684 509.5 388.001 509.5 c 258
 66.001 509.5 l 258
 36.1582 509.5 23.001 518.271 23.001 550.5 c 258
 23.001 618 l 258
 23.001 654.859 36.4111 672 73.001 672 c 258
 411.001 672 l 258
 447.589 672 461.001 654.858 461.001 618 c 258
 461.001 570 l 258
 461.001 547.838 451.688 532.87 434.001 528 c 257
 455.912 521.152 461.001 504.274 461.001 475 c 258
 461.001 405 l 257
 423.601 405 l 257
273.001 539 m 257
 261.919 542.512 255.001 550.292 255.001 567 c 258
 255.001 621 l 258
 255.001 633.107 261.502 638.25 265.001 640 c 257
 264.854 640 76.876 640 76.876 640 c 258
 65.543 640 59.876 635.333 59.876 626 c 258
 59.876 554 l 258
 59.876 544 65.209 539 75.876 539 c 258
 273.001 539 l 257
316.001 640 m 258
 300.451 640 292.001 630.698 292.001 616 c 258
 292.001 570.5 l 258
 292.001 551.602 308.268 545.5 325.501 545.5 c 258
 388.001 545.5 l 258
 404.346 545.5 424.001 550.393 424.001 577 c 258
 424.001 627.5 l 258
 424.001 636.697 416.694 640 409.501 640 c 258
 316.001 640 l 258
460.975 428 m 257
 460.975 50 l 258
 460.975 19.6377 447.373 0 413.977 0 c 258
 289.791 0 l 258
 263.791 0 247.457 12.333 240.791 37 c 257
 237.617 16.3779 217.061 0 193.791 0 c 258
 69 0 l 258
 37.6096 0 22 15.0176 22 48 c 258
 22 345.003 l 258
 22 383.558 40.0205 410.003 81 410.003 c 258
 247.186 410.003 l 257
 247.187 377.805 l 257
 93 377.805 l 258
 66.3867 377.805 59 363.44 59 342.003 c 258
 59 58 l 258
 59 42.2284 62.9558 32 82 32 c 258
 175.988 32 l 258
 215.117 32 221.988 65.5214 221.988 100.802 c 258
 221.988 229 l 257
 259.188 229 l 257
 259.188 101 l 258
 259.188 66.1649 268.267 32 309.988 32 c 258
 401.977 32 l 258
 418.903 32 423.582 43.6895 423.582 60 c 258
 423.582 428 l 257
 460.975 428 l 257
EndSplineSet
EndChar

StartChar: si_DhR.halant
Encoding: 100 -1 100
GlifName: si_D_hR_.halant
Width: 515
VWidth: 0
GlyphClass: 2
Flags: W
LayerCount: 2
Back
Fore
SplineSet
22.1943 -21 m 257
 22.1943 -105.803 l 258
 22.1943 -135.797 39.1104 -150 66.1943 -150 c 258
 418.806 -150 l 258
 444.139 -150 459.806 -138.565 459.806 -107 c 258
 459.806 -21 l 257
 422.805 -21 l 257
 422.805 -97 l 258
 422.805 -109.878 417.64 -118.006 402.806 -118.006 c 258
 77.2041 -118.006 l 258
 64.0898 -118.006 59 -110 59 -98 c 258
 59 -21 l 257
 22.1943 -21 l 257
461.001 400 m 257
 423.601 400 l 257
 423.601 465 l 258
 423.601 505.98 411.365 518 376.001 518 c 258
 15.001 518 l 257
 15.001 550 l 257
 83.001 550 l 257
 53.668 557.333 51.001 582.667 51.001 604 c 258
 51.001 632 l 258
 51.001 659.333 67.334 673 100.001 673 c 258
 459.001 673 l 257
 459.001 641 l 257
 103.501 641 l 258
 88.5322 641 88.001 633.667 88.001 616 c 256
 88.001 573.678 98.3984 550 169.001 550 c 258
 384.001 550 l 258
 444.38 550 461.001 528.468 461.001 469 c 258
 461.001 400 l 257
460.975 428 m 257
 460.975 50 l 258
 460.975 19.6377 447.373 0 413.977 0 c 258
 289.791 0 l 258
 263.791 0 247.457 12.333 240.791 37 c 257
 237.617 16.3779 217.061 0 193.791 0 c 258
 69 0 l 258
 37.6096 0 22 15.0176 22 48 c 258
 22 345.003 l 258
 22 383.558 40.0205 410.003 81 410.003 c 258
 247.186 410.003 l 257
 247.187 377.805 l 257
 93 377.805 l 258
 66.3867 377.805 59 363.44 59 342.003 c 258
 59 58 l 258
 59 42.2284 62.9558 32 82 32 c 258
 175.988 32 l 258
 215.117 32 221.988 65.5214 221.988 100.802 c 258
 221.988 229 l 257
 259.188 229 l 257
 259.188 101 l 258
 259.188 66.1649 268.267 32 309.988 32 c 258
 401.977 32 l 258
 418.903 32 423.582 43.6895 423.582 60 c 258
 423.582 428 l 257
 460.975 428 l 257
EndSplineSet
EndChar

StartChar: si_DhRI
Encoding: 101 -1 101
GlifName: si_D_hR_I_
Width: 512
VWidth: 0
GlyphClass: 2
Flags: W
LayerCount: 2
Back
Fore
SplineSet
22.1943 -21 m 257
 22.1943 -105.803 l 258
 22.1943 -135.797 39.1104 -150 66.1943 -150 c 258
 418.806 -150 l 258
 444.139 -150 459.806 -138.565 459.806 -107 c 258
 459.806 -21 l 257
 422.805 -21 l 257
 422.805 -97 l 258
 422.805 -109.878 417.64 -118.006 402.806 -118.006 c 258
 77.2041 -118.006 l 258
 64.0898 -118.006 59 -110 59 -98 c 258
 59 -21 l 257
 22.1943 -21 l 257
EndSplineSet
Refer: 98 -1 N 1 0 0 1 0 0 2
EndChar

StartChar: si_DhRIi
Encoding: 102 -1 102
GlifName: si_D_hR_I_i
Width: 514
VWidth: 0
GlyphClass: 2
Flags: W
LayerCount: 2
Back
Fore
SplineSet
22.1943 -21 m 257
 22.1943 -105.803 l 258
 22.1943 -135.797 39.1104 -150 66.1943 -150 c 258
 418.806 -150 l 258
 444.139 -150 459.806 -138.565 459.806 -107 c 258
 459.806 -21 l 257
 422.805 -21 l 257
 422.805 -97 l 258
 422.805 -109.878 417.64 -118.006 402.806 -118.006 c 258
 77.2041 -118.006 l 258
 64.0898 -118.006 59 -110 59 -98 c 258
 59 -21 l 257
 22.1943 -21 l 257
EndSplineSet
Refer: 99 -1 N 1 0 0 1 0 0 2
EndChar

StartChar: si_DhRa
Encoding: 103 -1 103
GlifName: si_D_hR_a
Width: 515
VWidth: 0
GlyphClass: 2
Flags: W
LayerCount: 2
Back
Fore
SplineSet
22.1943 -21 m 257
 22.1943 -105.803 l 258
 22.1943 -135.797 39.1104 -150 66.1943 -150 c 258
 418.806 -150 l 258
 444.139 -150 459.806 -138.565 459.806 -107 c 258
 459.806 -21 l 257
 422.805 -21 l 257
 422.805 -97 l 258
 422.805 -109.878 417.64 -118.006 402.806 -118.006 c 258
 77.2041 -118.006 l 258
 64.0898 -118.006 59 -110 59 -98 c 258
 59 -21 l 257
 22.1943 -21 l 257
EndSplineSet
Refer: 106 3504 N 1 0 0 1 0 0 2
EndChar

StartChar: si_Dha
Encoding: 106 3504 106
GlifName: si_D_ha
Width: 515
VWidth: 0
GlyphClass: 2
Flags: W
LayerCount: 2
Back
Fore
SplineSet
247.187 464.8 m 257
 93 464.8 l 258
 66.3867 464.8 59 450.436 59 428.998 c 258
 59 58 l 258
 59 42.2284 62.9558 32 82 32 c 258
 175.988 32 l 258
 215.117 32 221.988 65.5156 221.988 100.802 c 258
 221.988 244.796 l 257
 259.188 244.796 l 257
 259.188 101 l 258
 259.188 66.1592 268.267 32 309.988 32 c 258
 401.977 32 l 258
 418.903 32 423.582 43.6895 423.582 60 c 258
 423.582 554 l 258
 423.582 587.453 408.387 594.6 379.977 594.6 c 258
 22.001 594.6 l 257
 22.001 626 l 257
 387.977 626 l 258
 430.285 626 460.975 609.264 460.975 560 c 258
 460.975 50 l 258
 460.975 19.6377 447.373 0 413.977 0 c 258
 289.791 0 l 258
 263.791 0 247.457 12.333 240.791 37 c 257
 237.617 16.3779 217.061 0 193.791 0 c 258
 69 0 l 258
 37.6096 0 22 15.0176 22 48 c 258
 22 431.998 l 258
 22 470.553 40.0205 496.998 81 496.998 c 258
 247.186 496.998 l 257
 247.187 464.8 l 257
EndSplineSet
EndChar

StartChar: si_Dha.reph
Encoding: 107 -1 107
GlifName: si_D_ha.reph
Width: 515
VWidth: 0
GlyphClass: 2
Flags: W
LayerCount: 2
Back
Fore
SplineSet
247.187 464.8 m 257
 93 464.8 l 258
 66.3867 464.8 59 450.436 59 428.998 c 258
 59 58 l 258
 59 42.2285 62.9561 32 82 32 c 258
 175.988 32 l 258
 215.117 32 221.988 65.5156 221.988 100.802 c 258
 221.988 244.796 l 257
 259.188 244.796 l 257
 259.188 101 l 258
 259.188 66.1592 268.267 32 309.988 32 c 258
 401.977 32 l 258
 418.903 32 423.582 43.6895 423.582 60 c 258
 423.582 554 l 258
 423.582 587.453 408.387 594.6 379.977 594.6 c 258
 22.001 594.6 l 257
 22.001 626 l 257
 387.977 626 l 258
 430.285 626 460.975 609.264 460.975 560 c 258
 460.975 50 l 258
 460.975 19.6377 447.373 0 413.977 0 c 258
 289.791 0 l 258
 263.791 0 247.457 12.333 240.791 37 c 257
 237.617 16.3779 217.061 0 193.791 0 c 258
 69 0 l 258
 37.6094 0 22 15.0176 22 48 c 258
 22 431.998 l 258
 22 470.553 40.0205 496.998 81 496.998 c 258
 247.186 496.998 l 257
 247.187 464.8 l 257
208.997 659.598 m 257
 247 659.598 l 257
 247 566 l 258
 247 538.822 235.509 529 216 529 c 258
 116.606 529 l 258
 90.1426 529 76.6064 542.896 76.6064 575 c 258
 76.6064 668.207 l 258
 76.6064 696.944 93.8555 716.207 130.606 716.207 c 258
 322 716.207 l 258
 355.445 716.207 373 699.386 373 660.207 c 258
 373 533.603 l 257
 336.002 533.603 l 257
 336.002 655.806 l 258
 336.002 675.583 329.771 684.204 316 684.204 c 258
 135.606 684.204 l 258
 123.006 684.204 113.614 677.9 113.614 662.806 c 258
 113.614 580.599 l 258
 113.614 567.926 116.859 560.391 128.606 560.391 c 258
 196.206 560.391 l 258
 207.471 560.391 208.997 565.724 208.997 576.391 c 258
 208.997 659.598 l 257
EndSplineSet
EndChar

StartChar: si_E
Encoding: 110 3473 110
GlifName: si_E_
Width: 534
VWidth: 0
GlyphClass: 2
Flags: W
LayerCount: 2
Back
Fore
SplineSet
187.201 631.999 m 257
 187.201 510.601 l 258
 187.201 490.33 193.127 488.217 213 488.217 c 258
 444.804 488.217 l 257
 444.804 494.198 l 258
 444.804 527.531 422.433 538.495 399 550.399 c 258
 261.6 621.802 l 258
 243.896 630.918 221.226 631.929 201 631.971 c 258
 187.201 631.999 l 257
482 494 m 258
 482 51 l 258
 482 19.9502 464.854 0 436 0 c 258
 86 0 l 258
 56.432 0 38 13.2377 38 44 c 258
 38 179.4 l 258
 38 218.525 55.333 231.667 68 239 c 257
 4 239 l 257
 4 271.195 l 257
 245 271.195 l 257
 245 342 l 258
 245 367.802 232.912 374.999 213 374.999 c 258
 41 374.999 l 257
 41 407 l 257
 222 407 l 258
 262.938 407 282 384.43 282 346 c 258
 282 239 l 257
 161 239 l 258
 97.3271 239 75.6035 215.835 75.6035 173.4 c 258
 75.6035 56.2012 l 258
 75.6035 40.0146 79.3342 32 100 32 c 258
 422.799 32 l 258
 438.525 32 444.802 40.8086 444.802 60 c 258
 444.802 456.215 l 257
 196 456.215 l 258
 162.711 456.215 150.217 467.187 150.217 503.601 c 258
 150.217 631.998 l 257
 80.2168 631.998 l 257
 80.2168 664 l 257
 202.8 664 l 258
 233.99 664 252.478 663.334 288 645 c 256
 288.476 644.894 412 581 412 581 c 258
 448.407 565.041 482 545.567 482 494 c 258
EndSplineSet
EndChar

StartChar: si_Ee
Encoding: 111 3474 111
GlifName: si_E_e
Width: 534
VWidth: 0
GlyphClass: 2
Flags: W
LayerCount: 2
Back
Fore
SplineSet
444.998 708 m 257
 482 708 l 257
 482 480 l 257
 444.999 480 l 257
 444.998 708 l 257
EndSplineSet
Refer: 110 3473 N 1 0 0 1 0 0 2
EndChar

StartChar: si_FI
Encoding: 113 -1 113
GlifName: si_F_I_
Width: 564
VWidth: 0
GlyphClass: 2
Flags: W
LayerCount: 2
Back
Fore
SplineSet
22.1943 511 m 257
 22.1943 595.803 l 258
 22.1943 625.797 39.1104 640 66.1943 640 c 258
 468.997 640 l 258
 494.33 640 509.997 628.565 509.997 597 c 258
 509.997 511 l 257
 472.996 511 l 257
 472.996 587 l 258
 472.996 599.878 467.831 608.006 452.997 608.006 c 258
 77.2041 608.006 l 258
 64.0898 608.006 59 600 59 588 c 258
 59 511 l 257
 22.1943 511 l 257
EndSplineSet
Refer: 121 3526 N 1 0 0 1 0 0 2
EndChar

StartChar: si_FIi
Encoding: 114 -1 114
GlifName: si_F_I_i
Width: 564
VWidth: 0
GlyphClass: 2
Flags: W
LayerCount: 2
Back
Fore
SplineSet
324.001 608 m 258
 314.001 608 309.001 604 309.001 596 c 258
 309.001 567.009 l 258
 309.001 558.342 310.334 554.009 321.001 554.009 c 258
 459.001 554.009 l 258
 469.668 554.009 471.001 558.676 471.001 568.009 c 258
 471.001 592.196 l 258
 471.001 602.605 465.334 608 454.001 608 c 258
 324.001 608 l 258
79.4072 608.008 m 258
 67.96 608.008 60.0059 602 60.0059 590 c 258
 60.0059 511 l 257
 23.2002 511 l 257
 23.2002 595.803 l 258
 23.2002 625.797 40.8115 640.011 68.0059 640.011 c 258
 466.001 640.012 l 258
 493.801 640.012 508 626.66 508 600 c 258
 508 552.005 l 258
 508 532.009 497.998 522.005 478 522.005 c 258
 299.598 522.003 l 258
 276.322 522.003 271.798 532.311 271.798 548.009 c 258
 271.798 600 l 258
 271.798 604.531 272.615 607.009 274.197 608 c 257
 79.4072 608.008 l 258
EndSplineSet
Refer: 121 3526 N 1 0 0 1 0 0 2
EndChar

StartChar: si_FR.halant
Encoding: 115 -1 115
GlifName: si_F_R_.halant
Width: 564
VWidth: 0
GlyphClass: 2
Flags: W
LayerCount: 2
Back
Fore
SplineSet
23.1924 -21 m 257
 59.998 -21 l 257
 59.998 -98 l 258
 59.998 -110 65.0879 -118.006 78.2021 -118.006 c 258
 453 -118.006 l 258
 467.834 -118.006 472.999 -109.878 472.999 -97 c 258
 472.999 -21 l 257
 510 -21 l 257
 510 -107 l 258
 510 -138.565 494.333 -150 469 -150 c 258
 67.1924 -150 l 258
 40.1084 -150 23.1924 -135.797 23.1924 -105.803 c 258
 23.1924 -21 l 257
EndSplineSet
Refer: 157 3530 N 1 0 0 1 555.6 0 2
Refer: 121 3526 N 1 0 0 1 0 0 2
EndChar

StartChar: si_FRI
Encoding: 116 -1 116
GlifName: si_F_R_I_
Width: 564
VWidth: 0
GlyphClass: 2
Flags: W
LayerCount: 2
Back
Fore
SplineSet
23.1924 -21 m 257
 59.998 -21 l 257
 59.998 -98 l 258
 59.998 -110 65.0879 -118.006 78.2021 -118.006 c 258
 453 -118.006 l 258
 467.834 -118.006 472.999 -109.878 472.999 -97 c 258
 472.999 -21 l 257
 510 -21 l 257
 510 -107 l 258
 510 -138.565 494.333 -150 469 -150 c 258
 67.1924 -150 l 258
 40.1084 -150 23.1924 -135.797 23.1924 -105.803 c 258
 23.1924 -21 l 257
EndSplineSet
Refer: 113 -1 N 1 0 0 1 0 0 2
EndChar

StartChar: si_FRIi
Encoding: 117 -1 117
GlifName: si_F_R_I_i
Width: 564
VWidth: 0
GlyphClass: 2
Flags: W
LayerCount: 2
Back
Fore
SplineSet
23.1924 -21 m 257
 59.998 -21 l 257
 59.998 -98 l 258
 59.998 -110 65.0879 -118.006 78.2021 -118.006 c 258
 453 -118.006 l 258
 467.834 -118.006 472.999 -109.878 472.999 -97 c 258
 472.999 -21 l 257
 510 -21 l 257
 510 -107 l 258
 510 -138.565 494.333 -150 469 -150 c 258
 67.1924 -150 l 258
 40.1084 -150 23.1924 -135.797 23.1924 -105.803 c 258
 23.1924 -21 l 257
EndSplineSet
Refer: 114 -1 N 1 0 0 1 0 0 2
EndChar

StartChar: si_FRa
Encoding: 118 -1 118
GlifName: si_F_R_a
Width: 564
VWidth: 0
GlyphClass: 2
Flags: W
LayerCount: 2
Back
Fore
SplineSet
23.1924 -21 m 257
 59.998 -21 l 257
 59.998 -98 l 258
 59.998 -110 65.0879 -118.006 78.2021 -118.006 c 258
 453 -118.006 l 258
 467.834 -118.006 472.999 -109.878 472.999 -97 c 258
 472.999 -21 l 257
 510 -21 l 257
 510 -107 l 258
 510 -138.565 494.333 -150 469 -150 c 258
 67.1924 -150 l 258
 40.1084 -150 23.1924 -135.797 23.1924 -105.803 c 258
 23.1924 -21 l 257
EndSplineSet
Refer: 121 3526 N 1 0 0 1 0 0 2
EndChar

StartChar: si_FU
Encoding: 119 -1 119
GlifName: si_F_U_
Width: 564
VWidth: 0
GlyphClass: 2
Flags: W
LayerCount: 2
Back
Fore
SplineSet
511 -159 m 257
 24.001 -159 l 257
 24.001 -126.904 l 257
 473.912 -126.904 l 257
 473.912 28 l 257
 478.912 28 l 258
 487.374 28 505.667 38 511 64 c 257
 511 -159 l 257
EndSplineSet
Refer: 121 3526 N 1 0 0 1 0 0 2
EndChar

StartChar: si_FUu
Encoding: 120 -1 120
GlifName: si_F_U_u
Width: 564
VWidth: 0
GlyphClass: 2
Flags: W
LayerCount: 2
Back
Fore
SplineSet
511.001 -158.999 m 257
 480.199 -158.999 l 257
 474.999 -149.728 463.531 -138.132 455.803 -132.798 c 256
 445.632 -125.778 427.609 -119.993 408.799 -119.993 c 257
 333.001 -119.993 l 257
 315.343 -119.993 294.841 -127.5 282.412 -132.599 c 257
 234.804 -152.402 l 257
 219.132 -158.382 190.318 -162.805 156.007 -162.805 c 258
 71.2041 -162.805 l 258
 38.79 -162.805 23.2031 -150.575 23.2031 -122.002 c 258
 23.2031 -29.0029 l 257
 60.001 -29.0029 l 257
 60.001 -112.604 l 258
 60.001 -123.889 64.8691 -130.605 76.8057 -130.605 c 258
 161.801 -130.605 l 258
 182.77 -130.605 208.597 -127.924 232.001 -119.002 c 257
 271.207 -103.399 l 257
 284.173 -98.0723 308.601 -91.5957 330.797 -91.5957 c 257
 413.01 -91.5957 l 257
 434.702 -91.5957 454.147 -97.3721 462.409 -102.801 c 256
 468.363 -106.713 469.05 -107.64 473.797 -112.4 c 257
 473.797 35 l 257
 486.995 35 l 258
 492.563 35 507.001 49 511.001 77 c 257
 511.001 -158.999 l 257
EndSplineSet
Refer: 121 3526 N 1 0 0 1 0 0 2
EndChar

StartChar: si_Fa
Encoding: 121 3526 121
GlifName: si_F_a
Width: 564
VWidth: 0
GlyphClass: 2
Flags: W
LayerCount: 2
Back
Fore
SplineSet
306.183 32 m 257
 446.184 32 l 258
 467.947 32 473.984 45.083 473.984 67 c 258
 473.984 435 l 258
 473.984 453.413 467.526 465 448.184 465 c 258
 324.184 465 l 258
 290.649 465 285.182 428.667 285.182 412 c 258
 285.182 167 l 257
 248.183 167 l 257
 248.183 411.403 l 258
 248.183 429.561 241.404 465 211.184 465 c 258
 86 465 l 258
 70.0301 465 59.0001 456.525 59 435 c 258
 58.999 66.2002 l 258
 58.999 44.0713 64.5114 32 84 32 c 258
 225.183 32 l 257
 225.183 0 l 257
 73 0 l 258
 36.858 0 22 26.7744 22 62 c 258
 22 440.999 l 258
 22 467.418 37.9722 496.999 76.4004 496.999 c 258
 211.384 497 l 258
 248.262 497 261.396 485.666 267.396 462.999 c 257
 273.396 485.666 289.517 497 325.184 497 c 258
 457.184 497 l 258
 484.36 497 511 482.14 511 445 c 258
 511 61 l 258
 511 21.3643 487.592 0 457.184 0 c 258
 306.183 0 l 257
 306.183 32 l 257
EndSplineSet
EndChar

StartChar: si_GDha
Encoding: 124 -1 124
GlifName: si_G_D_ha
Width: 886
VWidth: 0
GlyphClass: 2
Flags: W
LayerCount: 2
Back
Fore
SplineSet
22 441.999 m 258
 22 478.666 40.333 496.999 77 496.999 c 258
 185.997 497 l 257
 185.997 465 l 257
 88.8066 464.999 l 258
 65.917 464.999 59.0039 459.096 59.0039 435.999 c 258
 59 59.8008 l 258
 59 40.5879 62.9168 32 82 32 c 258
 246.997 32 l 258
 274.132 32 283.583 37.6572 283.583 64 c 258
 283.583 231.996 l 258
 283.583 245.996 279.144 252.996 264.997 252.996 c 258
 218.583 252.996 l 257
 252.583 446 l 258
 258.583 480 282.583 497 324.583 497 c 258
 470.977 497 l 257
 470.999 465 l 257
 328.997 465 l 258
 300.491 465 290.479 454.047 286.997 435 c 258
 259.575 285 l 257
 283.583 285 l 258
 308.25 285 320.583 270.667 320.583 242 c 258
 320.583 60 l 258
 320.583 12.6074 301.183 0 253.583 0 c 258
 70 0 l 258
 33.3613 0 22 19.0518 22 56 c 258
 22 441.999 l 258
EndSplineSet
Refer: 106 3504 N 1 0 0 1 375 0 2
EndChar

StartChar: si_Ga
Encoding: 133 3484 133
GlifName: si_G_a
Width: 590
VWidth: 0
GlyphClass: 2
Flags: W
LayerCount: 2
Back
Fore
SplineSet
185.997 497 m 257
 185.997 465 l 257
 88.8066 464.999 l 258
 65.917 464.999 59.0039 459.096 59.0039 435.999 c 258
 59 59.8008 l 258
 59 40.5879 62.9168 32 82 32 c 258
 246.997 32 l 258
 274.132 32 283.583 37.6572 283.583 64 c 258
 283.583 231.996 l 258
 283.583 245.996 279.144 252.996 264.997 252.996 c 258
 218.583 252.996 l 257
 252.583 446 l 258
 258.583 480 282.583 497 324.583 497 c 258
 470.977 497 l 258
 517.2 497 537.977 479.952 537.977 434 c 258
 537.977 63 l 258
 537.977 12.3447 514.431 -4.8318e-15 474.977 0 c 258
 385.984 0 l 257
 385.984 32 l 257
 466 32 l 258
 494.082 32 500.977 40.2386 500.977 72 c 258
 500.977 426 l 258
 500.977 454.593 491.914 465 462 465 c 258
 328.997 465 l 258
 300.491 465 290.479 454.047 286.997 435 c 258
 259.575 285 l 257
 283.583 285 l 258
 308.25 285 320.583 270.667 320.583 242 c 258
 320.583 60 l 258
 320.583 12.6074 301.183 0 253.583 0 c 258
 70 0 l 258
 33.3613 0 22 19.0518 22 56 c 258
 22 441.999 l 258
 22 478.666 40.333 496.999 77 496.999 c 258
 185.997 497 l 257
EndSplineSet
EndChar

StartChar: si_Gh.halant
Encoding: 135 -1 135
GlifName: si_G_h.halant
Width: 562
VWidth: 0
GlyphClass: 2
Flags: W
LayerCount: 2
Back
Fore
SplineSet
472.2 492 m 257
 472.2 649 l 257
 508.99 649 l 257
 508.99 468 l 257
 506.624 473.675 500.386 478.213 493 485 c 256
 489.79 487.949 480.329 492 474.6 492 c 258
 472.2 492 l 257
EndSplineSet
Refer: 144 3485 N 1 0 0 1 0 0 2
EndChar

StartChar: si_GhI
Encoding: 136 -1 136
GlifName: si_G_hI_
Width: 562
VWidth: 0
GlyphClass: 2
Flags: W
LayerCount: 2
Back
Fore
SplineSet
22.1943 511 m 257
 22.1943 595.803 l 258
 22.1943 625.797 39.1104 640 66.1943 640 c 258
 466 640 l 258
 491.332 640 507 628.565 507 597 c 258
 507 511 l 257
 469.999 511 l 257
 469.999 587 l 258
 469.999 599.878 464.834 608.006 450 608.006 c 258
 77.2041 608.006 l 258
 64.0898 608.006 59 600 59 588 c 258
 59 511 l 257
 22.1943 511 l 257
EndSplineSet
Refer: 144 3485 N 1 0 0 1 0 0 2
EndChar

StartChar: si_GhIi
Encoding: 137 -1 137
GlifName: si_G_hI_i
Width: 562
VWidth: 0
GlyphClass: 2
Flags: W
LayerCount: 2
Back
Fore
SplineSet
324.808 608 m 258
 314.808 608 309.808 604 309.808 596 c 258
 309.808 556 l 258
 309.808 547.333 311.141 543 321.808 543 c 258
 459.808 543 l 258
 470.475 543 471.808 547.667 471.808 557 c 258
 471.808 592.196 l 258
 471.808 602.605 466.141 608 454.808 608 c 258
 324.808 608 l 258
78.2012 608.008 m 258
 66.7539 608.008 59 602 59 590 c 258
 59 511 l 257
 22.1943 511 l 257
 22.1943 595.803 l 258
 22.1943 625.797 39.8057 640.011 67 640.011 c 258
 466.808 640.012 l 258
 494.607 640.012 508.807 626.66 508.807 600 c 258
 508.807 540.996 l 258
 508.807 521 498.805 510.996 478.807 510.996 c 258
 300.404 510.994 l 258
 277.129 510.994 272.604 521.302 272.604 537 c 258
 272.604 600 l 258
 272.604 604.531 273.422 607.009 275.004 608 c 257
 78.2012 608.008 l 258
EndSplineSet
Refer: 144 3485 N 1 0 0 1 0 0 2
EndChar

StartChar: si_GhR.halant
Encoding: 138 -1 138
GlifName: si_G_hR_.halant
Width: 562
VWidth: 0
GlyphClass: 2
Flags: W
LayerCount: 2
Back
Fore
SplineSet
327.22 0 m 258
 305 0 276.219 14.0518 276.219 48 c 258
 276.219 96.1982 l 258
 276.219 112.593 288.333 123.617 300.735 134 c 256
 322.78 152.454 323.62 153 323.82 169.601 c 258
 323.813 188.805 l 258
 323.811 196.472 319 198 312.218 198.001 c 258
 264.622 198.001 l 257
 217.402 198.001 l 258
 211 198.001 205.809 196.472 205.807 188.805 c 258
 205.8 169.601 l 258
 206 153 206.84 152.455 228.885 134 c 256
 241.287 123.617 253.401 112.592 253.401 96.1982 c 258
 253.401 48 l 258
 253.401 14.0518 224.566 0 202.4 0 c 258
 72 0 l 258
 34.9717 0 22 16.2734 22 54 c 258
 22 266 l 258
 22 286.835 29.918 309.935 51 322 c 257
 60.1592 335.616 61.9033 353 78 353 c 258
 207.374 353 l 257
 207.374 435 l 258
 207.374 457.979 194.638 465 171.374 465 c 258
 23 465 l 257
 23 497 l 257
 181.374 497 l 258
 222.707 497 243.374 478 243.374 440 c 258
 243.374 321 l 257
 126.574 321 l 258
 72.2764 321 59 288 58.875 252 c 258
 59 55.8926 l 258
 59.0098 39.9639 66 32 78.4941 32 c 258
 187.402 32 l 258
 213.992 32 216.372 43.0811 216.398 66.1943 c 258
 216.421 87.6016 l 258
 216.241 100.832 211.12 105.235 197.62 117 c 256
 175.792 136.022 168.785 139.123 168.785 157.202 c 258
 168.785 202 l 258
 168.785 217.999 179 230.003 194.793 230.003 c 258
 264.622 230.003 l 257
 334.827 230.003 l 258
 351 230 360.835 217.999 360.835 202 c 258
 360.835 157.202 l 258
 360.835 139.123 353.828 136.022 332 117 c 256
 318.5 105.235 313.379 100.832 313.199 87.6016 c 258
 313.222 66.1943 l 258
 313.248 43.0811 316 32 342.218 32 c 258
 453.506 32 l 258
 466 32 473 39.9639 473 55.8926 c 258
 473 300.207 l 258
 473 313.324 463.408 321 450.008 321 c 258
 290.226 321 l 257
 290.226 440 l 258
 290.226 478 310.898 497 352.226 497 c 258
 509 497 l 257
 509 465 l 257
 362.226 465 l 258
 338.964 465 326.226 457.98 326.226 435 c 258
 326.226 353 l 257
 454 353 l 258
 491.333 353 510 334.667 510 298 c 258
 510 54 l 258
 510 16.2705 497 0 460 0 c 258
 327.22 0 l 258
22.1943 -21 m 257
 22.1943 -105.803 l 258
 22.1943 -135.797 39.1104 -150 66.1943 -150 c 258
 467.202 -150 l 258
 492.535 -150 508.202 -138.565 508.202 -107 c 258
 508.202 -21 l 257
 471.201 -21 l 257
 471.201 -97 l 258
 471.201 -109.878 466.036 -118.006 451.202 -118.006 c 258
 77.2041 -118.006 l 258
 64.0898 -118.006 59 -110 59 -98 c 258
 59 -21 l 257
 22.1943 -21 l 257
472.2 492 m 257
 472.2 649 l 257
 508.99 649 l 257
 508.99 468 l 257
 506.624 473.675 500.386 478.213 493 485 c 256
 489.79 487.949 480.329 492 474.6 492 c 258
 472.2 492 l 257
-6 352.938 m 257
 130.574 352.938 l 257
 130.574 321 l 257
 -6 321 l 257
 -6 352.938 l 257
EndSplineSet
EndChar

StartChar: si_GhRI
Encoding: 139 -1 139
GlifName: si_G_hR_I_
Width: 562
VWidth: 0
GlyphClass: 2
Flags: W
LayerCount: 2
Back
Fore
SplineSet
22.1943 -21 m 257
 22.1943 -105.803 l 258
 22.1943 -135.797 39.1104 -150 66.1943 -150 c 258
 467.202 -150 l 258
 492.535 -150 508.202 -138.565 508.202 -107 c 258
 508.202 -21 l 257
 471.201 -21 l 257
 471.201 -97 l 258
 471.201 -109.878 466.036 -118.006 451.202 -118.006 c 258
 77.2041 -118.006 l 258
 64.0898 -118.006 59 -110 59 -98 c 258
 59 -21 l 257
 22.1943 -21 l 257
EndSplineSet
Refer: 136 -1 N 1 0 0 1 0 0 2
EndChar

StartChar: si_GhRIi
Encoding: 140 -1 140
GlifName: si_G_hR_I_i
Width: 677
VWidth: 0
GlyphClass: 2
Flags: W
LayerCount: 2
Back
Fore
SplineSet
22.1943 -21 m 257
 22.1943 -105.803 l 258
 22.1943 -135.797 39.1104 -150 66.1943 -150 c 258
 467.202 -150 l 258
 492.535 -150 508.202 -138.565 508.202 -107 c 258
 508.202 -21 l 257
 471.201 -21 l 257
 471.201 -97 l 258
 471.201 -109.878 466.036 -118.006 451.202 -118.006 c 258
 77.2041 -118.006 l 258
 64.0898 -118.006 59 -110 59 -98 c 258
 59 -21 l 257
 22.1943 -21 l 257
EndSplineSet
Refer: 137 -1 N 1 0 0 1 0 0 2
EndChar

StartChar: si_GhRa
Encoding: 141 -1 141
GlifName: si_G_hR_a
Width: 562
VWidth: 0
GlyphClass: 2
Flags: W
LayerCount: 2
Back
Fore
SplineSet
22.1943 -21 m 257
 22.1943 -105.803 l 258
 22.1943 -135.797 39.1104 -150 66.1943 -150 c 258
 467.202 -150 l 258
 492.535 -150 508.202 -138.565 508.202 -107 c 258
 508.202 -21 l 257
 471.201 -21 l 257
 471.201 -97 l 258
 471.201 -109.878 466.036 -118.006 451.202 -118.006 c 258
 77.2041 -118.006 l 258
 64.0898 -118.006 59 -110 59 -98 c 258
 59 -21 l 257
 22.1943 -21 l 257
EndSplineSet
Refer: 144 3485 N 1 0 0 1 0 0 2
EndChar

StartChar: si_GhU
Encoding: 142 -1 142
GlifName: si_G_hU_
Width: 562
VWidth: 0
GlyphClass: 2
Flags: W
LayerCount: 2
Back
Fore
SplineSet
510.004 -159 m 257
 22 -159 l 257
 22 -126.904 l 257
 472.916 -126.904 l 257
 472.916 28 l 257
 477.916 28 l 258
 486.378 28 504.671 38 510.004 64 c 257
 510.004 -159 l 257
EndSplineSet
Refer: 144 3485 N 1 0 0 1 0 0 2
EndChar

StartChar: si_GhUu
Encoding: 143 -1 143
GlifName: si_G_hU_u
Width: 562
VWidth: 0
GlyphClass: 2
Flags: W
LayerCount: 2
Back
Fore
SplineSet
510 -158.999 m 257
 479.198 -158.999 l 257
 473.998 -149.728 462.53 -138.132 454.802 -132.798 c 256
 444.631 -125.778 426.608 -119.993 407.798 -119.993 c 257
 325 -119.993 l 257
 307.342 -119.993 286.84 -127.5 274.411 -132.599 c 257
 226.803 -152.402 l 257
 211.131 -158.382 182.317 -162.805 148.006 -162.805 c 258
 70.2031 -162.805 l 258
 37.7891 -162.805 22.2021 -150.575 22.2021 -122.002 c 258
 22.2021 -29.0029 l 257
 59 -29.0029 l 257
 59 -112.604 l 258
 59 -123.889 63.8682 -130.605 75.8047 -130.605 c 258
 153.8 -130.605 l 258
 174.769 -130.605 200.596 -127.924 224 -119.002 c 257
 263.206 -103.399 l 257
 276.172 -98.0723 300.6 -91.5957 322.796 -91.5957 c 257
 412.009 -91.5957 l 257
 433.701 -91.5957 453.146 -97.3721 461.408 -102.801 c 256
 467.362 -106.713 468.049 -107.64 472.796 -112.4 c 257
 472.796 35 l 257
 485.994 35 l 258
 491.562 35 506 49 510 77 c 257
 510 -158.999 l 257
EndSplineSet
Refer: 144 3485 N 1 0 0 1 0 0 2
EndChar

StartChar: si_Gha
Encoding: 144 3485 144
GlifName: si_G_ha
Width: 576
VWidth: 0
GlyphClass: 2
Flags: W
LayerCount: 2
Back
Fore
SplineSet
327.22 0 m 258
 305 0 276.219 14.0518 276.219 48 c 258
 276.219 96.1982 l 258
 276.219 112.593 288.333 123.617 300.735 134 c 256
 322.78 152.454 323.62 153 323.82 169.601 c 258
 323.813 188.805 l 258
 323.811 196.472 319 198 312.218 198.001 c 258
 264.622 198.001 l 257
 217.402 198.001 l 258
 211 198.001 205.809 196.472 205.807 188.805 c 258
 205.8 169.601 l 258
 206 153 206.84 152.455 228.885 134 c 256
 241.287 123.617 253.401 112.592 253.401 96.1982 c 258
 253.401 48 l 258
 253.401 14.0518 224.566 0 202.4 0 c 258
 72 0 l 258
 34.9721 0 22 16.273 22 54 c 258
 22 266 l 258
 22 286.835 29.9175 309.935 51 322 c 257
 60.1592 335.616 61.9033 353 78 353 c 258
 207.374 353 l 257
 207.374 435 l 258
 207.374 457.979 194.638 465 171.374 465 c 258
 23 465 l 257
 23 497 l 257
 181.374 497 l 258
 222.707 497 243.374 478 243.374 440 c 258
 243.374 321 l 257
 126.574 321 l 258
 72.2768 321 59 288 58.875 252 c 258
 59 55.8926 l 258
 59.0102 39.9642 66 32 78.4941 32 c 258
 187.402 32 l 258
 213.992 32 216.372 43.0811 216.398 66.1943 c 258
 216.421 87.6016 l 258
 216.241 100.832 211.12 105.235 197.62 117 c 256
 175.792 136.022 168.785 139.123 168.785 157.202 c 258
 168.785 202 l 258
 168.785 217.999 179 230.003 194.793 230.003 c 258
 264.622 230.003 l 257
 334.827 230.003 l 258
 351 230 360.835 217.999 360.835 202 c 258
 360.835 157.202 l 258
 360.835 139.123 353.828 136.022 332 117 c 256
 318.5 105.235 313.379 100.832 313.199 87.6016 c 258
 313.222 66.1943 l 258
 313.248 43.0811 316 32 342.218 32 c 258
 453.506 32 l 258
 466 32 473 39.9639 473 55.8926 c 258
 473 300.207 l 258
 473 313.324 463.408 321 450.008 321 c 258
 290.226 321 l 257
 290.226 440 l 258
 290.226 478 310.898 497 352.226 497 c 258
 509 497 l 257
 509 465 l 257
 362.226 465 l 258
 338.964 465 326.226 457.98 326.226 435 c 258
 326.226 353 l 257
 454 353 l 258
 491.333 353 510 334.667 510 298 c 258
 510 54 l 258
 510 16.2705 497 -4.53119e-15 460 0 c 258
 327.22 0 l 258
-6 352.938 m 257
 130.574 352.938 l 257
 130.574 321 l 257
 -6 321 l 257
 -6 352.938 l 257
EndSplineSet
EndChar

StartChar: si_HRI
Encoding: 150 -1 150
GlifName: si_H_R_I_
Width: 590
VWidth: 0
GlyphClass: 2
Flags: W
LayerCount: 2
Back
Fore
SplineSet
33.9941 510 m 257
 33.9941 594.803 l 258
 33.9941 624.797 50.9102 639 77.9941 639 c 258
 486.8 639 l 258
 512.133 639 527.8 627.565 527.8 596 c 258
 527.8 510 l 257
 490.799 510 l 257
 490.799 586 l 258
 490.799 598.878 485.634 607.006 470.8 607.006 c 258
 89.0039 607.006 l 258
 75.8896 607.006 70.7998 599 70.7998 587 c 258
 70.7998 510 l 257
 33.9941 510 l 257
59 59.6006 m 258
 59 40.3877 62.917 32 82 32 c 258
 250 32 l 258
 277.134 32 286.586 37.6572 286.586 64 c 258
 286.586 231.996 l 258
 286.586 245.996 282.146 252.996 268 252.996 c 258
 221.586 252.996 l 257
 255.586 446 l 258
 261.586 480 285.586 497 327.586 497 c 258
 470.977 497 l 258
 517.2 497 537.977 479.952 537.977 434 c 258
 537.977 64 l 258
 537.977 15.29 517.683 -0 474.977 0 c 258
 385.984 0 l 257
 385.984 32 l 257
 469.277 32 l 258
 493.839 32 500.977 41.8623 500.977 68.9014 c 258
 500.977 426 l 258
 500.977 454.593 491.914 465 462 465 c 258
 332 465 l 258
 303.494 465 293.482 454.047 290 435 c 258
 262.578 285 l 257
 286.586 285 l 258
 311.253 285 323.586 270.667 323.586 242 c 258
 323.586 60 l 258
 323.586 12.6074 304.186 0 256.586 0 c 258
 70 0 l 258
 37.0674 0 22 15.2021 22 51 c 258
 22 298 l 258
 22 334.667 40.333 353 77 353 c 258
 148.79 353 l 257
 148.79 423.798 l 258
 148.79 455.255 137.001 464.999 108.789 464.999 c 258
 22 464.999 l 257
 22 497 l 257
 119.79 497 l 258
 163.79 497 185.79 475 185.79 431 c 258
 185.79 321 l 257
 88.8066 321 l 258
 65.917 321 59.0039 315.097 59.0039 292 c 258
 59 59.6006 l 258
EndSplineSet
Refer: 401 -1 N 1 0 0 1 594.8 0 2
EndChar

StartChar: si_HU
Encoding: 153 -1 153
GlifName: si_H_U_
Width: 590
VWidth: 0
GlyphClass: 2
Flags: W
LayerCount: 2
Back
Fore
SplineSet
537.999 -159 m 257
 24.7969 -159 l 257
 24.7969 -126.904 l 257
 500.911 -126.904 l 257
 500.911 35.8076 l 257
 505.911 35.8076 l 258
 514.373 35.8076 532.666 45.8076 537.999 71.8076 c 257
 537.999 -159 l 257
EndSplineSet
Refer: 155 3524 N 1 0 0 1 0 0 2
EndChar

StartChar: si_HUu
Encoding: 154 -1 154
GlifName: si_H_U_u
Width: 590
VWidth: 0
GlyphClass: 2
Flags: W
LayerCount: 2
Back
Fore
SplineSet
538 -158.999 m 257
 507.198 -158.999 l 257
 501.998 -149.728 490.53 -138.132 482.802 -132.798 c 256
 472.631 -125.778 454.608 -119.993 435.798 -119.993 c 257
 342 -119.993 l 257
 324.342 -119.993 303.84 -127.5 291.411 -132.599 c 257
 243.803 -152.402 l 257
 228.131 -158.382 199.317 -162.805 165.006 -162.805 c 258
 71 -162.805 l 258
 38.5859 -162.805 22.999 -150.575 22.999 -122.002 c 258
 22.999 -29.0029 l 257
 59.7969 -29.0029 l 257
 59.7969 -112.604 l 258
 59.7969 -123.889 64.665 -130.605 76.6016 -130.605 c 258
 170.8 -130.605 l 258
 191.769 -130.605 217.596 -127.924 241 -119.002 c 257
 280.206 -103.399 l 257
 293.172 -98.0723 317.6 -91.5957 339.796 -91.5957 c 257
 440.009 -91.5957 l 257
 461.701 -91.5957 481.146 -97.3721 489.408 -102.801 c 256
 495.362 -106.713 496.049 -107.64 500.796 -112.4 c 257
 500.796 35 l 257
 513.994 35 l 258
 519.562 35 534 49 538 77 c 257
 538 -158.999 l 257
EndSplineSet
Refer: 155 3524 N 1 0 0 1 0 0 2
EndChar

StartChar: si_Ha
Encoding: 155 3524 155
GlifName: si_H_a
Width: 590
VWidth: 0
GlyphClass: 2
Flags: W
LayerCount: 2
Back
Fore
SplineSet
59 59.6006 m 258
 59 40.3877 62.9168 32 82 32 c 258
 250 32 l 258
 277.134 32 286.586 37.6574 286.586 64 c 258
 286.586 231.996 l 258
 286.586 245.996 282.146 252.996 268 252.996 c 258
 221.586 252.996 l 257
 255.586 446 l 258
 261.586 480 285.586 497 327.586 497 c 258
 470.977 497 l 258
 517.2 497 537.977 479.952 537.977 434 c 258
 537.977 64 l 258
 537.977 15.29 517.683 -5.23006e-15 474.977 0 c 258
 385.984 0 l 257
 385.984 32 l 257
 469.277 32 l 258
 493.839 32 500.977 41.8621 500.977 68.9014 c 258
 500.977 426 l 258
 500.977 454.593 491.914 465 462 465 c 258
 332 465 l 258
 303.494 465 293.482 454.047 290 435 c 258
 262.578 285 l 257
 286.586 285 l 258
 311.253 285 323.586 270.667 323.586 242 c 258
 323.586 60 l 258
 323.586 12.6075 304.186 0 256.586 0 c 258
 70 0 l 258
 37.0673 0 22 15.2025 22 51 c 258
 22 298 l 258
 22 334.667 40.333 353 77 353 c 258
 148.79 353 l 257
 148.79 423.798 l 258
 148.79 455.255 137.001 464.999 108.789 464.999 c 258
 22 464.999 l 257
 22 497 l 257
 119.79 497 l 258
 163.79 497 185.79 475 185.79 431 c 258
 185.79 321 l 257
 88.8066 321 l 258
 65.917 321 59.0043 315.097 59.0039 292 c 258
 59 59.6006 l 258
EndSplineSet
EndChar

StartChar: si_Halant
Encoding: 157 3530 157
GlifName: si_H_alant
Width: 2
VWidth: 0
GlyphClass: 2
Flags: W
LayerCount: 2
Back
Fore
SplineSet
-81.3994 492 m 257
 -81.3994 649 l 257
 -44.6094 649 l 257
 -44.6094 438 l 257
 -46.9756 443.675 -53.3994 463.086 -58 472 c 256
 -62.0003 479.751 -73.2705 492 -79 492 c 258
 -81.3994 492 l 257
EndSplineSet
EndChar

StartChar: si_I
Encoding: 158 3465 158
GlifName: si_I_
Width: 519
VWidth: 0
GlyphClass: 2
Flags: W
LayerCount: 2
Back
Fore
SplineSet
256.194 346 m 257
 256.194 206 l 258
 256.194 172.077 236.188 156 202.997 156 c 258
 78 156 l 258
 41.2403 156 22 172.981 22 210 c 258
 22 442 l 258
 22 476.486 43.9779 497 83.001 497 c 258
 402.999 497 l 258
 446.528 497 464 474.966 464 442 c 258
 464 74 l 258
 464 41.9434 457.174 22.3848 431.602 14.7959 c 257
 445.67 6.18652 447 -8 447 -32 c 258
 447 -99.0049 l 258
 447 -141.628 429.967 -159.005 390.999 -159.005 c 258
 46.2031 -159.005 l 257
 46.2031 -126.999 l 257
 380.999 -126.999 l 258
 400.75 -126.999 409.999 -123.379 409.999 -101.999 c 258
 409.999 -30 l 258
 409.999 -14.9248 402.912 0 376.999 0 c 258
 47.001 0.000976562 l 257
 47.001 32.001 l 257
 365.199 32 l 258
 409.102 32 426.999 38.6924 426.999 75 c 258
 426.999 437 l 258
 426.999 459.172 415.634 465 394.999 465 c 258
 94 465 l 258
 69.7105 465 59 457.363 59 437 c 258
 59 218.4 l 258
 59 197.798 61.5199 188 91.3984 188 c 258
 197.194 188 l 258
 216.434 188 218.998 199.84 218.998 217 c 258
 218.998 346 l 257
 256.194 346 l 257
EndSplineSet
EndChar

StartChar: si_Ii
Encoding: 159 3466 159
GlifName: si_I_i
Width: 451
VWidth: 0
GlyphClass: 2
Flags: W
LayerCount: 2
Back
Fore
SplineSet
22 48.2002 m 258
 22 11.8604 38.2246 0 67.6016 0 c 258
 338.799 0 l 258
 389.644 0 394 32.0947 394 61 c 258
 394 438 l 258
 394 473.887 375.534 497 332.999 497 c 258
 116.598 497.001 l 257
 316 663.001 l 257
 264 663.001 l 257
 63.001 498.001 l 258
 36.7941 476.488 22 459.123 22 430 c 258
 22 48.2002 l 258
59 417 m 258
 59 450.111 75.001 465 99.001 465 c 258
 320.999 464.998 l 258
 346.579 464.998 358.8 456.101 358.8 424 c 258
 358.8 64.1963 l 258
 358.8 34.2881 350.604 32 332.206 32 c 258
 95.2012 32.001 l 258
 61.7314 32.0011 59 36.6553 59 70.7959 c 258
 59 417 l 258
71.9961 663.001 m 257
 123.996 663.001 l 257
 123.996 609.001 l 257
 71.9961 609.001 l 257
 71.9961 663.001 l 257
313 593.001 m 257
 365 593.001 l 257
 365 539.001 l 257
 313 539.001 l 257
 313 593.001 l 257
EndSplineSet
EndChar

StartChar: si_J.halant
Encoding: 160 -1 160
GlifName: si_J_.halant
Width: 512
VWidth: 0
GlyphClass: 2
Flags: W
LayerCount: 2
Back
Fore
SplineSet
74.002 0 m 258
 37 0 22 16.2734 22 54 c 258
 22 298 l 258
 22 334.667 40.667 353 78 353 c 258
 180.798 353 l 257
 180.798 431 l 258
 180.798 455.331 170.863 465 144.798 465 c 258
 23 465 l 257
 23 497 l 257
 155.999 497 l 258
 197.332 497 217.999 478 217.999 440 c 258
 217.999 321 l 257
 90 321 l 258
 68.8457 321 59 313.66 59 290 c 258
 59 62 l 258
 59 42.4551 63 32 84.002 32 c 258
 84.002 32 398.998 32 398.998 32 c 258
 420 32 424 42.4551 424 62 c 258
 424 290 l 258
 424 313.659 414.154 321 393 321 c 258
 265.001 321 l 257
 265.001 440 l 258
 265.001 478 285.668 497 327.001 497 c 258
 460 497 l 257
 460 465 l 257
 338.202 465 l 258
 312.137 465 302.202 455.331 302.202 431 c 258
 302.202 353 l 257
 405 353 l 258
 442.333 353 461 334.667 461 298 c 258
 461 54 l 258
 461 16.2734 446 0 408.998 0 c 258
 408.998 0 74.002 0 74.002 0 c 258
344.2 489.2 m 257
 289.799 489.2 l 257
 302.102 496.046 308.926 498.246 337 524 c 258
 461 643 l 257
 510.999 643 l 257
 385.199 521 l 258
 364.927 501.559 352.787 493.183 344.2 489.2 c 257
265.005 435.988 m 257
 265.005 649 l 257
 302.195 649 l 257
 302.195 421 l 257
 296.289 426.786 275.184 435.988 265.005 435.988 c 257
EndSplineSet
EndChar

StartChar: si_JI
Encoding: 161 -1 161
GlifName: si_J_I_
Width: 512
VWidth: 0
GlyphClass: 2
Flags: W
LayerCount: 2
Back
Fore
SplineSet
40 511.604 m 257
 77.002 511.604 l 257
 77.002 581 l 258
 77.002 603.366 89.4218 610.998 111 610.998 c 258
 380 610.998 l 257
 416 642.99 l 257
 98.7979 642.989 l 258
 68.6699 642.989 40 624.453 40 590.99 c 258
 40 511.604 l 257
EndSplineSet
Refer: 169 3490 N 1 0 0 1 0 0 2
EndChar

StartChar: si_JIi
Encoding: 162 -1 162
GlifName: si_J_I_i
Width: 512
VWidth: 0
GlyphClass: 2
Flags: W
LayerCount: 2
Back
Fore
SplineSet
211.626 601 m 258
 211.626 568 l 258
 211.626 561.115 214.417 557.199 224.653 557.199 c 258
 273.653 557.199 l 258
 286.08 557.199 286.652 562.695 286.652 570 c 258
 286.652 594 l 258
 286.652 604.651 283.767 612.24 271.653 612.24 c 258
 225 612.24 l 258
 214.658 612.24 211.626 605.667 211.626 601 c 258
292 525 m 258
 197.653 525 l 258
 184.461 525 174.653 531.492 174.653 548 c 258
 174.653 605 l 258
 174.653 608 175.965 611.22 177.653 613.201 c 257
 98 613.201 l 258
 83.1412 613.201 77.002 604 77.002 592 c 258
 77.002 507 l 257
 40 507 l 257
 40 600.792 l 258
 40 625.454 61.7109 644.792 86 644.792 c 258
 279.653 644.792 l 258
 305.085 644.792 323.718 631.85 323.842 599 c 258
 324 557 l 258
 324 540 311.09 525 292 525 c 258
EndSplineSet
Refer: 169 3490 N 1 0 0 1 0 0 2
EndChar

StartChar: si_JR.halant
Encoding: 163 -1 163
GlifName: si_J_R_.halant
Width: 512
VWidth: 0
GlyphClass: 2
Flags: W
LayerCount: 2
Back
Fore
SplineSet
74.002 0 m 258
 37 0 22 16.2734 22 54 c 258
 22 298 l 258
 22 334.667 40.667 353 78 353 c 258
 180.798 353 l 257
 180.798 431 l 258
 180.798 455.331 170.863 465 144.798 465 c 258
 23 465 l 257
 23 497 l 257
 155.999 497 l 258
 197.332 497 217.999 478 217.999 440 c 258
 217.999 321 l 257
 90 321 l 258
 68.8457 321 59 313.66 59 290 c 258
 59 62 l 258
 59 42.4551 63 32 84.002 32 c 258
 84.002 32 398.998 32 398.998 32 c 258
 420 32 424 42.4551 424 62 c 258
 424 290 l 258
 424 313.659 414.154 321 393 321 c 258
 265.001 321 l 257
 265.001 440 l 258
 265.001 478 285.668 497 327.001 497 c 258
 460 497 l 257
 460 465 l 257
 338.202 465 l 258
 312.137 465 302.202 455.331 302.202 431 c 258
 302.202 353 l 257
 405 353 l 258
 442.333 353 461 334.667 461 298 c 258
 461 54 l 258
 461 16.2734 446 0 408.998 0 c 258
 408.998 0 74.002 0 74.002 0 c 258
22.1943 -21 m 257
 22.1943 -105.803 l 258
 22.1943 -135.797 39.1104 -150 66.1943 -150 c 258
 418.803 -150 l 258
 444.136 -150 459.803 -138.565 459.803 -107 c 258
 459.803 -21 l 257
 422.802 -21 l 257
 422.802 -97 l 258
 422.802 -109.878 417.637 -118.006 402.803 -118.006 c 258
 77.2041 -118.006 l 258
 64.0898 -118.006 59 -110 59 -98 c 258
 59 -21 l 257
 22.1943 -21 l 257
344.2 489.2 m 257
 289.799 489.2 l 257
 302.102 496.046 308.926 498.246 337 524 c 258
 461 643 l 257
 510.999 643 l 257
 385.199 521 l 258
 364.927 501.559 352.787 493.183 344.2 489.2 c 257
265.005 435.988 m 257
 265.005 649 l 257
 302.195 649 l 257
 302.195 421 l 257
 296.289 426.786 275.184 435.988 265.005 435.988 c 257
EndSplineSet
EndChar

StartChar: si_JRI
Encoding: 164 -1 164
GlifName: si_J_R_I_
Width: 512
VWidth: 0
GlyphClass: 2
Flags: W
LayerCount: 2
Back
Fore
SplineSet
398.998 32 m 258
 420 32 424 42.4551 424 62 c 258
 424 290 l 258
 424 313.659 414.154 321 393 321 c 258
 265.001 321 l 257
 265.001 440 l 258
 265.001 478 285.668 497 327.001 497 c 258
 460 497 l 257
 460 465 l 257
 338.202 465 l 258
 312.137 465 302.202 455.331 302.202 431 c 258
 302.202 353 l 257
 405 353 l 258
 442.333 353 461 334.667 461 298 c 258
 461 54 l 258
 461 16.2734 446 0 408.998 0 c 258
 408.998 0 74.002 0 74.002 0 c 258
 37 0 22 16.2734 22 54 c 258
 22 298 l 258
 22 334.667 40.667 353 78 353 c 258
 180.798 353 l 257
 180.798 431 l 258
 180.798 455.331 170.863 465 144.798 465 c 258
 23 465 l 257
 23 497 l 257
 155.999 497 l 258
 197.332 497 217.999 478 217.999 440 c 258
 217.999 321 l 257
 90 321 l 258
 68.8457 321 59 313.66 59 290 c 258
 59 62 l 258
 59 42.4551 63 32 84.002 32 c 258
 84.002 32 398.998 32 398.998 32 c 258
22.1943 -21 m 257
 22.1943 -105.803 l 258
 22.1943 -135.797 39.1104 -150 66.1943 -150 c 258
 418.803 -150 l 258
 444.136 -150 459.803 -138.565 459.803 -107 c 258
 459.803 -21 l 257
 422.802 -21 l 257
 422.802 -97 l 258
 422.802 -109.878 417.637 -118.006 402.803 -118.006 c 258
 77.2041 -118.006 l 258
 64.0898 -118.006 59 -110 59 -98 c 258
 59 -21 l 257
 22.1943 -21 l 257
40 511.604 m 257
 77.002 511.604 l 257
 77.002 581 l 258
 77.002 603.366 89.4219 610.998 111 610.998 c 258
 380 610.998 l 257
 416 642.99 l 257
 98.7979 642.989 l 258
 68.6699 642.989 40 624.453 40 590.99 c 258
 40 511.604 l 257
344.2 489.2 m 257
 289.799 489.2 l 257
 302.102 496.046 308.926 498.246 337 524 c 258
 461 643 l 257
 510.999 643 l 257
 385.199 521 l 258
 364.927 501.559 352.787 493.183 344.2 489.2 c 257
EndSplineSet
EndChar

StartChar: si_JRIi
Encoding: 165 -1 165
GlifName: si_J_R_I_i
Width: 512
VWidth: 0
GlyphClass: 2
Flags: W
LayerCount: 2
Back
Fore
SplineSet
398.998 32 m 258
 420 32 424 42.4551 424 62 c 258
 424 290 l 258
 424 313.659 414.154 321 393 321 c 258
 265.001 321 l 257
 265.001 440 l 258
 265.001 478 285.668 497 327.001 497 c 258
 460 497 l 257
 460 465 l 257
 338.202 465 l 258
 312.137 465 302.202 455.331 302.202 431 c 258
 302.202 353 l 257
 405 353 l 258
 442.333 353 461 334.667 461 298 c 258
 461 54 l 258
 461 16.2734 446 0 408.998 0 c 258
 408.998 0 74.002 0 74.002 0 c 258
 37 0 22 16.2734 22 54 c 258
 22 298 l 258
 22 334.667 40.667 353 78 353 c 258
 180.798 353 l 257
 180.798 431 l 258
 180.798 455.331 170.863 465 144.798 465 c 258
 23 465 l 257
 23 497 l 257
 155.999 497 l 258
 197.332 497 217.999 478 217.999 440 c 258
 217.999 321 l 257
 90 321 l 258
 68.8457 321 59 313.66 59 290 c 258
 59 62 l 258
 59 42.4551 63 32 84.002 32 c 258
 84.002 32 398.998 32 398.998 32 c 258
292 525 m 258
 197.653 525 l 258
 184.461 525 174.653 531.492 174.653 548 c 258
 174.653 605 l 258
 174.653 608 175.965 611.22 177.653 613.201 c 257
 98 613.201 l 258
 83.1416 613.201 77.002 604 77.002 592 c 258
 77.002 507 l 257
 40 507 l 257
 40 600.792 l 258
 40 625.454 61.7109 644.792 86 644.792 c 258
 279.653 644.792 l 258
 305.085 644.792 323.718 631.85 323.842 599 c 258
 324 557 l 258
 324 540 311.09 525 292 525 c 258
22.1943 -21 m 257
 22.1943 -105.803 l 258
 22.1943 -135.797 39.1104 -150 66.1943 -150 c 258
 418.803 -150 l 258
 444.136 -150 459.803 -138.565 459.803 -107 c 258
 459.803 -21 l 257
 422.802 -21 l 257
 422.802 -97 l 258
 422.802 -109.878 417.637 -118.006 402.803 -118.006 c 258
 77.2041 -118.006 l 258
 64.0898 -118.006 59 -110 59 -98 c 258
 59 -21 l 257
 22.1943 -21 l 257
211.626 601 m 258
 211.626 568 l 258
 211.626 561.115 214.417 557.199 224.653 557.199 c 258
 273.653 557.199 l 258
 286.08 557.199 286.652 562.695 286.652 570 c 258
 286.652 594 l 258
 286.652 604.651 283.767 612.24 271.653 612.24 c 258
 225 612.24 l 258
 214.658 612.24 211.626 605.667 211.626 601 c 258
344.2 489.2 m 257
 289.799 489.2 l 257
 302.102 496.046 308.926 498.246 337 524 c 258
 461 643 l 257
 510.999 643 l 257
 385.199 521 l 258
 364.927 501.559 352.787 493.183 344.2 489.2 c 257
EndSplineSet
EndChar

StartChar: si_JRa
Encoding: 166 -1 166
GlifName: si_J_R_a
Width: 512
VWidth: 0
GlyphClass: 2
Flags: W
LayerCount: 2
Back
Fore
SplineSet
22.1943 -21 m 257
 22.1943 -105.803 l 258
 22.1943 -135.797 39.1104 -150 66.1943 -150 c 258
 418.803 -150 l 258
 444.136 -150 459.803 -138.565 459.803 -107 c 258
 459.803 -21 l 257
 422.802 -21 l 257
 422.802 -97 l 258
 422.802 -109.878 417.637 -118.006 402.803 -118.006 c 258
 77.2041 -118.006 l 258
 64.0898 -118.006 59 -110 59 -98 c 258
 59 -21 l 257
 22.1943 -21 l 257
EndSplineSet
Refer: 169 3490 N 1 0 0 1 0 0 2
EndChar

StartChar: si_Ja
Encoding: 169 3490 169
GlifName: si_J_a
Width: 512
VWidth: 0
GlyphClass: 2
Flags: W
LayerCount: 2
Back
Fore
SplineSet
398.998 32 m 258
 420 32 424 42.4551 424 62 c 258
 424 290 l 258
 424 313.659 414.154 321 393 321 c 258
 265.001 321 l 257
 265.001 440 l 258
 265.001 478 285.668 497 327.001 497 c 258
 460 497 l 257
 460 465 l 257
 338.202 465 l 258
 312.137 465 302.202 455.331 302.202 431 c 258
 302.202 353 l 257
 405 353 l 258
 442.333 353 461 334.667 461 298 c 258
 461 54 l 258
 461 16.2734 446 0 408.998 0 c 258
 408.998 0 74.002 0 74.002 0 c 258
 37 0 22 16.273 22 54 c 258
 22 298 l 258
 22 334.667 40.6667 353 78 353 c 258
 180.798 353 l 257
 180.798 431 l 258
 180.798 455.331 170.863 465 144.798 465 c 258
 23 465 l 257
 23 497 l 257
 155.999 497 l 258
 197.332 497 217.999 478 217.999 440 c 258
 217.999 321 l 257
 90 321 l 258
 68.8454 321 59 313.66 59 290 c 258
 59 62 l 258
 59 42.4553 63 32 84.002 32 c 258
 84.002 32 398.998 32 398.998 32 c 258
344.2 489.2 m 257
 289.799 489.2 l 257
 302.102 496.046 308.926 498.246 337 524 c 258
 461 643 l 257
 510.999 643 l 257
 385.199 521 l 258
 364.927 501.559 352.787 493.183 344.2 489.2 c 257
EndSplineSet
EndChar

StartChar: si_Ja.reph
Encoding: 170 -1 170
GlifName: si_J_a.reph
Width: 512
VWidth: 0
GlyphClass: 2
Flags: W
LayerCount: 2
Back
Fore
SplineSet
159.997 621.401 m 257
 198 621.401 l 257
 198 555.401 l 258
 198 528.224 186.509 518.401 167 518.401 c 258
 63 518.401 l 258
 36.5303 518.401 23 532.297 23 564.401 c 258
 23 662.401 l 258
 23 691.139 40.249 710.401 77 710.401 c 258
 273 710.401 l 258
 306.445 710.401 324 693.58 324 654.401 c 258
 324 521.401 l 257
 287.002 521.401 l 257
 287.002 650 l 258
 287.002 669.777 280.771 678.398 267 678.398 c 258
 82 678.398 l 258
 69.3994 678.398 60.0078 672.095 60.0078 657 c 258
 60.0078 570 l 258
 60.0078 557.327 63.248 549.792 75 549.792 c 258
 147.206 549.792 l 258
 158.471 549.792 159.997 555.125 159.997 565.792 c 258
 159.997 621.401 l 257
EndSplineSet
Refer: 169 3490 N 1 0 0 1 0 0 2
EndChar

StartChar: si_Jh.halant
Encoding: 171 -1 171
GlifName: si_J_h.halant
Width: 915
VWidth: 0
GlyphClass: 2
Flags: W
LayerCount: 2
Back
Fore
SplineSet
872 400 m 257
 834.6 400 l 257
 834.6 465 l 258
 834.6 505.98 822.364 518 787 518 c 258
 426 518 l 257
 426 550 l 257
 494 550 l 257
 464.667 557.333 462 582.667 462 604 c 258
 462 632 l 258
 462 659.333 478.333 673 511 673 c 258
 870 673 l 257
 870 641 l 257
 514.5 641 l 258
 499.531 641 499 633.667 499 616 c 256
 499 573.678 509.397 550 580 550 c 258
 795 550 l 258
 855.379 550 872 528.468 872 469 c 258
 872 400 l 257
871.974 428 m 257
 871.974 50 l 258
 871.974 19.6377 858.372 0 824.976 0 c 258
 700.79 0 l 258
 674.79 0 658.456 12.333 651.79 37 c 257
 648.616 16.3779 628.06 0 604.79 0 c 258
 479.999 0 l 258
 448.608 0 432.999 15.0176 432.999 48 c 258
 432.999 345.003 l 258
 432.999 383.558 451.02 410.003 491.999 410.003 c 258
 658.185 410.003 l 257
 658.186 377.805 l 257
 503.999 377.805 l 258
 477.386 377.805 469.999 363.44 469.999 342.003 c 258
 469.999 58 l 258
 469.999 42.2285 473.955 32 492.999 32 c 258
 586.987 32 l 258
 626.116 32 632.987 65.5215 632.987 100.802 c 258
 632.987 229 l 257
 670.187 229 l 257
 670.187 101 l 258
 670.187 66.165 679.266 32 720.987 32 c 258
 812.976 32 l 258
 829.902 32 834.581 43.6895 834.581 60 c 258
 834.581 428 l 257
 871.974 428 l 257
330.994 307.809 m 258
 330.994 326.779 321.033 332.809 305.994 332.809 c 258
 163 332.81 l 257
 71.2031 256 l 257
 97.9844 256 l 257
 97.9844 228.2 l 257
 63.915 209.638 58.9844 193.123 58.9844 146.014 c 258
 58.9844 56 l 258
 58.9844 38.667 64.6309 32 79.3838 32 c 258
 133.798 32 l 258
 173.903 32 176.197 61.5811 176.197 94 c 258
 176.197 188 l 257
 213.398 188.003 l 257
 213.398 94 l 258
 213.398 61.5684 213.902 32 251.798 32 c 258
 305 32 l 258
 326.589 32 330.994 46.001 330.994 64 c 258
 330.994 307.809 l 258
12 224.8 m 257
 12 252.991 l 257
 156.992 374.211 l 257
 156.831 430 l 258
 156.777 454.001 150.944 465 128 465 c 258
 38 465 l 257
 38 497.001 l 257
 147.195 497 l 258
 175.434 497 192.909 477.275 192.947 440.799 c 258
 192.995 404.206 l 257
 254.396 450.802 l 258
 286.163 474.908 319.588 481 344 481 c 256
 358.344 481 382.51 480.872 413 473 c 258
 657 410 l 257
 530 408 l 257
 412 438 l 258
 383.766 445.178 355.663 446.379 344.204 446.379 c 256
 323.862 446.379 295.398 436.958 273 419.802 c 258
 201.205 364.81 l 257
 320.994 364.809 l 258
 346.368 364.809 367.994 350.017 367.994 315.809 c 258
 367.994 52.999 l 258
 367.994 19.4961 344.573 -0.000976562 316.81 -0.000976562 c 258
 230.997 0 l 258
 212.04 0 198.664 9.66699 193.997 29.001 c 257
 189.33 9.66699 172.689 0 154.997 0 c 258
 66.9844 0 l 258
 38.4756 0 21.9844 19.7461 21.9844 46 c 258
 21.9844 156.011 l 258
 21.9844 198.781 29.9258 215.78 44.7832 224.8 c 257
 12 224.8 l 257
EndSplineSet
EndChar

StartChar: si_JhI
Encoding: 172 -1 172
GlifName: si_J_hI_
Width: 916
VWidth: 0
GlyphClass: 2
Flags: W
LayerCount: 2
Back
Fore
SplineSet
12 252.991 m 257
 156.992 374.211 l 257
 156.831 430 l 258
 156.777 454.001 150.944 465 128 465 c 258
 38 465 l 257
 38 497.001 l 257
 147.195 497 l 258
 175.434 497 192.909 477.275 192.947 440.799 c 258
 192.995 404.206 l 257
 254.396 450.802 l 258
 286.163 474.908 319.588 481 344 481 c 256
 358.344 481 382.51 480.872 413 473 c 258
 657 410 l 257
 530 408 l 257
 412 438 l 258
 383.766 445.178 355.663 446.379 344.204 446.379 c 256
 323.862 446.379 295.398 436.958 273 419.802 c 258
 201.205 364.81 l 257
 320.994 364.809 l 258
 346.368 364.809 367.994 350.017 367.994 315.809 c 258
 367.994 52.999 l 258
 367.994 19.4961 344.573 -0.000976562 316.81 -0.000976562 c 258
 230.997 0 l 258
 212.04 0 198.664 9.66699 193.997 29.001 c 257
 189.33 9.66699 172.689 0 154.997 0 c 258
 66.9844 0 l 258
 38.4756 0 21.9844 19.7461 21.9844 46 c 258
 21.9844 156.011 l 258
 21.9844 198.781 29.9258 215.78 44.7832 224.8 c 257
 12 224.8 l 257
 12 252.991 l 257
872.975 428 m 257
 872.975 50 l 258
 872.975 19.6377 859.373 0 825.977 0 c 258
 701.791 0 l 258
 675.791 0 659.457 12.333 652.791 37 c 257
 649.617 16.3779 629.061 0 605.791 0 c 258
 481 0 l 258
 449.609 0 434 15.0176 434 48 c 258
 434 345.003 l 258
 434 383.558 452.021 410.003 493 410.003 c 258
 659.186 410.003 l 257
 659.187 377.805 l 257
 505 377.805 l 258
 478.387 377.805 471 363.44 471 342.003 c 258
 471 58 l 258
 471 42.2285 474.956 32 494 32 c 258
 587.988 32 l 258
 627.117 32 633.988 65.5215 633.988 100.802 c 258
 633.988 229 l 257
 671.188 229 l 257
 671.188 101 l 258
 671.188 66.165 680.267 32 721.988 32 c 258
 813.977 32 l 258
 830.903 32 835.582 43.6895 835.582 60 c 258
 835.582 428 l 257
 872.975 428 l 257
330.994 307.809 m 258
 330.994 326.779 321.033 332.809 305.994 332.809 c 258
 163 332.81 l 257
 71.2031 256 l 257
 97.9844 256 l 257
 97.9844 228.2 l 257
 63.915 209.638 58.9844 193.123 58.9844 146.014 c 258
 58.9844 56 l 258
 58.9844 38.667 64.6309 32 79.3838 32 c 258
 133.798 32 l 258
 173.903 32 176.197 61.5811 176.197 94 c 258
 176.197 188 l 257
 213.398 188.003 l 257
 213.398 94 l 258
 213.398 61.5684 213.902 32 251.798 32 c 258
 305 32 l 258
 326.589 32 330.994 46.001 330.994 64 c 258
 330.994 307.809 l 258
873.001 400 m 257
 835.601 400 l 257
 835.601 476 l 258
 835.601 487.69 833.983 496.065 829.224 501.518 c 256
 824.465 506.97 816.564 509.5 804.001 509.5 c 258
 482.001 509.5 l 258
 450.668 509.5 435.001 525.5 435.001 557.5 c 258
 435.001 620 l 258
 435.001 636.707 438.527 649.707 446.54 658.531 c 256
 454.553 667.354 467.053 672 485.001 672 c 258
 871.501 672 l 257
 871.501 640 l 257
 497.001 640 l 258
 476.084 640 471.876 635.559 471.876 611 c 258
 471.876 566 l 258
 471.876 552.489 473.434 541.5 496.001 541.5 c 258
 804.001 541.5 l 258
 832.408 541.5 849.658 537.146 859.806 525.532 c 256
 869.955 513.918 873.001 495.043 873.001 466 c 258
 873.001 400 l 257
EndSplineSet
EndChar

StartChar: si_JhIi
Encoding: 173 -1 173
GlifName: si_J_hI_i
Width: 915
VWidth: 0
GlyphClass: 2
Flags: W
LayerCount: 2
Back
Fore
SplineSet
834.601 405 m 257
 834.601 479.5 l 258
 834.601 497.69 817.684 509.5 799.001 509.5 c 258
 477.001 509.5 l 258
 447.158 509.5 434.001 518.271 434.001 550.5 c 258
 434.001 618 l 258
 434.001 654.859 447.411 672 484.001 672 c 258
 822.001 672 l 258
 858.589 672 872.001 654.858 872.001 618 c 258
 872.001 570 l 258
 872.001 547.838 862.688 532.87 845.001 528 c 257
 866.912 521.152 872.001 504.274 872.001 475 c 258
 872.001 405 l 257
 834.601 405 l 257
684.001 539 m 257
 672.919 542.512 666.001 550.292 666.001 567 c 258
 666.001 621 l 258
 666.001 633.107 672.502 638.25 676.001 640 c 257
 675.854 640 487.876 640 487.876 640 c 258
 476.543 640 470.876 635.333 470.876 626 c 258
 470.876 554 l 258
 470.876 544 476.209 539 486.876 539 c 258
 684.001 539 l 257
727.001 640 m 258
 711.451 640 703.001 630.698 703.001 616 c 258
 703.001 570.5 l 258
 703.001 551.602 719.268 545.5 736.501 545.5 c 258
 799.001 545.5 l 258
 815.346 545.5 835.001 550.393 835.001 577 c 258
 835.001 627.5 l 258
 835.001 636.697 827.694 640 820.501 640 c 258
 727.001 640 l 258
871.975 428 m 257
 871.975 50 l 258
 871.975 19.6377 858.373 0 824.977 0 c 258
 700.791 0 l 258
 674.791 0 658.457 12.333 651.791 37 c 257
 648.617 16.3779 628.061 0 604.791 0 c 258
 480 0 l 258
 448.609 0 433 15.0176 433 48 c 258
 433 345.003 l 258
 433 383.558 451.021 410.003 492 410.003 c 258
 658.186 410.003 l 257
 658.187 377.805 l 257
 504 377.805 l 258
 477.387 377.805 470 363.44 470 342.003 c 258
 470 58 l 258
 470 42.2285 473.956 32 493 32 c 258
 586.988 32 l 258
 626.117 32 632.988 65.5215 632.988 100.802 c 258
 632.988 229 l 257
 670.188 229 l 257
 670.188 101 l 258
 670.188 66.165 679.267 32 720.988 32 c 258
 812.977 32 l 258
 829.903 32 834.582 43.6895 834.582 60 c 258
 834.582 428 l 257
 871.975 428 l 257
330.994 307.809 m 258
 330.994 326.779 321.033 332.809 305.994 332.809 c 258
 163 332.81 l 257
 71.2031 256 l 257
 97.9844 256 l 257
 97.9844 228.2 l 257
 63.915 209.638 58.9844 193.123 58.9844 146.014 c 258
 58.9844 56 l 258
 58.9844 38.667 64.6309 32 79.3838 32 c 258
 133.798 32 l 258
 173.903 32 176.197 61.5811 176.197 94 c 258
 176.197 188 l 257
 213.398 188.003 l 257
 213.398 94 l 258
 213.398 61.5684 213.902 32 251.798 32 c 258
 305 32 l 258
 326.589 32 330.994 46.001 330.994 64 c 258
 330.994 307.809 l 258
12 252.991 m 257
 156.992 374.211 l 257
 156.831 430 l 258
 156.777 454.001 150.944 465 128 465 c 258
 38 465 l 257
 38 497.001 l 257
 147.195 497 l 258
 175.434 497 192.909 477.275 192.947 440.799 c 258
 192.995 404.206 l 257
 254.396 450.802 l 258
 286.163 474.908 319.588 481 344 481 c 256
 358.344 481 382.51 480.872 413 473 c 258
 657 410 l 257
 530 408 l 257
 412 438 l 258
 383.766 445.178 355.663 446.379 344.204 446.379 c 256
 323.862 446.379 295.398 436.958 273 419.802 c 258
 201.205 364.81 l 257
 320.994 364.809 l 258
 346.368 364.809 367.994 350.017 367.994 315.809 c 258
 367.994 52.999 l 258
 367.994 19.4961 344.573 -0.000976562 316.81 -0.000976562 c 258
 230.997 0 l 258
 212.04 0 198.664 9.66699 193.997 29.001 c 257
 189.33 9.66699 172.689 0 154.997 0 c 258
 66.9844 0 l 258
 38.4756 0 21.9844 19.7461 21.9844 46 c 258
 21.9844 156.011 l 258
 21.9844 198.781 29.9258 215.78 44.7832 224.8 c 257
 12 224.8 l 257
 12 252.991 l 257
EndSplineSet
EndChar

StartChar: si_JhR.halant
Encoding: 174 -1 174
GlifName: si_J_hR_.halant
Width: 915
VWidth: 0
GlyphClass: 2
Flags: W
LayerCount: 2
Back
Fore
SplineSet
433.395 -21 m 257
 433.395 -105.803 l 258
 433.395 -135.797 450.311 -150 477.395 -150 c 258
 830.792 -150 l 258
 856.125 -150 871.792 -138.565 871.792 -107 c 258
 871.792 -21 l 257
 834.791 -21 l 257
 834.791 -97 l 258
 834.791 -109.878 829.626 -118.006 814.792 -118.006 c 258
 488.404 -118.006 l 258
 475.29 -118.006 470.2 -110 470.2 -98 c 258
 470.2 -21 l 257
 433.395 -21 l 257
872 400 m 257
 834.6 400 l 257
 834.6 465 l 258
 834.6 505.98 822.364 518 787 518 c 258
 426 518 l 257
 426 550 l 257
 494 550 l 257
 464.667 557.333 462 582.667 462 604 c 258
 462 632 l 258
 462 659.333 478.333 673 511 673 c 258
 870 673 l 257
 870 641 l 257
 514.5 641 l 258
 499.531 641 499 633.667 499 616 c 256
 499 573.678 509.397 550 580 550 c 258
 795 550 l 258
 855.379 550 872 528.468 872 469 c 258
 872 400 l 257
871.974 428 m 257
 871.974 50 l 258
 871.974 19.6377 858.372 0 824.976 0 c 258
 700.79 0 l 258
 674.79 0 658.456 12.333 651.79 37 c 257
 648.616 16.3779 628.06 0 604.79 0 c 258
 479.999 0 l 258
 448.608 0 432.999 15.0176 432.999 48 c 258
 432.999 345.003 l 258
 432.999 383.558 451.02 410.003 491.999 410.003 c 258
 658.185 410.003 l 257
 658.186 377.805 l 257
 503.999 377.805 l 258
 477.386 377.805 469.999 363.44 469.999 342.003 c 258
 469.999 58 l 258
 469.999 42.2285 473.955 32 492.999 32 c 258
 586.987 32 l 258
 626.116 32 632.987 65.5215 632.987 100.802 c 258
 632.987 229 l 257
 670.187 229 l 257
 670.187 101 l 258
 670.187 66.165 679.266 32 720.987 32 c 258
 812.976 32 l 258
 829.902 32 834.581 43.6895 834.581 60 c 258
 834.581 428 l 257
 871.974 428 l 257
330.994 307.809 m 258
 330.994 326.779 321.033 332.809 305.994 332.809 c 258
 163 332.81 l 257
 71.2031 256 l 257
 97.9844 256 l 257
 97.9844 228.2 l 257
 63.915 209.638 58.9844 193.123 58.9844 146.014 c 258
 58.9844 56 l 258
 58.9844 38.667 64.6309 32 79.3838 32 c 258
 133.798 32 l 258
 173.903 32 176.197 61.5811 176.197 94 c 258
 176.197 188 l 257
 213.398 188.003 l 257
 213.398 94 l 258
 213.398 61.5684 213.902 32 251.798 32 c 258
 305 32 l 258
 326.589 32 330.994 46.001 330.994 64 c 258
 330.994 307.809 l 258
12 224.8 m 257
 12 252.991 l 257
 156.992 374.211 l 257
 156.831 430 l 258
 156.777 454.001 150.944 465 128 465 c 258
 38 465 l 257
 38 497.001 l 257
 147.195 497 l 258
 175.434 497 192.909 477.275 192.947 440.799 c 258
 192.995 404.206 l 257
 254.396 450.802 l 258
 286.163 474.908 319.588 481 344 481 c 256
 358.344 481 382.51 480.872 413 473 c 258
 657 410 l 257
 530 408 l 257
 412 438 l 258
 383.766 445.178 355.663 446.379 344.204 446.379 c 256
 323.862 446.379 295.398 436.958 273 419.802 c 258
 201.205 364.81 l 257
 320.994 364.809 l 258
 346.368 364.809 367.994 350.017 367.994 315.809 c 258
 367.994 52.999 l 258
 367.994 19.4961 344.573 -0.000976562 316.81 -0.000976562 c 258
 230.997 0 l 258
 212.04 0 198.664 9.66699 193.997 29.001 c 257
 189.33 9.66699 172.689 0 154.997 0 c 258
 66.9844 0 l 258
 38.4756 0 21.9844 19.7461 21.9844 46 c 258
 21.9844 156.011 l 258
 21.9844 198.781 29.9258 215.78 44.7832 224.8 c 257
 12 224.8 l 257
EndSplineSet
EndChar

StartChar: si_JhRI
Encoding: 175 -1 175
GlifName: si_J_hR_I_
Width: 916
VWidth: 0
GlyphClass: 2
Flags: W
LayerCount: 2
Back
Fore
SplineSet
433.395 -21 m 257
 433.395 -105.803 l 258
 433.395 -135.797 450.311 -150 477.395 -150 c 258
 830.792 -150 l 258
 856.125 -150 871.792 -138.565 871.792 -107 c 258
 871.792 -21 l 257
 834.791 -21 l 257
 834.791 -97 l 258
 834.791 -109.878 829.626 -118.006 814.792 -118.006 c 258
 488.404 -118.006 l 258
 475.29 -118.006 470.2 -110 470.2 -98 c 258
 470.2 -21 l 257
 433.395 -21 l 257
EndSplineSet
Refer: 172 -1 N 1 0 0 1 0 0 2
EndChar

StartChar: si_JhRIi
Encoding: 176 -1 176
GlifName: si_J_hR_I_i
Width: 915
VWidth: 0
GlyphClass: 2
Flags: W
LayerCount: 2
Back
Fore
SplineSet
433.395 -21 m 257
 433.395 -105.803 l 258
 433.395 -135.797 450.311 -150 477.395 -150 c 258
 830.792 -150 l 258
 856.125 -150 871.792 -138.565 871.792 -107 c 258
 871.792 -21 l 257
 834.791 -21 l 257
 834.791 -97 l 258
 834.791 -109.878 829.626 -118.006 814.792 -118.006 c 258
 488.404 -118.006 l 258
 475.29 -118.006 470.2 -110 470.2 -98 c 258
 470.2 -21 l 257
 433.395 -21 l 257
EndSplineSet
Refer: 173 -1 N 1 0 0 1 0 0 2
EndChar

StartChar: si_JhRa
Encoding: 177 -1 177
GlifName: si_J_hR_a
Width: 915
VWidth: 0
GlyphClass: 2
Flags: W
LayerCount: 2
Back
Fore
SplineSet
433.395 -21 m 257
 433.395 -105.803 l 258
 433.395 -135.797 450.311 -150 477.395 -150 c 258
 830.792 -150 l 258
 856.125 -150 871.792 -138.565 871.792 -107 c 258
 871.792 -21 l 257
 834.791 -21 l 257
 834.791 -97 l 258
 834.791 -109.878 829.626 -118.006 814.792 -118.006 c 258
 488.404 -118.006 l 258
 475.29 -118.006 470.2 -110 470.2 -98 c 258
 470.2 -21 l 257
 433.395 -21 l 257
EndSplineSet
Refer: 182 3491 N 1 0 0 1 0 0 2
EndChar

StartChar: si_JhU.reph
Encoding: 179 -1 179
GlifName: si_J_hU_.reph
Width: 1087
VWidth: 0
GlyphClass: 2
Flags: W
LayerCount: 2
Back
Fore
SplineSet
12 252.991 m 257
 156.992 374.211 l 257
 156.831 430 l 258
 156.777 454.001 150.944 465 128 465 c 258
 38 465 l 257
 38 497.001 l 257
 147.195 497 l 258
 175.434 497 192.909 477.275 192.947 440.799 c 258
 192.995 404.206 l 257
 254.396 450.802 l 258
 293.087 480.163 314.588 487.991 339 487.991 c 256
 353.344 487.991 379.003 484.749 398 482.991 c 258
 657.205 459.002 l 257
 466 440.999 l 257
 380 449.199 l 258
 364.332 450.547 351.059 451.784 339.6 451.784 c 256
 319.258 451.784 299.701 440.254 273 419.802 c 258
 201.205 364.81 l 257
 320.994 364.809 l 258
 346.368 364.809 367.994 350.017 367.994 315.809 c 258
 367.994 52.999 l 258
 367.994 19.4961 344.573 -0.000976562 316.81 -0.000976562 c 258
 230.997 0 l 258
 212.04 0 198.664 9.66699 193.997 29.001 c 257
 189.33 9.66699 172.689 0 154.997 0 c 258
 66.9844 0 l 258
 38.4756 0 21.9844 19.7461 21.9844 46 c 258
 21.9844 156.011 l 258
 21.9844 198.781 29.9258 215.78 44.7832 224.8 c 257
 12 224.8 l 257
 12 252.991 l 257
658.212 426.802 m 257
 504.025 426.802 l 258
 477.412 426.802 470.025 412.438 470.025 391 c 258
 470.025 58 l 258
 470.025 42.2285 473.981 32 493.025 32 c 258
 587.014 32 l 258
 626.143 32 633.014 65.5156 633.014 100.802 c 258
 633.014 244.796 l 257
 670.213 244.796 l 257
 670.213 101 l 258
 670.213 66.1592 679.292 32 721.014 32 c 258
 813.002 32 l 258
 829.929 32 834.607 43.6895 834.607 60 c 258
 834.607 554 l 258
 834.607 587.453 819.412 594.6 791.002 594.6 c 258
 433.026 594.6 l 257
 433.026 626 l 257
 799.002 626 l 258
 841.311 626 872 609.264 872 560 c 258
 872 50 l 258
 872 19.6377 858.398 0 825.002 0 c 258
 700.816 0 l 258
 674.816 0 658.482 12.333 651.816 37 c 257
 648.643 16.3779 628.086 0 604.816 0 c 258
 480.025 0 l 258
 448.635 0 433.025 15.0176 433.025 48 c 258
 433.025 394 l 258
 433.025 432.555 451.046 459 492.025 459 c 258
 658.211 459 l 257
 658.212 426.802 l 257
617.391 659.598 m 257
 655.394 659.598 l 257
 655.394 566 l 258
 655.394 538.822 643.902 529 624.394 529 c 258
 525 529 l 258
 498.536 529 485 542.896 485 575 c 258
 485 668.207 l 258
 485 696.944 502.249 716.207 539 716.207 c 258
 730.394 716.207 l 258
 763.839 716.207 781.394 699.386 781.394 660.207 c 258
 781.394 533.603 l 257
 744.396 533.603 l 257
 744.396 655.806 l 258
 744.396 675.583 738.165 684.204 724.394 684.204 c 258
 544 684.204 l 258
 531.399 684.204 522.008 677.9 522.008 662.806 c 258
 522.008 580.599 l 258
 522.008 567.926 525.253 560.391 537 560.391 c 258
 604.6 560.391 l 258
 615.864 560.391 617.391 565.724 617.391 576.391 c 258
 617.391 659.598 l 257
330.994 307.809 m 258
 330.994 326.779 321.033 332.809 305.994 332.809 c 258
 163 332.81 l 257
 71.2031 256 l 257
 97.9844 256 l 257
 97.9844 228.2 l 257
 63.915 209.638 58.9844 193.123 58.9844 146.014 c 258
 58.9844 56 l 258
 58.9844 38.667 64.6309 32 79.3838 32 c 258
 133.798 32 l 258
 173.903 32 176.197 61.5811 176.197 94 c 258
 176.197 188 l 257
 213.398 188.003 l 257
 213.398 94 l 258
 213.398 61.5684 213.902 32 251.798 32 c 258
 305 32 l 258
 326.589 32 330.994 46.001 330.994 64 c 258
 330.994 307.809 l 258
872 -159 m 257
 436.593 -159 l 257
 436.593 -126.904 l 257
 834.912 -126.904 l 257
 834.912 28 l 257
 839.912 28 l 258
 848.374 28 866.667 38 872 64 c 257
 872 -159 l 257
EndSplineSet
EndChar

StartChar: si_JhUu.reph
Encoding: 181 -1 181
GlifName: si_J_hU_u.reph
Width: 915
VWidth: 0
GlyphClass: 2
Flags: W
LayerCount: 2
Back
Fore
SplineSet
12 252.991 m 257
 156.992 374.211 l 257
 156.831 430 l 258
 156.777 454.001 150.944 465 128 465 c 258
 38 465 l 257
 38 497.001 l 257
 147.195 497 l 258
 175.434 497 192.909 477.275 192.947 440.799 c 258
 192.995 404.206 l 257
 254.396 450.802 l 258
 293.087 480.163 314.588 487.991 339 487.991 c 256
 353.344 487.991 379.003 484.749 398 482.991 c 258
 657.205 459.002 l 257
 466 440.999 l 257
 380 449.199 l 258
 364.332 450.547 351.059 451.784 339.6 451.784 c 256
 319.258 451.784 299.701 440.254 273 419.802 c 258
 201.205 364.81 l 257
 320.994 364.809 l 258
 346.368 364.809 367.994 350.017 367.994 315.809 c 258
 367.994 52.999 l 258
 367.994 19.4961 344.573 -0.000976562 316.81 -0.000976562 c 258
 230.997 0 l 258
 212.04 0 198.664 9.66699 193.997 29.001 c 257
 189.33 9.66699 172.689 0 154.997 0 c 258
 66.9844 0 l 258
 38.4756 0 21.9844 19.7461 21.9844 46 c 258
 21.9844 156.011 l 258
 21.9844 198.781 29.9258 215.78 44.7832 224.8 c 257
 12 224.8 l 257
 12 252.991 l 257
658.212 426.802 m 257
 504.025 426.802 l 258
 477.412 426.802 470.025 412.438 470.025 391 c 258
 470.025 58 l 258
 470.025 42.2285 473.981 32 493.025 32 c 258
 587.014 32 l 258
 626.143 32 633.014 65.5156 633.014 100.802 c 258
 633.014 244.796 l 257
 670.213 244.796 l 257
 670.213 101 l 258
 670.213 66.1592 679.292 32 721.014 32 c 258
 813.002 32 l 258
 829.929 32 834.607 43.6895 834.607 60 c 258
 834.607 554 l 258
 834.607 587.453 819.412 594.6 791.002 594.6 c 258
 433.026 594.6 l 257
 433.026 626 l 257
 799.002 626 l 258
 841.311 626 872 609.264 872 560 c 258
 872 50 l 258
 872 19.6377 858.398 0 825.002 0 c 258
 700.816 0 l 258
 674.816 0 658.482 12.333 651.816 37 c 257
 648.643 16.3779 628.086 0 604.816 0 c 258
 480.025 0 l 258
 448.635 0 433.025 15.0176 433.025 48 c 258
 433.025 394 l 258
 433.025 432.555 451.046 459 492.025 459 c 258
 658.211 459 l 257
 658.212 426.802 l 257
617.391 659.598 m 257
 655.394 659.598 l 257
 655.394 566 l 258
 655.394 538.822 643.902 529 624.394 529 c 258
 525 529 l 258
 498.536 529 485 542.896 485 575 c 258
 485 668.207 l 258
 485 696.944 502.249 716.207 539 716.207 c 258
 730.394 716.207 l 258
 763.839 716.207 781.394 699.386 781.394 660.207 c 258
 781.394 533.603 l 257
 744.396 533.603 l 257
 744.396 655.806 l 258
 744.396 675.583 738.165 684.204 724.394 684.204 c 258
 544 684.204 l 258
 531.399 684.204 522.008 677.9 522.008 662.806 c 258
 522.008 580.599 l 258
 522.008 567.926 525.253 560.391 537 560.391 c 258
 604.6 560.391 l 258
 615.864 560.391 617.391 565.724 617.391 576.391 c 258
 617.391 659.598 l 257
330.994 307.809 m 258
 330.994 326.779 321.033 332.809 305.994 332.809 c 258
 163 332.81 l 257
 71.2031 256 l 257
 97.9844 256 l 257
 97.9844 228.2 l 257
 63.915 209.638 58.9844 193.123 58.9844 146.014 c 258
 58.9844 56 l 258
 58.9844 38.667 64.6309 32 79.3838 32 c 258
 133.798 32 l 258
 173.903 32 176.197 61.5811 176.197 94 c 258
 176.197 188 l 257
 213.398 188.003 l 257
 213.398 94 l 258
 213.398 61.5684 213.902 32 251.798 32 c 258
 305 32 l 258
 326.589 32 330.994 46.001 330.994 64 c 258
 330.994 307.809 l 258
EndSplineSet
Refer: 272 3542 N 1 0 0 1 936 0 2
EndChar

StartChar: si_Jha
Encoding: 182 3491 182
GlifName: si_J_ha
Width: 915
VWidth: 0
GlyphClass: 2
Flags: W
LayerCount: 2
Back
Fore
SplineSet
12 224.8 m 257
 12 252.991 l 257
 156.992 374.211 l 257
 156.831 430 l 258
 156.777 454.001 150.944 465 128 465 c 258
 38 465 l 257
 38 497.001 l 257
 147.195 497 l 258
 175.434 497 192.909 477.275 192.947 440.799 c 258
 192.995 404.206 l 257
 254.396 450.802 l 258
 293.087 480.163 314.588 487.991 339 487.991 c 256
 353.344 487.991 379.003 484.749 398 482.991 c 258
 657.205 459.002 l 257
 466 440.999 l 257
 380 449.199 l 258
 364.332 450.547 351.059 451.784 339.6 451.784 c 256
 319.258 451.784 299.701 440.254 273 419.802 c 258
 201.205 364.81 l 257
 320.994 364.809 l 258
 346.368 364.809 367.994 350.017 367.994 315.809 c 258
 367.994 52.999 l 258
 367.994 19.4961 344.573 -0.000976562 316.81 -0.000976562 c 258
 230.997 0 l 258
 212.04 0 198.664 9.66699 193.997 29.001 c 257
 189.33 9.66699 172.689 0 154.997 0 c 258
 66.9844 0 l 258
 38.4756 0 21.9844 19.7461 21.9844 46 c 258
 21.9844 156.011 l 258
 21.9844 198.781 29.9258 215.78 44.7832 224.8 c 257
 12 224.8 l 257
330.994 307.809 m 258
 330.994 326.779 321.033 332.809 305.994 332.809 c 258
 163 332.81 l 257
 71.2031 256 l 257
 97.9844 256 l 257
 97.9844 228.2 l 257
 63.915 209.638 58.9844 193.123 58.9844 146.014 c 258
 58.9844 56 l 258
 58.9844 38.667 64.6309 32 79.3838 32 c 258
 133.798 32 l 258
 173.903 32 176.197 61.5811 176.197 94 c 258
 176.197 188 l 257
 213.398 188.003 l 257
 213.398 94 l 258
 213.398 61.5684 213.902 32 251.798 32 c 258
 305 32 l 258
 326.589 32 330.994 46.001 330.994 64 c 258
 330.994 307.809 l 258
658.212 426.802 m 257
 504.025 426.802 l 258
 477.412 426.802 470.025 412.438 470.025 391 c 258
 470.025 58 l 258
 470.025 42.2285 473.981 32 493.025 32 c 258
 587.014 32 l 258
 626.143 32 633.014 65.5156 633.014 100.802 c 258
 633.014 244.796 l 257
 670.213 244.796 l 257
 670.213 101 l 258
 670.213 66.1592 679.292 32 721.014 32 c 258
 813.002 32 l 258
 829.929 32 834.607 43.6895 834.607 60 c 258
 834.607 554 l 258
 834.607 587.453 819.412 594.6 791.002 594.6 c 258
 433.026 594.6 l 257
 433.026 626 l 257
 799.002 626 l 258
 841.311 626 872 609.264 872 560 c 258
 872 50 l 258
 872 19.6377 858.398 0 825.002 0 c 258
 700.816 0 l 258
 674.816 0 658.482 12.333 651.816 37 c 257
 648.643 16.3779 628.086 0 604.816 0 c 258
 480.025 0 l 258
 448.635 0 433.025 15.0176 433.025 48 c 258
 433.025 394 l 258
 433.025 432.555 451.046 459 492.025 459 c 258
 658.211 459 l 257
 658.212 426.802 l 257
EndSplineSet
EndChar

StartChar: si_Jha.reph
Encoding: 183 -1 183
GlifName: si_J_ha.reph
Width: 915
VWidth: 0
GlyphClass: 2
Flags: W
LayerCount: 2
Back
Fore
SplineSet
12 252.991 m 257
 156.992 374.211 l 257
 156.831 430 l 258
 156.777 454.001 150.944 465 128 465 c 258
 38 465 l 257
 38 497.001 l 257
 147.195 497 l 258
 175.434 497 192.909 477.275 192.947 440.799 c 258
 192.995 404.206 l 257
 254.396 450.802 l 258
 293.087 480.163 314.588 487.991 339 487.991 c 256
 353.344 487.991 379.003 484.749 398 482.991 c 258
 657.205 459.002 l 257
 466 440.999 l 257
 380 449.199 l 258
 364.332 450.547 351.059 451.784 339.6 451.784 c 256
 319.258 451.784 299.701 440.254 273 419.802 c 258
 201.205 364.81 l 257
 320.994 364.809 l 258
 346.368 364.809 367.994 350.017 367.994 315.809 c 258
 367.994 52.999 l 258
 367.994 19.4961 344.573 -0.000976562 316.81 -0.000976562 c 258
 230.997 0 l 258
 212.04 0 198.664 9.66699 193.997 29.001 c 257
 189.33 9.66699 172.689 0 154.997 0 c 258
 66.9844 0 l 258
 38.4756 0 21.9844 19.7461 21.9844 46 c 258
 21.9844 156.011 l 258
 21.9844 198.781 29.9258 215.78 44.7832 224.8 c 257
 12 224.8 l 257
 12 252.991 l 257
658.212 426.802 m 257
 504.025 426.802 l 258
 477.412 426.802 470.025 412.438 470.025 391 c 258
 470.025 58 l 258
 470.025 42.2285 473.981 32 493.025 32 c 258
 587.014 32 l 258
 626.143 32 633.014 65.5156 633.014 100.802 c 258
 633.014 244.796 l 257
 670.213 244.796 l 257
 670.213 101 l 258
 670.213 66.1592 679.292 32 721.014 32 c 258
 813.002 32 l 258
 829.929 32 834.607 43.6895 834.607 60 c 258
 834.607 554 l 258
 834.607 587.453 819.412 594.6 791.002 594.6 c 258
 433.026 594.6 l 257
 433.026 626 l 257
 799.002 626 l 258
 841.311 626 872 609.264 872 560 c 258
 872 50 l 258
 872 19.6377 858.398 0 825.002 0 c 258
 700.816 0 l 258
 674.816 0 658.482 12.333 651.816 37 c 257
 648.643 16.3779 628.086 0 604.816 0 c 258
 480.025 0 l 258
 448.635 0 433.025 15.0176 433.025 48 c 258
 433.025 394 l 258
 433.025 432.555 451.046 459 492.025 459 c 258
 658.211 459 l 257
 658.212 426.802 l 257
617.391 659.598 m 257
 655.394 659.598 l 257
 655.394 566 l 258
 655.394 538.822 643.902 529 624.394 529 c 258
 525 529 l 258
 498.536 529 485 542.896 485 575 c 258
 485 668.207 l 258
 485 696.944 502.249 716.207 539 716.207 c 258
 730.394 716.207 l 258
 763.839 716.207 781.394 699.386 781.394 660.207 c 258
 781.394 533.603 l 257
 744.396 533.603 l 257
 744.396 655.806 l 258
 744.396 675.583 738.165 684.204 724.394 684.204 c 258
 544 684.204 l 258
 531.399 684.204 522.008 677.9 522.008 662.806 c 258
 522.008 580.599 l 258
 522.008 567.926 525.253 560.391 537 560.391 c 258
 604.6 560.391 l 258
 615.864 560.391 617.391 565.724 617.391 576.391 c 258
 617.391 659.598 l 257
330.994 307.809 m 258
 330.994 326.779 321.033 332.809 305.994 332.809 c 258
 163 332.81 l 257
 71.2031 256 l 257
 97.9844 256 l 257
 97.9844 228.2 l 257
 63.915 209.638 58.9844 193.123 58.9844 146.014 c 258
 58.9844 56 l 258
 58.9844 38.667 64.6309 32 79.3838 32 c 258
 133.798 32 l 258
 173.903 32 176.197 61.5811 176.197 94 c 258
 176.197 188 l 257
 213.398 188.003 l 257
 213.398 94 l 258
 213.398 61.5684 213.902 32 251.798 32 c 258
 305 32 l 258
 326.589 32 330.994 46.001 330.994 64 c 258
 330.994 307.809 l 258
EndSplineSet
EndChar

StartChar: si_JnyAa
Encoding: 185 -1 185
GlifName: si_J_nyA_a
Width: 1006
VWidth: 0
GlyphClass: 2
Flags: W
LayerCount: 2
Back
Fore
SplineSet
620.023 465 m 257
 487.021 465 l 258
 458.515 465 448.503 454.047 445.021 435 c 258
 417.599 285 l 257
 441.606 285 l 258
 466.273 285 478.606 270.667 478.606 242 c 258
 478.606 60 l 258
 478.606 12.6074 459.206 0 411.606 0 c 258
 228.023 0 l 258
 191.385 0 180.023 19.0518 180.023 56 c 258
 180.023 413 l 258
 180.023 475.434 228.947 497 265.614 497 c 258
 344.021 497 l 257
 344.021 465 l 257
 269.614 465 l 258
 233.556 465 217.027 445.488 217.027 403 c 258
 217.023 59.8008 l 258
 217.023 40.5879 220.94 32 240.023 32 c 258
 405.021 32 l 258
 432.155 32 441.606 37.6572 441.606 64 c 258
 441.606 231.996 l 258
 441.606 245.996 437.167 252.996 423.021 252.996 c 258
 376.606 252.996 l 257
 410.606 446 l 258
 416.606 480 440.623 497 482.606 497 c 258
 619.999 497 l 257
 620.023 465 l 257
116.602 465 m 258
 76.8906 465 59 452.74 59 412 c 258
 59 0 l 257
 22 0 l 257
 22 424 l 258
 22 476.166 58.8513 497 105.4 497 c 258
 281.614 497 l 257
 211.614 465 l 257
 116.602 465 l 258
EndSplineSet
Refer: 49 -1 N 1 0 0 1 542 0 2
EndChar

StartChar: si_JnyAa.halant
Encoding: 186 -1 186
GlifName: si_J_nyA_a.halant
Width: 1161
VWidth: 0
GlyphClass: 2
Flags: W
LayerCount: 2
Back
Fore
SplineSet
620.023 465 m 257
 487.021 465 l 258
 458.515 465 448.503 454.047 445.021 435 c 258
 417.599 285 l 257
 441.606 285 l 258
 466.273 285 478.606 270.667 478.606 242 c 258
 478.606 60 l 258
 478.606 12.6074 459.206 0 411.606 0 c 258
 228.023 0 l 258
 191.385 0 180.023 19.0518 180.023 56 c 258
 180.023 413 l 258
 180.023 475.434 228.947 497 265.614 497 c 258
 344.021 497 l 257
 344.021 465 l 257
 269.614 465 l 258
 233.556 465 217.027 445.488 217.027 403 c 258
 217.023 59.8008 l 258
 217.023 40.5879 220.94 32 240.023 32 c 258
 405.021 32 l 258
 432.155 32 441.606 37.6572 441.606 64 c 258
 441.606 231.996 l 258
 441.606 245.996 437.167 252.996 423.021 252.996 c 258
 376.606 252.996 l 257
 410.606 446 l 258
 416.606 480 440.623 497 482.606 497 c 258
 619.999 497 l 257
 620.023 465 l 257
116.602 465 m 258
 76.8906 465 59 452.74 59 412 c 258
 59 0 l 257
 22 0 l 257
 22 424 l 258
 22 476.166 58.8513 497 105.4 497 c 258
 281.614 497 l 257
 211.614 465 l 257
 116.602 465 l 258
EndSplineSet
Refer: 50 -1 N 1 0 0 1 568 0 2
EndChar

StartChar: si_JnyAe
Encoding: 187 -1 187
GlifName: N_ameM_e.559
Width: 1071
VWidth: 0
GlyphClass: 2
Flags: W
LayerCount: 2
Back
Fore
SplineSet
620.023 465 m 257
 487.021 465 l 258
 458.515 465 448.503 454.047 445.021 435 c 258
 417.599 285 l 257
 441.606 285 l 258
 466.273 285 478.606 270.667 478.606 242 c 258
 478.606 60 l 258
 478.606 12.6074 459.206 0 411.606 0 c 258
 228.023 0 l 258
 191.385 0 180.023 19.0518 180.023 56 c 258
 180.023 413 l 258
 180.023 475.434 228.947 497 265.614 497 c 258
 344.021 497 l 257
 344.021 465 l 257
 269.614 465 l 258
 233.556 465 217.027 445.488 217.027 403 c 258
 217.023 59.8008 l 258
 217.023 40.5879 220.94 32 240.023 32 c 258
 405.021 32 l 258
 432.155 32 441.606 37.6572 441.606 64 c 258
 441.606 231.996 l 258
 441.606 245.996 437.167 252.996 423.021 252.996 c 258
 376.606 252.996 l 257
 410.606 446 l 258
 416.606 480 440.623 497 482.606 497 c 258
 619.999 497 l 257
 620.023 465 l 257
116.602 465 m 258
 76.8906 465 59 452.74 59 412 c 258
 59 0 l 257
 22 0 l 257
 22 424 l 258
 22 476.166 58.8513 497 105.4 497 c 258
 281.614 497 l 257
 211.614 465 l 257
 116.602 465 l 258
EndSplineSet
Refer: 52 -1 N 1 0 0 1 555 0 2
EndChar

StartChar: si_JnyAee
Encoding: 188 -1 188
GlifName: N_ameM_e.560
Width: 1075
VWidth: 0
GlyphClass: 2
Flags: W
LayerCount: 2
Back
Fore
SplineSet
620.023 465 m 257
 487.021 465 l 258
 458.515 465 448.503 454.047 445.021 435 c 258
 417.599 285 l 257
 441.606 285 l 258
 466.273 285 478.606 270.667 478.606 242 c 258
 478.606 60 l 258
 478.606 12.6074 459.206 0 411.606 0 c 258
 228.023 0 l 258
 191.385 0 180.023 19.0518 180.023 56 c 258
 180.023 413 l 258
 180.023 475.434 228.947 497 265.614 497 c 258
 344.021 497 l 257
 344.021 465 l 257
 269.614 465 l 258
 233.556 465 217.027 445.488 217.027 403 c 258
 217.023 59.8008 l 258
 217.023 40.5879 220.94 32 240.023 32 c 258
 405.021 32 l 258
 432.155 32 441.606 37.6572 441.606 64 c 258
 441.606 231.996 l 258
 441.606 245.996 437.167 252.996 423.021 252.996 c 258
 376.606 252.996 l 257
 410.606 446 l 258
 416.606 480 440.623 497 482.606 497 c 258
 619.999 497 l 257
 620.023 465 l 257
116.602 465 m 258
 76.8906 465 59 452.74 59 412 c 258
 59 0 l 257
 22 0 l 257
 22 424 l 258
 22 476.166 58.8513 497 105.4 497 c 258
 281.614 497 l 257
 211.614 465 l 257
 116.602 465 l 258
EndSplineSet
Refer: 51 -1 N 1 0 0 1 556 0 2
EndChar

StartChar: si_JnyI
Encoding: 189 -1 189
GlifName: si_J_nyI_
Width: 1006
VWidth: 0
GlyphClass: 2
Flags: W
LayerCount: 2
Back
Fore
SplineSet
570.194 511 m 257
 570.194 595.803 l 258
 570.194 625.797 587.11 640 614.194 640 c 258
 913 640 l 258
 938.333 640 954 628.565 954 597 c 258
 954 511 l 257
 916.999 511 l 257
 916.999 587 l 258
 916.999 599.878 911.834 608.006 897 608.006 c 258
 625.204 608.006 l 258
 612.09 608.006 607 600 607 588 c 258
 607 511 l 257
 570.194 511 l 257
EndSplineSet
Refer: 197 3493 N 1 0 0 1 0 0 2
EndChar

StartChar: si_JnyIi
Encoding: 190 -1 190
GlifName: si_J_nyI_i
Width: 1006
VWidth: 0
GlyphClass: 2
Flags: W
LayerCount: 2
Back
Fore
SplineSet
797.607 608 m 258
 787.607 608 782.607 604 782.607 596 c 258
 782.607 556 l 258
 782.607 547.333 783.94 543 794.607 543 c 258
 908.415 543 l 258
 919.082 543 920.415 547.667 920.415 557 c 258
 920.415 592.196 l 258
 920.415 602.605 914.748 608 903.415 608 c 258
 797.607 608 l 258
630.208 608.008 m 258
 620.607 607 611.607 602 611.607 590 c 258
 611.607 511 l 257
 574.802 511 l 257
 574.802 595.803 l 258
 574.802 625.797 592.413 640.011 619.607 640.011 c 258
 915.215 640.012 l 258
 943.015 640.012 957.414 626.66 957.414 600 c 258
 957.414 540.996 l 258
 957.414 521 947.412 510.996 927.414 510.996 c 258
 773.204 510.994 l 258
 749.929 510.994 745.404 521.302 745.404 537 c 258
 745.404 600 l 258
 745.404 604.531 746.222 607.009 747.804 608 c 257
 630.208 608.008 l 258
EndSplineSet
Refer: 197 3493 N 1 0 0 1 0 0 2
EndChar

StartChar: si_JnyR.halant
Encoding: 191 -1 191
GlifName: si_J_nyR_.halant
Width: 1006
VWidth: 0
GlyphClass: 2
Flags: W
LayerCount: 2
Back
Fore
SplineSet
620.023 465 m 257
 487.021 465 l 258
 458.515 465 448.503 454.047 445.021 435 c 258
 417.599 285 l 257
 441.606 285 l 258
 466.273 285 478.606 270.667 478.606 242 c 258
 478.606 60 l 258
 478.606 12.6074 459.206 0 411.606 0 c 258
 228.023 0 l 258
 191.385 0 180.023 19.0518 180.023 56 c 258
 180.023 413 l 258
 180.023 475.434 228.947 497 265.614 497 c 258
 344.021 497 l 257
 344.021 465 l 257
 269.614 465 l 258
 233.556 465 217.027 445.488 217.027 403 c 258
 217.023 59.8008 l 258
 217.023 40.5879 220.94 32 240.023 32 c 258
 405.021 32 l 258
 432.155 32 441.606 37.6572 441.606 64 c 258
 441.606 231.996 l 258
 441.606 245.996 437.167 252.996 423.021 252.996 c 258
 376.606 252.996 l 257
 410.606 446 l 258
 416.606 480 440.623 497 482.606 497 c 258
 619.999 497 l 257
 620.023 465 l 257
116.602 465 m 258
 76.8906 465 59 452.74 59 412 c 258
 59 0 l 257
 22 0 l 257
 22 424 l 258
 22 476.166 58.8513 497 105.4 497 c 258
 281.614 497 l 257
 211.614 465 l 257
 116.602 465 l 258
EndSplineSet
Refer: 157 3530 N 1 0 0 1 998.6 0 2
Refer: 64 -1 N 1 0 0 1 550 0 2
EndChar

StartChar: si_JnyRI
Encoding: 192 -1 192
GlifName: si_J_nyR_I_
Width: 1006
VWidth: 0
GlyphClass: 2
Flags: W
LayerCount: 2
Back
Fore
SplineSet
620.023 465 m 257
 487.021 465 l 258
 458.515 465 448.503 454.047 445.021 435 c 258
 417.599 285 l 257
 441.606 285 l 258
 466.273 285 478.606 270.667 478.606 242 c 258
 478.606 60 l 258
 478.606 12.6074 459.206 0 411.606 0 c 258
 228.023 0 l 258
 191.385 0 180.023 19.0518 180.023 56 c 258
 180.023 413 l 258
 180.023 475.434 228.947 497 265.614 497 c 258
 344.021 497 l 257
 344.021 465 l 257
 269.614 465 l 258
 233.556 465 217.027 445.488 217.027 403 c 258
 217.023 59.8008 l 258
 217.023 40.5879 220.94 32 240.023 32 c 258
 405.021 32 l 258
 432.155 32 441.606 37.6572 441.606 64 c 258
 441.606 231.996 l 258
 441.606 245.996 437.167 252.996 423.021 252.996 c 258
 376.606 252.996 l 257
 410.606 446 l 258
 416.606 480 440.623 497 482.606 497 c 258
 619.999 497 l 257
 620.023 465 l 257
958 0.000976562 m 257
 616.2 0 l 258
 582.2 0 572 17.9258 572 49.5996 c 258
 572 295.998 l 258
 572 336.654 593.106 352.998 630 352.998 c 258
 916.796 352.998 l 257
 916.795 436 l 258
 916.795 457.285 908.271 465 890 465 c 258
 572 465 l 257
 572 497.001 l 257
 901 497 l 258
 934.564 497 954 480.913 954 444 c 258
 954 321.001 l 257
 641 321 l 258
 616.604 321 609 311.276 609 290 c 258
 609 58.001 l 258
 609 38.1592 617.048 32 632.2 32 c 258
 958 32.001 l 257
 958 0.000976562 l 257
572.194 -21 m 257
 609 -21 l 257
 609 -98 l 258
 609 -110 614.09 -118.006 627.204 -118.006 c 258
 901.003 -118.006 l 258
 915.837 -118.006 921.002 -109.877 921.002 -97 c 258
 921.002 5 l 257
 958.003 5 l 257
 958.003 -107 l 258
 958.003 -138.563 942.336 -150 917.003 -150 c 258
 616.194 -150 l 258
 589.11 -150 572.194 -135.797 572.194 -105.803 c 258
 572.194 -21 l 257
569.194 511 m 257
 569.194 595.803 l 258
 569.194 625.797 586.11 640 613.194 640 c 258
 912 640 l 258
 937.333 640 953 628.565 953 597 c 258
 953 511 l 257
 915.999 511 l 257
 915.999 587 l 258
 915.999 599.878 910.834 608.006 896 608.006 c 258
 624.204 608.006 l 258
 611.09 608.006 606 600 606 588 c 258
 606 511 l 257
 569.194 511 l 257
116.602 465 m 258
 76.8906 465 59 452.74 59 412 c 258
 59 0 l 257
 22 0 l 257
 22 424 l 258
 22 476.166 58.8513 497 105.4 497 c 258
 281.614 497 l 257
 211.614 465 l 257
 116.602 465 l 258
EndSplineSet
EndChar

StartChar: si_JnyRIi
Encoding: 193 -1 193
GlifName: si_J_nyR_I_i
Width: 1006
VWidth: 0
GlyphClass: 2
Flags: W
LayerCount: 2
Back
Fore
SplineSet
620.023 465 m 257
 487.021 465 l 258
 458.515 465 448.503 454.047 445.021 435 c 258
 417.599 285 l 257
 441.606 285 l 258
 466.273 285 478.606 270.667 478.606 242 c 258
 478.606 60 l 258
 478.606 12.6074 459.206 0 411.606 0 c 258
 228.023 0 l 258
 191.385 0 180.023 19.0518 180.023 56 c 258
 180.023 413 l 258
 180.023 475.434 228.947 497 265.614 497 c 258
 344.021 497 l 257
 344.021 465 l 257
 269.614 465 l 258
 233.556 465 217.027 445.488 217.027 403 c 258
 217.023 59.8008 l 258
 217.023 40.5879 220.94 32 240.023 32 c 258
 405.021 32 l 258
 432.155 32 441.606 37.6572 441.606 64 c 258
 441.606 231.996 l 258
 441.606 245.996 437.167 252.996 423.021 252.996 c 258
 376.606 252.996 l 257
 410.606 446 l 258
 416.606 480 440.623 497 482.606 497 c 258
 619.999 497 l 257
 620.023 465 l 257
957 0.000976562 m 257
 615.2 0 l 258
 581.2 0 571 17.9258 571 49.5996 c 258
 571 295.998 l 258
 571 336.654 592.106 352.998 629 352.998 c 258
 915.796 352.998 l 257
 915.795 436 l 258
 915.795 457.285 907.271 465 889 465 c 258
 571 465 l 257
 571 497.001 l 257
 900 497 l 258
 933.564 497 953 480.913 953 444 c 258
 953 321.001 l 257
 640 321 l 258
 615.604 321 608 311.276 608 290 c 258
 608 58.001 l 258
 608 38.1592 616.048 32 631.2 32 c 258
 957 32.001 l 257
 957 0.000976562 l 257
626.601 608.008 m 258
 617 607 608 602 608 590 c 258
 608 511 l 257
 571.194 511 l 257
 571.194 595.803 l 258
 571.194 625.797 588.806 640.011 616 640.011 c 258
 911.607 640.012 l 258
 939.407 640.012 953.807 626.66 953.807 600 c 258
 953.807 540.996 l 258
 953.807 521 943.805 510.996 923.807 510.996 c 258
 769.597 510.994 l 258
 746.321 510.994 741.797 521.302 741.797 537 c 258
 741.797 600 l 258
 741.797 604.531 742.614 607.009 744.196 608 c 257
 626.601 608.008 l 258
571.194 -21 m 257
 608 -21 l 257
 608 -98 l 258
 608 -110 613.09 -118.006 626.204 -118.006 c 258
 900.003 -118.006 l 258
 914.837 -118.006 920.002 -109.877 920.002 -97 c 258
 920.002 5 l 257
 957.003 5 l 257
 957.003 -107 l 258
 957.003 -138.563 941.336 -150 916.003 -150 c 258
 615.194 -150 l 258
 588.11 -150 571.194 -135.797 571.194 -105.803 c 258
 571.194 -21 l 257
116.602 465 m 258
 76.8906 465 59 452.74 59 412 c 258
 59 0 l 257
 22 0 l 257
 22 424 l 258
 22 476.166 58.8513 497 105.4 497 c 258
 281.614 497 l 257
 211.614 465 l 257
 116.602 465 l 258
794 608 m 258
 784 608 779 604 779 596 c 258
 779 556 l 258
 779 547.333 780.333 543 791 543 c 258
 904.808 543 l 258
 915.475 543 916.808 547.667 916.808 557 c 258
 916.808 592.196 l 258
 916.808 602.605 911.141 608 899.808 608 c 258
 794 608 l 258
EndSplineSet
EndChar

StartChar: si_JnyRa
Encoding: 194 -1 194
GlifName: si_J_nyR_a
Width: 1006
VWidth: 0
GlyphClass: 2
Flags: W
LayerCount: 2
Back
Fore
SplineSet
620.023 465 m 257
 487.021 465 l 258
 458.515 465 448.503 454.047 445.021 435 c 258
 417.599 285 l 257
 441.606 285 l 258
 466.273 285 478.606 270.667 478.606 242 c 258
 478.606 60 l 258
 478.606 12.6074 459.206 0 411.606 0 c 258
 228.023 0 l 258
 191.385 0 180.023 19.0518 180.023 56 c 258
 180.023 413 l 258
 180.023 475.434 228.947 497 265.614 497 c 258
 344.021 497 l 257
 344.021 465 l 257
 269.614 465 l 258
 233.556 465 217.027 445.488 217.027 403 c 258
 217.023 59.8008 l 258
 217.023 40.5879 220.94 32 240.023 32 c 258
 405.021 32 l 258
 432.155 32 441.606 37.6572 441.606 64 c 258
 441.606 231.996 l 258
 441.606 245.996 437.167 252.996 423.021 252.996 c 258
 376.606 252.996 l 257
 410.606 446 l 258
 416.606 480 440.623 497 482.606 497 c 258
 619.999 497 l 257
 620.023 465 l 257
116.602 465 m 258
 76.8906 465 59 452.74 59 412 c 258
 59 0 l 257
 22 0 l 257
 22 424 l 258
 22 476.166 58.8513 497 105.4 497 c 258
 281.614 497 l 257
 211.614 465 l 257
 116.602 465 l 258
EndSplineSet
Refer: 64 -1 N 1 0 0 1 550 0 2
EndChar

StartChar: si_JnyU
Encoding: 195 -1 195
GlifName: si_J_nyU_
Width: 1006
VWidth: 0
GlyphClass: 2
Flags: W
LayerCount: 2
Back
Fore
SplineSet
620.023 465 m 257
 487.021 465 l 258
 458.515 465 448.503 454.047 445.021 435 c 258
 417.599 285 l 257
 441.606 285 l 258
 466.273 285 478.606 270.667 478.606 242 c 258
 478.606 60 l 258
 478.606 12.6074 459.206 0 411.606 0 c 258
 228.023 0 l 258
 191.385 0 180.023 19.0518 180.023 56 c 258
 180.023 413 l 258
 180.023 475.434 228.947 497 265.614 497 c 258
 344.021 497 l 257
 344.021 465 l 257
 269.614 465 l 258
 233.556 465 217.027 445.488 217.027 403 c 258
 217.023 59.8008 l 258
 217.023 40.5879 220.94 32 240.023 32 c 258
 405.021 32 l 258
 432.155 32 441.606 37.6572 441.606 64 c 258
 441.606 231.996 l 258
 441.606 245.996 437.167 252.996 423.021 252.996 c 258
 376.606 252.996 l 257
 410.606 446 l 258
 416.606 480 440.623 497 482.606 497 c 258
 619.999 497 l 257
 620.023 465 l 257
116.602 465 m 258
 76.8906 465 59 452.74 59 412 c 258
 59 0 l 257
 22 0 l 257
 22 424 l 258
 22 476.166 58.8516 497 105.4 497 c 258
 281.614 497 l 257
 211.614 465 l 257
 116.602 465 l 258
EndSplineSet
Refer: 65 -1 N 1 0 0 1 544 0 2
EndChar

StartChar: si_JnyUu
Encoding: 196 -1 196
GlifName: si_J_nyU_u
Width: 1006
VWidth: 0
GlyphClass: 2
Flags: W
LayerCount: 2
Back
Fore
SplineSet
620.023 465 m 257
 487.021 465 l 258
 458.515 465 448.503 454.047 445.021 435 c 258
 417.599 285 l 257
 441.606 285 l 258
 466.273 285 478.606 270.667 478.606 242 c 258
 478.606 60 l 258
 478.606 12.6074 459.206 0 411.606 0 c 258
 228.023 0 l 258
 191.385 0 180.023 19.0518 180.023 56 c 258
 180.023 413 l 258
 180.023 475.434 228.947 497 265.614 497 c 258
 344.021 497 l 257
 344.021 465 l 257
 269.614 465 l 258
 233.556 465 217.027 445.488 217.027 403 c 258
 217.023 59.8008 l 258
 217.023 40.5879 220.94 32 240.023 32 c 258
 405.021 32 l 258
 432.155 32 441.606 37.6572 441.606 64 c 258
 441.606 231.996 l 258
 441.606 245.996 437.167 252.996 423.021 252.996 c 258
 376.606 252.996 l 257
 410.606 446 l 258
 416.606 480 440.623 497 482.606 497 c 258
 619.999 497 l 257
 620.023 465 l 257
116.602 465 m 258
 76.8906 465 59 452.74 59 412 c 258
 59 0 l 257
 22 0 l 257
 22 424 l 258
 22 476.166 58.8516 497 105.4 497 c 258
 281.614 497 l 257
 211.614 465 l 257
 116.602 465 l 258
EndSplineSet
Refer: 66 -1 N 1 0 0 1 544 0 2
EndChar

StartChar: si_Jnya
Encoding: 197 3493 197
GlifName: si_J_nya
Width: 1006
VWidth: 0
GlyphClass: 2
Flags: W
LayerCount: 2
Back
Fore
SplineSet
620.023 465 m 257
 487.021 465 l 258
 458.515 465 448.503 454.047 445.021 435 c 258
 417.599 285 l 257
 441.606 285 l 258
 466.273 285 478.606 270.667 478.606 242 c 258
 478.606 60 l 258
 478.606 12.6074 459.206 0 411.606 0 c 258
 228.023 0 l 258
 191.385 0 180.023 19.0518 180.023 56 c 258
 180.023 413 l 258
 180.023 475.434 228.947 497 265.614 497 c 258
 344.021 497 l 257
 344.021 465 l 257
 269.614 465 l 258
 233.556 465 217.027 445.488 217.027 403 c 258
 217.023 59.8008 l 258
 217.023 40.5879 220.94 32 240.023 32 c 258
 405.021 32 l 258
 432.155 32 441.606 37.6572 441.606 64 c 258
 441.606 231.996 l 258
 441.606 245.996 437.167 252.996 423.021 252.996 c 258
 376.606 252.996 l 257
 410.606 446 l 258
 416.606 480 440.623 497 482.606 497 c 258
 619.999 497 l 257
 620.023 465 l 257
116.602 465 m 258
 76.8906 465 59 452.74 59 412 c 258
 59 0 l 257
 22 0 l 257
 22 424 l 258
 22 476.166 58.8513 497 105.4 497 c 258
 281.614 497 l 257
 211.614 465 l 257
 116.602 465 l 258
EndSplineSet
Refer: 78 3503 N 1 0 0 1 550 0 2
EndChar

StartChar: si_KSsI
Encoding: 205 -1 205
GlifName: si_K_S_sI_
Width: 918
VWidth: 0
GlyphClass: 2
Flags: W
LayerCount: 2
Back
Fore
SplineSet
432.198 511 m 257
 432.198 595.803 l 258
 432.198 625.797 449.114 640 476.198 640 c 258
 828.603 640 l 258
 853.936 640 869.603 628.565 869.603 597 c 258
 869.603 511 l 257
 832.602 511 l 257
 832.602 587 l 258
 832.602 599.878 827.437 608.006 812.603 608.006 c 258
 487.208 608.006 l 258
 474.094 608.006 469.004 600 469.004 588 c 258
 469.004 511 l 257
 432.198 511 l 257
EndSplineSet
Refer: 209 -1 N 1 0 0 1 0 0 2
EndChar

StartChar: si_KSsIi
Encoding: 206 -1 206
GlifName: si_K_S_sI_i
Width: 918
VWidth: 0
GlyphClass: 2
Flags: W
LayerCount: 2
Back
Fore
SplineSet
685.803 608 m 258
 675.803 608 670.803 604 670.803 596 c 258
 670.803 565.409 l 258
 670.803 556.742 672.136 552.409 682.803 552.409 c 258
 820.803 552.409 l 258
 831.47 552.409 832.803 557.076 832.803 566.409 c 258
 832.803 592.196 l 258
 832.803 602.605 827.136 608 815.803 608 c 258
 685.803 608 l 258
491.202 608.008 m 258
 479.755 608.008 472.001 602 472.001 590 c 258
 472.001 511 l 257
 435.195 511 l 257
 435.195 595.803 l 258
 435.195 625.797 452.807 640.011 480.001 640.011 c 258
 827.603 640.012 l 258
 855.402 640.012 869.802 626.66 869.802 600 c 258
 869.802 550.405 l 258
 869.802 530.409 859.8 520.405 839.802 520.405 c 258
 661.399 520.403 l 258
 638.124 520.403 633.6 530.711 633.6 546.409 c 258
 633.6 600 l 258
 633.6 604.531 634.417 607.009 635.999 608 c 257
 491.202 608.008 l 258
EndSplineSet
Refer: 209 -1 N 1 0 0 1 0 0 2
EndChar

StartChar: si_KSsa
Encoding: 209 -1 209
GlifName: si_K_S_sa
Width: 918
VWidth: 0
GlyphClass: 2
Flags: W
LayerCount: 2
Back
Fore
SplineSet
330.994 307.809 m 258
 330.994 326.779 321.033 332.809 305.994 332.809 c 258
 163 332.81 l 257
 71.2031 256 l 257
 97.9844 256 l 257
 97.9844 228.2 l 257
 63.915 209.638 58.9844 193.123 58.9844 146.014 c 258
 58.9844 56 l 258
 58.9844 38.667 64.6309 32 79.3838 32 c 258
 133.798 32 l 258
 173.903 32 176.197 61.5811 176.197 94 c 258
 176.197 188 l 257
 213.398 188.003 l 257
 213.398 94 l 258
 213.398 61.5684 213.902 32 251.798 32 c 258
 305 32 l 258
 326.589 32 330.994 46.001 330.994 64 c 258
 330.994 307.809 l 258
12 252.991 m 257
 156.992 374.211 l 257
 156.831 430 l 258
 156.777 454.001 150.944 465 128 465 c 258
 38 465 l 257
 38 497.001 l 257
 147.195 497 l 258
 175.434 497 192.909 477.275 192.947 440.799 c 258
 192.995 404.206 l 257
 274.006 472 l 258
 297.624 491.765 320.747 497 339.209 497 c 258
 481.598 497 l 257
 481.6 465 l 257
 355.815 465 l 258
 328.595 465 312.183 457.316 292.609 441 c 258
 201.205 364.81 l 257
 320.994 364.809 l 258
 346.368 364.809 367.994 350.017 367.994 315.809 c 258
 367.994 52.999 l 258
 367.994 19.4961 344.573 -0.000976562 316.81 -0.000976562 c 258
 230.997 0 l 258
 212.04 0 198.664 9.66699 193.997 29.001 c 257
 189.33 9.66699 172.689 0 154.997 0 c 258
 66.9844 0 l 258
 38.4756 0 21.9844 19.7461 21.9844 46 c 258
 21.9844 156.011 l 258
 21.9844 198.781 29.9258 215.78 44.7832 224.8 c 257
 12 224.8 l 257
 12 252.991 l 257
EndSplineSet
Refer: 434 3522 N 1 0 0 1 409 0 2
EndChar

StartChar: si_KV.halant
Encoding: 213 -1 213
GlifName: si_K_V_.halant
Width: 910
VWidth: 0
GlyphClass: 2
Flags: W
LayerCount: 2
Back
Fore
SplineSet
12 252.991 m 257
 156.992 374.211 l 257
 156.831 430 l 258
 156.777 454.001 150.944 465 128 465 c 258
 38 465 l 257
 38 497.001 l 257
 147.195 497 l 258
 175.434 497 192.909 477.275 192.947 440.799 c 258
 192.995 404.206 l 257
 226 432 l 258
 237.779 441.919 249.762 447.419 261.108 450.44 c 256
 272.454 453.46 283.163 454.001 292.394 454.001 c 258
 481.598 454.001 l 257
 481.6 422.001 l 257
 309 422.001 l 258
 295.389 422.001 285.023 421.591 275.618 419.136 c 256
 266.212 416.681 257.767 412.18 248 404 c 258
 201.205 364.81 l 257
 320.994 364.809 l 258
 346.368 364.809 367.994 350.017 367.994 315.809 c 258
 367.994 52.999 l 258
 367.994 19.4961 344.573 -0.000976562 316.81 -0.000976562 c 258
 230.997 0 l 258
 212.04 0 198.664 9.66699 193.997 29.001 c 257
 189.33 9.66699 172.689 0 154.997 0 c 258
 66.9844 0 l 258
 38.4756 0 21.9844 19.7461 21.9844 46 c 258
 21.9844 156.011 l 258
 21.9844 198.781 29.9258 215.78 44.7832 224.8 c 257
 12 224.8 l 257
 12 252.991 l 257
860 415 m 257
 860 54 l 258
 860 16.2705 845.075 0 808 0 c 258
 472 0 l 258
 434.928 0 422 16.2734 422 54 c 258
 422 280 l 258
 422 316.667 440.667 335 478 335 c 258
 603.094 335 l 257
 603.094 402 l 258
 603.094 419.568 588.667 422 578 422 c 258
 421.999 422 l 257
 421.999 454 l 257
 589 454 l 258
 624.223 454 639.994 438.405 639.996 402 c 258
 640 303 l 257
 487 303 l 258
 471.167 303 459 296.976 459 275 c 258
 459 58 l 258
 459 43.333 460.958 32 478 32 c 258
 800.8 32 l 258
 816.448 32 823 40.7402 823 61 c 258
 823 415 l 257
 860 415 l 257
330.994 307.809 m 258
 330.994 326.779 321.033 332.809 305.994 332.809 c 258
 163 332.81 l 257
 71.2031 256 l 257
 97.9844 256 l 257
 97.9844 228.2 l 257
 63.915 209.638 58.9844 193.123 58.9844 146.014 c 258
 58.9844 56 l 258
 58.9844 38.667 64.6309 32 79.3838 32 c 258
 133.798 32 l 258
 173.903 32 176.197 61.5811 176.197 94 c 258
 176.197 188 l 257
 213.398 188.003 l 257
 213.398 94 l 258
 213.398 61.5684 213.902 32 251.798 32 c 258
 305 32 l 258
 326.589 32 330.994 46.001 330.994 64 c 258
 330.994 307.809 l 258
860 400 m 257
 823 400 l 257
 823 465 l 258
 823 505.98 810.364 518 775 518 c 258
 414 518 l 257
 414 550 l 257
 482 550 l 257
 452.667 557.333 450 582.667 450 604 c 258
 450 632 l 258
 450 659.333 466.333 673 499 673 c 258
 858 673 l 257
 858 641 l 257
 502.5 641 l 258
 487.531 641 487 633.667 487 616 c 256
 487 573.678 497.397 550 568 550 c 258
 783 550 l 258
 843.379 550 860 528.468 860 469 c 258
 860 400 l 257
EndSplineSet
EndChar

StartChar: si_KVI
Encoding: 214 -1 214
GlifName: si_K_V_I_
Width: 910
VWidth: 0
GlyphClass: 2
Flags: W
LayerCount: 2
Back
Fore
SplineSet
12 252.991 m 257
 156.992 374.211 l 257
 156.831 430 l 258
 156.777 454.001 150.944 465 128 465 c 258
 38 465 l 257
 38 497.001 l 257
 147.195 497 l 258
 175.434 497 192.909 477.275 192.947 440.799 c 258
 192.995 404.206 l 257
 226 432 l 258
 249.557 451.838 273.932 454.001 292.394 454.001 c 258
 382.617 454.001 l 257
 481.598 454.001 l 257
 481.6 422.001 l 257
 382.172 422.001 l 257
 309 422.001 l 258
 281.779 422.001 267.535 420.361 248 404 c 258
 201.205 364.81 l 257
 320.994 364.809 l 258
 346.368 364.809 367.994 350.017 367.994 315.809 c 258
 367.994 52.999 l 258
 367.994 19.4961 344.573 -0.000976562 316.81 -0.000976562 c 258
 230.997 0 l 258
 212.04 0 198.664 9.66699 193.997 29.001 c 257
 189.33 9.66699 172.689 0 154.997 0 c 258
 66.9844 0 l 258
 38.4756 0 21.9844 19.7461 21.9844 46 c 258
 21.9844 156.011 l 258
 21.9844 198.781 29.9258 215.78 44.7832 224.8 c 257
 12 224.8 l 257
 12 252.991 l 257
860 415 m 257
 860 54 l 258
 860 16.2705 845.075 0 808 0 c 258
 472 0 l 258
 434.928 0 422 16.2734 422 54 c 258
 422 280 l 258
 422 316.667 440.667 335 478 335 c 258
 603.094 335 l 257
 603.094 402 l 258
 603.094 419.568 588.667 422 578 422 c 258
 421.999 422 l 257
 421.999 454 l 257
 589 454 l 258
 624.223 454 639.994 438.405 639.996 402 c 258
 640 303 l 257
 487 303 l 258
 471.167 303 459 296.976 459 275 c 258
 459 58 l 258
 459 43.333 460.958 32 478 32 c 258
 800.8 32 l 258
 816.448 32 823 40.7402 823 61 c 258
 823 415 l 257
 860 415 l 257
330.994 307.809 m 258
 330.994 326.779 321.033 332.809 305.994 332.809 c 258
 163 332.81 l 257
 71.2031 256 l 257
 97.9844 256 l 257
 97.9844 228.2 l 257
 63.915 209.638 58.9844 193.123 58.9844 146.014 c 258
 58.9844 56 l 258
 58.9844 38.667 64.6309 32 79.3838 32 c 258
 133.798 32 l 258
 173.903 32 176.197 61.5811 176.197 94 c 258
 176.197 188 l 257
 213.398 188.003 l 257
 213.398 94 l 258
 213.398 61.5684 213.902 32 251.798 32 c 258
 305 32 l 258
 326.589 32 330.994 46.001 330.994 64 c 258
 330.994 307.809 l 258
860 400 m 257
 823 400 l 257
 823 457 l 258
 823 496.378 813.94 509.5 781 509.5 c 258
 469 509.5 l 258
 437.667 509.5 422 525.5 422 557.5 c 258
 422 620 l 258
 422 653.415 436.104 672 472 672 c 258
 858.5 672 l 257
 858.5 640 l 257
 484 640 l 258
 463.083 640 458.875 635.559 458.875 611 c 258
 458.875 566 l 258
 458.875 552.489 460.433 541.5 483 541.5 c 258
 787 541.5 l 258
 838.204 541.5 860 524.66 860 463 c 258
 860 400 l 257
EndSplineSet
EndChar

StartChar: si_KVIi
Encoding: 215 -1 215
GlifName: si_K_V_I_i
Width: 910
VWidth: 0
GlyphClass: 2
Flags: W
LayerCount: 2
Back
Fore
SplineSet
12 252.991 m 257
 156.992 374.211 l 257
 156.831 430 l 258
 156.777 454.001 150.944 465 128 465 c 258
 38 465 l 257
 38 497.001 l 257
 147.195 497 l 258
 175.434 497 192.909 477.275 192.947 440.799 c 258
 192.995 404.206 l 257
 226 432 l 258
 249.557 451.838 273.932 454.001 292.394 454.001 c 258
 363.104 454.001 l 257
 481.598 454.001 l 257
 481.6 422.001 l 257
 363.188 422.001 l 257
 309 422.001 l 258
 281.779 422.001 267.535 420.361 248 404 c 258
 201.205 364.81 l 257
 320.994 364.809 l 258
 346.368 364.809 367.994 350.017 367.994 315.809 c 258
 367.994 52.999 l 258
 367.994 19.4961 344.573 -0.000976562 316.81 -0.000976562 c 258
 230.997 0 l 258
 212.04 0 198.664 9.66699 193.997 29.001 c 257
 189.33 9.66699 172.689 0 154.997 0 c 258
 66.9844 0 l 258
 38.4756 0 21.9844 19.7461 21.9844 46 c 258
 21.9844 156.011 l 258
 21.9844 198.781 29.9258 215.78 44.7832 224.8 c 257
 12 224.8 l 257
 12 252.991 l 257
860 415 m 257
 860 54 l 258
 860 16.2705 845.075 0 808 0 c 258
 472 0 l 258
 434.928 0 422 16.2734 422 54 c 258
 422 280 l 258
 422 316.667 440.667 335 478 335 c 258
 603.094 335 l 257
 603.094 402 l 258
 603.094 419.568 588.667 422 578 422 c 258
 421.999 422 l 257
 421.999 454 l 257
 589 454 l 258
 624.223 454 639.994 438.405 639.996 402 c 258
 640 303 l 257
 487 303 l 258
 471.167 303 459 296.976 459 275 c 258
 459 58 l 258
 459 43.333 460.958 32 478 32 c 258
 800.8 32 l 258
 816.448 32 823 40.7402 823 61 c 258
 823 415 l 257
 860 415 l 257
330.994 307.809 m 258
 330.994 326.779 321.033 332.809 305.994 332.809 c 258
 163 332.81 l 257
 71.2031 256 l 257
 97.9844 256 l 257
 97.9844 228.2 l 257
 63.915 209.638 58.9844 193.123 58.9844 146.014 c 258
 58.9844 56 l 258
 58.9844 38.667 64.6309 32 79.3838 32 c 258
 133.798 32 l 258
 173.903 32 176.197 61.5811 176.197 94 c 258
 176.197 188 l 257
 213.398 188.003 l 257
 213.398 94 l 258
 213.398 61.5684 213.902 32 251.798 32 c 258
 305 32 l 258
 326.589 32 330.994 46.001 330.994 64 c 258
 330.994 307.809 l 258
822.999 405 m 257
 822.999 479.5 l 258
 822.999 497.69 805.682 509.5 786.999 509.5 c 258
 464.999 509.5 l 258
 435.156 509.5 421.999 518.271 421.999 550.5 c 258
 421.999 618 l 258
 421.999 654.859 435.41 672 471.999 672 c 258
 809.999 672 l 258
 846.587 672 859.999 654.858 859.999 618 c 258
 859.999 570 l 258
 859.999 547.838 850.686 532.87 832.999 528 c 257
 854.91 521.152 859.999 504.274 859.999 475 c 258
 859.999 405 l 257
 822.999 405 l 257
671.999 539 m 257
 661.999 542 653.999 550.292 653.999 567 c 258
 653.999 621 l 258
 653.999 633.107 660.5 638.25 663.999 640 c 257
 663.852 640 475.874 640 475.874 640 c 258
 464.541 640 458.874 635.333 458.874 626 c 258
 458.874 554 l 258
 458.874 544 464.207 539 474.874 539 c 258
 671.999 539 l 257
714.999 640 m 258
 699.449 640 690.999 630.698 690.999 616 c 258
 690.999 570.5 l 258
 690.999 551.602 707.266 545.5 724.499 545.5 c 258
 786.999 545.5 l 258
 803.344 545.5 822.999 550.393 822.999 577 c 258
 822.999 627.5 l 258
 822.999 636.697 815.692 640 808.499 640 c 258
 714.999 640 l 258
EndSplineSet
EndChar

StartChar: si_KVa
Encoding: 218 -1 218
GlifName: si_K_V_a
Width: 910
VWidth: 0
GlyphClass: 2
Flags: W
LayerCount: 2
Back
Fore
SplineSet
12 252.991 m 257
 156.992 374.211 l 257
 156.831 430 l 258
 156.777 454.001 150.944 465 128 465 c 258
 38 465 l 257
 38 497.001 l 257
 147.195 497 l 258
 175.434 497 192.909 477.275 192.947 440.799 c 258
 192.995 404.206 l 257
 274.006 472 l 258
 297.624 491.765 320.747 497 339.209 497 c 258
 388.263 497 l 257
 481.598 497 l 257
 481.6 465 l 257
 388.153 465 l 257
 355.815 465 l 258
 328.595 465 312.183 457.316 292.609 441 c 258
 201.205 364.81 l 257
 320.994 364.809 l 258
 346.368 364.809 367.994 350.017 367.994 315.809 c 258
 367.994 52.999 l 258
 367.994 19.4961 344.573 -0.000976562 316.81 -0.000976562 c 258
 230.997 0 l 258
 212.04 0 198.664 9.66699 193.997 29.001 c 257
 189.33 9.66699 172.689 0 154.997 0 c 258
 66.9844 0 l 258
 38.4756 0 21.9844 19.7461 21.9844 46 c 258
 21.9844 156.011 l 258
 21.9844 198.781 29.9258 215.78 44.7832 224.8 c 257
 12 224.8 l 257
 12 252.991 l 257
861 415 m 257
 861 54 l 258
 861 16.2705 846.075 0 809 0 c 258
 473 0 l 258
 435.928 0 423 16.2754 423 54 c 258
 423 298 l 258
 423 334.667 441.667 353 479 353 c 258
 604.094 353 l 257
 604.094 445.002 l 258
 604.094 462.556 589.667 465.002 579 465.002 c 258
 422.999 465.002 l 257
 422.999 497.002 l 257
 590 497.002 l 258
 625.223 497.002 640.995 481.393 640.996 445.002 c 258
 641 321 l 257
 488 321 l 258
 472.167 321 460 314.976 460 293 c 258
 460 58 l 258
 460 43.334 461.958 32 479 32 c 258
 801.8 32 l 258
 817.448 32 824 40.7402 824 61 c 258
 824 415 l 257
 861 415 l 257
330.994 307.809 m 258
 330.994 326.779 321.033 332.809 305.994 332.809 c 258
 163 332.81 l 257
 71.2031 256 l 257
 97.9844 256 l 257
 97.9844 228.2 l 257
 63.915 209.638 58.9844 193.123 58.9844 146.014 c 258
 58.9844 56 l 258
 58.9844 38.667 64.6309 32 79.3838 32 c 258
 133.798 32 l 258
 173.903 32 176.197 61.5811 176.197 94 c 258
 176.197 188 l 257
 213.398 188.003 l 257
 213.398 94 l 258
 213.398 61.5684 213.902 32 251.798 32 c 258
 305 32 l 258
 326.589 32 330.994 46.001 330.994 64 c 258
 330.994 307.809 l 258
785 625 m 258
 836.559 625 861 601.678 861 548 c 258
 861 400 l 257
 824 400 l 257
 824 541 l 258
 824 579.354 814.56 593 776.598 593 c 258
 423 593 l 257
 423 625 l 257
 785 625 l 258
EndSplineSet
EndChar

StartChar: si_Ka
Encoding: 219 3482 219
GlifName: si_K_a
Width: 592
VWidth: 0
GlyphClass: 2
Flags: W
LayerCount: 2
Back
Fore
SplineSet
330.994 307.809 m 258
 330.994 326.779 321.033 332.809 305.994 332.809 c 258
 163 332.81 l 257
 71.2031 256 l 257
 97.9844 256 l 257
 97.9844 228.2 l 257
 63.915 209.638 58.9844 193.123 58.9844 146.014 c 258
 58.9844 56 l 258
 58.9844 38.667 64.6309 32 79.3838 32 c 258
 133.798 32 l 258
 173.903 32 176.197 61.5811 176.197 94 c 258
 176.197 188 l 257
 213.398 188.003 l 257
 213.398 94 l 258
 213.398 61.5684 213.902 32 251.798 32 c 258
 305 32 l 258
 326.589 32 330.994 46.001 330.994 64 c 258
 330.994 307.809 l 258
192.995 404.206 m 257
 274.006 472 l 258
 297.624 491.765 320.747 497 339.209 497 c 258
 481.598 497 l 258
 516.822 497 537.985 474.331 537.985 441 c 258
 537.985 54 l 258
 537.985 19.2629 515.119 -3.566e-15 486 0 c 258
 385.8 0 l 257
 385.8 31.9971 l 257
 475.199 31.998 l 258
 492.207 31.9982 500.977 43.8652 500.977 63 c 258
 500.977 432 l 258
 500.977 452.244 491.24 465 468.598 465 c 258
 355.815 465 l 258
 328.595 465 312.183 457.316 292.609 441 c 258
 201.205 364.81 l 257
 320.994 364.809 l 258
 346.368 364.809 367.994 350.017 367.994 315.809 c 258
 367.994 52.999 l 258
 367.994 19.4961 344.573 -0.000976562 316.81 -0.000976562 c 258
 230.997 0 l 258
 212.04 0 198.664 9.66699 193.997 29.001 c 257
 189.33 9.66699 172.689 0 154.997 0 c 258
 66.9844 0 l 258
 38.4756 0 21.9844 19.7461 21.9844 46 c 258
 21.9844 156.011 l 258
 21.9844 198.781 29.9258 215.78 44.7832 224.8 c 257
 12 224.8 l 257
 12 252.991 l 257
 156.992 374.211 l 257
 156.831 430 l 258
 156.777 454.001 150.944 465 128 465 c 258
 38 465 l 257
 38 497.001 l 257
 147.195 497 l 258
 175.434 497 192.909 477.275 192.947 440.799 c 258
 192.995 404.206 l 257
EndSplineSet
EndChar

StartChar: si_Kh.halant
Encoding: 221 -1 221
GlifName: si_K_h.halant
Width: 518
VWidth: 0
GlyphClass: 2
Flags: W
LayerCount: 2
Back
Fore
SplineSet
460 413 m 257
 460 51 l 258
 460 26.0732 448.267 0 414.005 0 c 258
 316.407 0 l 258
 283.074 0 244.164 46.2275 234.806 68.001 c 257
 208.007 -5 l 257
 169.808 -5 l 257
 250 216.598 l 257
 250.001 348.6 l 258
 250.001 364.891 243.14 379.802 222.998 379.802 c 258
 88 379.802 l 258
 68.1836 379.802 59 366.117 59 345.001 c 258
 59 57 l 258
 59 39.1271 64.625 32 81.002 32 c 258
 133.003 32 l 257
 133 0 l 257
 65 0 l 258
 38.3047 0 22 16.7642 22 48 c 258
 22 348.001 l 258
 22 383.967 40.6514 411.976 81 411.976 c 258
 231.191 411.976 l 258
 263.718 411.976 287.191 394.669 287.191 357.001 c 258
 286.591 212 l 257
 250.403 111.801 l 257
 256.577 96.877 292.042 32 333.407 32 c 258
 400.004 32 l 258
 419.401 32 423.007 49.2012 423.007 63.2012 c 258
 423.007 413.001 l 257
 460 413 l 257
460 400 m 257
 423 400 l 257
 423 465 l 258
 423 505.981 410.364 518 375 518 c 258
 14 518 l 257
 14 550 l 257
 82 550 l 257
 52.667 557.333 50 582.667 50 604 c 258
 50 632 l 258
 50 659.333 66.3333 673 99 673 c 258
 458 673 l 257
 458 641 l 257
 102.5 641 l 258
 87.5312 641 87 633.667 87 616 c 256
 87 573.678 97.3973 550 168 550 c 258
 383 550 l 258
 443.379 550 460 528.468 460 469 c 258
 460 400 l 257
EndSplineSet
EndChar

StartChar: si_KhI
Encoding: 222 -1 222
GlifName: si_K_hI_
Width: 518
VWidth: 0
GlyphClass: 2
Flags: W
LayerCount: 2
Back
Fore
SplineSet
460 413 m 257
 460 51 l 258
 460 26.0732 448.267 0 414.005 0 c 258
 316.407 0 l 258
 283.074 0 244.164 46.2275 234.806 68.001 c 257
 208.007 -5 l 257
 169.808 -5 l 257
 250 216.598 l 257
 250.001 348.6 l 258
 250.001 364.891 243.14 379.802 222.998 379.802 c 258
 88 379.802 l 258
 68.1836 379.802 59 366.117 59 345.001 c 258
 59 57 l 258
 59 39.1271 64.625 32 81.002 32 c 258
 133.003 32 l 257
 133 0 l 257
 65 0 l 258
 38.3047 0 22 16.7642 22 48 c 258
 22 348.001 l 258
 22 383.967 40.6514 411.976 81 411.976 c 258
 231.191 411.976 l 258
 263.718 411.976 287.191 394.669 287.191 357.001 c 258
 286.591 212 l 257
 250.403 111.801 l 257
 256.577 96.877 292.042 32 333.407 32 c 258
 400.004 32 l 258
 419.401 32 423.007 49.2012 423.007 63.2012 c 258
 423.007 413.001 l 257
 460 413 l 257
460 400 m 257
 423 400 l 257
 423 476 l 258
 423 499.381 416.127 509.5 391 509.5 c 258
 69 509.5 l 258
 37.667 509.5 22 525.5 22 557.5 c 258
 22 620 l 258
 22 653.415 36.1038 672 72 672 c 258
 458.5 672 l 257
 458.5 640 l 257
 84 640 l 258
 63.083 640 58.875 635.558 58.875 611 c 258
 58.875 566 l 258
 58.875 552.49 60.4326 541.5 83 541.5 c 258
 391 541.5 l 258
 447.814 541.5 460 524.085 460 466 c 258
 460 400 l 257
EndSplineSet
EndChar

